<svg width="160" height="160" viewBox="0 0 160 160" fill="none" xmlns="http://www.w3.org/2000/svg">
<rect width="160" height="160" fill="white"/>
<rect x="2" y="38.9609" width="90" height="90" rx="2" fill="#F4F5F8" stroke="#E3E5EB" stroke-width="2" stroke-linecap="round" stroke-dasharray="0.5 4"/>
<path d="M37 84H57" stroke="#E3E5EB" stroke-width="3" stroke-linecap="round"/>
<path d="M47 74L47 94" stroke="#E3E5EB" stroke-width="3" stroke-linecap="round"/>
<path d="M95.8789 51.6682H113.639V58.2282L94.8442 56.8462C93.1725 56.7233 91.8789 55.3311 91.8789 53.6549V43.6682C91.8789 43.3147 92.1654 43.0282 92.5189 43.0282H92.6789C94.4462 43.0282 95.8789 44.4609 95.8789 46.2282V51.6682Z" fill="#D1D2D7"/>
<path d="M155.967 60.1739L150.759 56.6282L147.559 63.9882L149.479 64.6282L142.759 83.6682H154.964C155.646 83.6682 156.199 83.1156 156.199 82.4339C156.199 80.7297 154.817 79.3482 153.113 79.3482H149.479L157.028 64.2501C157.744 62.8173 157.291 61.0755 155.967 60.1739Z" fill="#D1D2D7"/>
<path fill-rule="evenodd" clip-rule="evenodd" d="M148.194 84.6283L124.999 84.0001L121.64 60.9483L98.1199 57.9083V51.0283H139.08C144.889 51.0283 153.993 55.2461 158.137 59.9731C158.884 60.8247 158.924 62.0476 158.41 63.0568L150.6 78.3883H147.842C148.194 80.6283 148.354 82.0683 148.194 84.6283ZM148.841 64.9482L145.481 64.3082C145.798 65.7778 146.234 68.0297 146.657 70.6277L148.841 64.9482Z" fill="#F0F2F6"/>
<path d="M131.074 49.1082L137.154 48.1082V50.5482C137.154 52.2272 135.793 53.5882 134.114 53.5882C132.435 53.5882 131.074 52.2272 131.074 50.5482V49.1082Z" fill="#D1D2D7"/>
<path d="M133.44 53.3709L131.258 50.9163C131.152 50.797 130.974 50.7741 130.842 50.8627L130.314 51.2142C130.195 51.2935 130.143 51.4422 130.187 51.5783L131.386 55.3079C131.461 55.5408 131.759 55.607 131.925 55.4277L133.435 53.8013C133.548 53.6804 133.55 53.4942 133.44 53.3709Z" fill="white"/>
<path d="M133.867 53.3972L136.964 50.8632C137.076 50.7717 137.235 50.7665 137.352 50.8505L138.033 51.3365C138.169 51.4334 138.207 51.6185 138.121 51.7616L135.736 55.7329C135.618 55.9297 135.338 55.9417 135.203 55.7559L133.81 53.8326C133.711 53.6953 133.736 53.5045 133.867 53.3972Z" fill="white"/>
<path d="M125.991 41.0604C125.613 45.3738 128.113 49.3451 132.514 49.7302C137.48 50.1647 141.553 46.7683 141.93 42.4549C142.307 38.1414 139.045 34.3325 134.644 33.9475C130.242 33.5624 126.368 36.747 125.991 41.0604Z" fill="#E3E5EB"/>
<path d="M134.641 33.9474C139.043 34.3325 142.305 38.1414 141.927 42.4548C141.848 43.3663 141.612 44.2273 141.248 45.0149C141.581 44.1708 141.864 42.4493 140.333 42.3154C139.834 42.2717 139.523 42.7041 139.37 43.0701C139.307 43.2229 139.155 43.3313 138.994 43.294C136.897 42.8088 133.522 40.1015 131.868 36.2746L131.863 36.2813C130.871 37.5744 128.213 41.0411 125.988 41.0603C126.407 36.2786 130.551 33.5896 134.641 33.9474Z" fill="#2E2E2E"/>
<path d="M116.203 123.56L125 84L148.195 81.3482C148.319 93.3617 146.86 113.032 146.041 123.314C145.994 123.899 146.355 124.433 146.897 124.657C149.359 125.672 149.992 126.872 149.978 129.137C149.976 129.479 149.692 129.748 149.35 129.748H133.877C133.318 129.748 132.877 129.272 132.92 128.715L135.081 100.468L128.06 129.017C127.955 129.447 127.57 129.748 127.128 129.748H111.965C111.58 129.748 111.28 129.41 111.35 129.032C111.884 126.134 113.287 125.195 115.309 124.532C115.756 124.385 116.103 124.021 116.203 123.56Z" fill="#2E2E2E"/>
<circle cx="133.8" cy="61.2411" r="0.96" fill="white"/>
<circle cx="134.12" cy="66.681" r="0.96" fill="white"/>
<circle cx="134.761" cy="72.121" r="0.96" fill="white"/>
</svg>
