<svg width="100%" height="100%" viewBox="0 0 1440 282" fill="none" xmlns="http://www.w3.org/2000/svg">
<rect width="1440" height="280" fill="#4C94FF"/>
<mask id="path-1-outside-1_2604_20336" maskUnits="userSpaceOnUse" x="365.5" y="130" width="380" height="32" fill="black">
<rect fill="white" x="365.5" y="130" width="380" height="32"/>
<path d="M387.83 131H390.998V158.328H387.83V131ZM377.174 134.904C377.142 138.072 376.822 140.984 376.31 143.544L385.238 154.584L382.742 156.472L375.382 147.096C373.494 152.824 370.23 156.216 366.102 156.696V153.56C370.966 152.664 373.846 145.048 373.974 134.904H366.742V131.992H384.182V134.904H377.174ZM417.856 140.504V134.008H397.6V131.32H421.056V140.504H417.856ZM395.776 144.792V142.136H423.072V144.792H395.776ZM397.664 158.008V147.576H421.152V158.008H397.664ZM400.832 155.416H418.016V150.168H400.832V155.416ZM463.102 142.072V145.112H459.262V158.328H456.094V131H459.262V142.072H463.102ZM447.87 141.208V131.8H451.006V156.696H435.806V131.8H438.942V141.208H447.87ZM438.942 153.784H447.87V144.12H438.942V153.784ZM480.007 154.104H492.103V157.016H464.807V154.104H476.775V148.952H466.631V139.096H487.175V134.808H466.631V131.992H490.311V141.816H469.799V146.136H490.727V148.952H480.007V154.104ZM499.312 153.656L497.712 160.888H495.088L496.112 153.656H499.312ZM539.383 142.072V145.112H535.543V158.328H532.375V131H535.543V142.072H539.383ZM524.151 141.208V131.8H527.287V156.696H512.087V131.8H515.223V141.208H524.151ZM515.223 153.784H524.151V144.12H515.223V153.784ZM556.288 154.104H568.384V157.016H541.088V154.104H553.056V148.952H542.912V139.096H563.456V134.808H542.912V131.992H566.592V141.816H546.08V146.136H567.008V148.952H556.288V154.104ZM608.414 135.96V138.904H604.574V145.016H601.406V131H604.574V135.96H608.414ZM589.278 139.864C587.39 142.648 584.222 144.536 580.222 144.92V142.104C584.702 141.496 587.486 138.488 587.902 134.392H580.574V131.704H598.014V134.392H591.102C591.038 135.448 590.814 136.472 590.494 137.432L598.91 142.296L597.406 144.664L589.278 139.864ZM601.47 149.432V146.52H604.574V157.976H581.726V146.52H584.83V149.432H601.47ZM584.83 155.384H601.47V151.992H584.83V155.384ZM638.695 142.072V145.112H634.855V158.328H631.687V131H634.855V142.072H638.695ZM619.143 131.64C623.911 131.64 627.271 135.672 627.271 144.344C627.271 153.016 623.911 157.048 619.143 157.048C614.343 157.048 610.983 153.016 610.983 144.344C610.983 135.672 614.343 131.64 619.143 131.64ZM619.143 154.136C621.959 154.136 624.103 151.288 624.103 144.344C624.103 137.432 621.959 134.552 619.143 134.552C616.295 134.552 614.151 137.432 614.151 144.344C614.151 151.288 616.295 154.136 619.143 154.136ZM671.621 131H674.757V158.328H671.621V144.088H667.589V141.112H671.621V131ZM665.285 131.8C665.253 136.632 665.029 140.792 664.581 144.28L669.765 155.224L667.269 156.504L663.749 148.664C662.565 153.336 660.549 156.056 657.445 156.696L654.789 149.176C653.573 153.528 651.621 156.088 648.613 156.696V153.528C652.229 152.312 653.349 143.128 653.349 131.672L656.453 131.8C656.421 136.664 656.197 140.856 655.749 144.344L658.789 152.6C661.349 149.752 662.181 141.56 662.181 131.672L665.285 131.8ZM707.727 141.816V144.856H703.951V158.328H700.783V131H703.951V141.816H707.727ZM689.775 147.704V153.72C693.359 153.72 696.591 153.368 698.511 152.568V155.544C696.559 156.344 693.327 156.696 689.583 156.696H679.151V153.72H686.607V147.704H680.495V131.896H683.567V136.76H692.847V131.896H695.951V147.704H689.775ZM683.567 139.576V144.856H692.847V139.576H683.567ZM730.456 154.104H736.728V157.016H709.432V154.104H715.704V146.712C712.568 145.272 710.744 142.872 710.744 139.8C710.744 134.744 715.608 131.48 723.064 131.48C730.52 131.48 735.384 134.744 735.384 139.8C735.384 142.84 733.56 145.272 730.456 146.68V154.104ZM714.104 139.8C714.104 143.064 717.688 145.208 723.064 145.208C728.44 145.208 732.056 143.064 732.056 139.8C732.056 136.472 728.44 134.36 723.064 134.36C717.688 134.36 714.104 136.472 714.104 139.8ZM718.872 147.704V154.104H727.288V147.704C726.008 147.96 724.6 148.088 723.064 148.088C721.56 148.088 720.152 147.96 718.872 147.704ZM740.897 150.552L740.097 132.024H744.161L743.329 150.552H740.897ZM742.113 158.168C740.769 158.168 739.745 157.144 739.745 155.8C739.745 154.488 740.769 153.464 742.113 153.464C743.457 153.464 744.481 154.488 744.481 155.8C744.481 157.144 743.457 158.168 742.113 158.168Z"/>
</mask>
<path d="M387.83 131H390.998V158.328H387.83V131ZM377.174 134.904C377.142 138.072 376.822 140.984 376.31 143.544L385.238 154.584L382.742 156.472L375.382 147.096C373.494 152.824 370.23 156.216 366.102 156.696V153.56C370.966 152.664 373.846 145.048 373.974 134.904H366.742V131.992H384.182V134.904H377.174ZM417.856 140.504V134.008H397.6V131.32H421.056V140.504H417.856ZM395.776 144.792V142.136H423.072V144.792H395.776ZM397.664 158.008V147.576H421.152V158.008H397.664ZM400.832 155.416H418.016V150.168H400.832V155.416ZM463.102 142.072V145.112H459.262V158.328H456.094V131H459.262V142.072H463.102ZM447.87 141.208V131.8H451.006V156.696H435.806V131.8H438.942V141.208H447.87ZM438.942 153.784H447.87V144.12H438.942V153.784ZM480.007 154.104H492.103V157.016H464.807V154.104H476.775V148.952H466.631V139.096H487.175V134.808H466.631V131.992H490.311V141.816H469.799V146.136H490.727V148.952H480.007V154.104ZM499.312 153.656L497.712 160.888H495.088L496.112 153.656H499.312ZM539.383 142.072V145.112H535.543V158.328H532.375V131H535.543V142.072H539.383ZM524.151 141.208V131.8H527.287V156.696H512.087V131.8H515.223V141.208H524.151ZM515.223 153.784H524.151V144.12H515.223V153.784ZM556.288 154.104H568.384V157.016H541.088V154.104H553.056V148.952H542.912V139.096H563.456V134.808H542.912V131.992H566.592V141.816H546.08V146.136H567.008V148.952H556.288V154.104ZM608.414 135.96V138.904H604.574V145.016H601.406V131H604.574V135.96H608.414ZM589.278 139.864C587.39 142.648 584.222 144.536 580.222 144.92V142.104C584.702 141.496 587.486 138.488 587.902 134.392H580.574V131.704H598.014V134.392H591.102C591.038 135.448 590.814 136.472 590.494 137.432L598.91 142.296L597.406 144.664L589.278 139.864ZM601.47 149.432V146.52H604.574V157.976H581.726V146.52H584.83V149.432H601.47ZM584.83 155.384H601.47V151.992H584.83V155.384ZM638.695 142.072V145.112H634.855V158.328H631.687V131H634.855V142.072H638.695ZM619.143 131.64C623.911 131.64 627.271 135.672 627.271 144.344C627.271 153.016 623.911 157.048 619.143 157.048C614.343 157.048 610.983 153.016 610.983 144.344C610.983 135.672 614.343 131.64 619.143 131.64ZM619.143 154.136C621.959 154.136 624.103 151.288 624.103 144.344C624.103 137.432 621.959 134.552 619.143 134.552C616.295 134.552 614.151 137.432 614.151 144.344C614.151 151.288 616.295 154.136 619.143 154.136ZM671.621 131H674.757V158.328H671.621V144.088H667.589V141.112H671.621V131ZM665.285 131.8C665.253 136.632 665.029 140.792 664.581 144.28L669.765 155.224L667.269 156.504L663.749 148.664C662.565 153.336 660.549 156.056 657.445 156.696L654.789 149.176C653.573 153.528 651.621 156.088 648.613 156.696V153.528C652.229 152.312 653.349 143.128 653.349 131.672L656.453 131.8C656.421 136.664 656.197 140.856 655.749 144.344L658.789 152.6C661.349 149.752 662.181 141.56 662.181 131.672L665.285 131.8ZM707.727 141.816V144.856H703.951V158.328H700.783V131H703.951V141.816H707.727ZM689.775 147.704V153.72C693.359 153.72 696.591 153.368 698.511 152.568V155.544C696.559 156.344 693.327 156.696 689.583 156.696H679.151V153.72H686.607V147.704H680.495V131.896H683.567V136.76H692.847V131.896H695.951V147.704H689.775ZM683.567 139.576V144.856H692.847V139.576H683.567ZM730.456 154.104H736.728V157.016H709.432V154.104H715.704V146.712C712.568 145.272 710.744 142.872 710.744 139.8C710.744 134.744 715.608 131.48 723.064 131.48C730.52 131.48 735.384 134.744 735.384 139.8C735.384 142.84 733.56 145.272 730.456 146.68V154.104ZM714.104 139.8C714.104 143.064 717.688 145.208 723.064 145.208C728.44 145.208 732.056 143.064 732.056 139.8C732.056 136.472 728.44 134.36 723.064 134.36C717.688 134.36 714.104 136.472 714.104 139.8ZM718.872 147.704V154.104H727.288V147.704C726.008 147.96 724.6 148.088 723.064 148.088C721.56 148.088 720.152 147.96 718.872 147.704ZM740.897 150.552L740.097 132.024H744.161L743.329 150.552H740.897ZM742.113 158.168C740.769 158.168 739.745 157.144 739.745 155.8C739.745 154.488 740.769 153.464 742.113 153.464C743.457 153.464 744.481 154.488 744.481 155.8C744.481 157.144 743.457 158.168 742.113 158.168Z" fill="white"/>
<path d="M387.83 131V130.5H387.33V131H387.83ZM390.998 131H391.498V130.5H390.998V131ZM390.998 158.328V158.828H391.498V158.328H390.998ZM387.83 158.328H387.33V158.828H387.83V158.328ZM377.174 134.904V134.404H376.679L376.674 134.899L377.174 134.904ZM376.31 143.544L375.82 143.446L375.774 143.676L375.922 143.858L376.31 143.544ZM385.238 154.584L385.54 154.983L385.952 154.671L385.627 154.27L385.238 154.584ZM382.742 156.472L382.349 156.781L382.652 157.167L383.044 156.871L382.742 156.472ZM375.382 147.096L375.776 146.787L375.2 146.053L374.908 146.939L375.382 147.096ZM366.102 156.696H365.602V157.258L366.16 157.193L366.102 156.696ZM366.102 153.56L366.012 153.068L365.602 153.144V153.56H366.102ZM373.974 134.904L374.474 134.91L374.481 134.404H373.974V134.904ZM366.742 134.904H366.242V135.404H366.742V134.904ZM366.742 131.992V131.492H366.242V131.992H366.742ZM384.182 131.992H384.682V131.492H384.182V131.992ZM384.182 134.904V135.404H384.682V134.904H384.182ZM387.83 131.5H390.998V130.5H387.83V131.5ZM390.498 131V158.328H391.498V131H390.498ZM390.998 157.828H387.83V158.828H390.998V157.828ZM388.33 158.328V131H387.33V158.328H388.33ZM376.674 134.899C376.643 138.037 376.326 140.918 375.82 143.446L376.801 143.642C377.319 141.05 377.642 138.107 377.674 134.909L376.674 134.899ZM375.922 143.858L384.85 154.898L385.627 154.27L376.699 143.23L375.922 143.858ZM384.937 154.185L382.441 156.073L383.044 156.871L385.54 154.983L384.937 154.185ZM383.136 156.163L375.776 146.787L374.989 147.405L382.349 156.781L383.136 156.163ZM374.908 146.939C373.048 152.58 369.895 155.752 366.045 156.199L366.16 157.193C370.566 156.68 373.94 153.068 375.857 147.253L374.908 146.939ZM366.602 156.696V153.56H365.602V156.696H366.602ZM366.193 154.052C368.875 153.558 370.909 151.233 372.277 147.889C373.653 144.528 374.41 140.021 374.474 134.91L373.474 134.898C373.411 139.931 372.664 144.304 371.352 147.511C370.032 150.735 368.194 152.666 366.012 153.068L366.193 154.052ZM373.974 134.404H366.742V135.404H373.974V134.404ZM367.242 134.904V131.992H366.242V134.904H367.242ZM366.742 132.492H384.182V131.492H366.742V132.492ZM383.682 131.992V134.904H384.682V131.992H383.682ZM384.182 134.404H377.174V135.404H384.182V134.404ZM417.856 140.504H417.356V141.004H417.856V140.504ZM417.856 134.008H418.356V133.508H417.856V134.008ZM397.6 134.008H397.1V134.508H397.6V134.008ZM397.6 131.32V130.82H397.1V131.32H397.6ZM421.056 131.32H421.556V130.82H421.056V131.32ZM421.056 140.504V141.004H421.556V140.504H421.056ZM395.776 144.792H395.276V145.292H395.776V144.792ZM395.776 142.136V141.636H395.276V142.136H395.776ZM423.072 142.136H423.572V141.636H423.072V142.136ZM423.072 144.792V145.292H423.572V144.792H423.072ZM397.664 158.008H397.164V158.508H397.664V158.008ZM397.664 147.576V147.076H397.164V147.576H397.664ZM421.152 147.576H421.652V147.076H421.152V147.576ZM421.152 158.008V158.508H421.652V158.008H421.152ZM400.832 155.416H400.332V155.916H400.832V155.416ZM418.016 155.416V155.916H418.516V155.416H418.016ZM418.016 150.168H418.516V149.668H418.016V150.168ZM400.832 150.168V149.668H400.332V150.168H400.832ZM418.356 140.504V134.008H417.356V140.504H418.356ZM417.856 133.508H397.6V134.508H417.856V133.508ZM398.1 134.008V131.32H397.1V134.008H398.1ZM397.6 131.82H421.056V130.82H397.6V131.82ZM420.556 131.32V140.504H421.556V131.32H420.556ZM421.056 140.004H417.856V141.004H421.056V140.004ZM396.276 144.792V142.136H395.276V144.792H396.276ZM395.776 142.636H423.072V141.636H395.776V142.636ZM422.572 142.136V144.792H423.572V142.136H422.572ZM423.072 144.292H395.776V145.292H423.072V144.292ZM398.164 158.008V147.576H397.164V158.008H398.164ZM397.664 148.076H421.152V147.076H397.664V148.076ZM420.652 147.576V158.008H421.652V147.576H420.652ZM421.152 157.508H397.664V158.508H421.152V157.508ZM400.832 155.916H418.016V154.916H400.832V155.916ZM418.516 155.416V150.168H417.516V155.416H418.516ZM418.016 149.668H400.832V150.668H418.016V149.668ZM400.332 150.168V155.416H401.332V150.168H400.332ZM463.102 142.072H463.602V141.572H463.102V142.072ZM463.102 145.112V145.612H463.602V145.112H463.102ZM459.262 145.112V144.612H458.762V145.112H459.262ZM459.262 158.328V158.828H459.762V158.328H459.262ZM456.094 158.328H455.594V158.828H456.094V158.328ZM456.094 131V130.5H455.594V131H456.094ZM459.262 131H459.762V130.5H459.262V131ZM459.262 142.072H458.762V142.572H459.262V142.072ZM447.87 141.208V141.708H448.37V141.208H447.87ZM447.87 131.8V131.3H447.37V131.8H447.87ZM451.006 131.8H451.506V131.3H451.006V131.8ZM451.006 156.696V157.196H451.506V156.696H451.006ZM435.806 156.696H435.306V157.196H435.806V156.696ZM435.806 131.8V131.3H435.306V131.8H435.806ZM438.942 131.8H439.442V131.3H438.942V131.8ZM438.942 141.208H438.442V141.708H438.942V141.208ZM438.942 153.784H438.442V154.284H438.942V153.784ZM447.87 153.784V154.284H448.37V153.784H447.87ZM447.87 144.12H448.37V143.62H447.87V144.12ZM438.942 144.12V143.62H438.442V144.12H438.942ZM462.602 142.072V145.112H463.602V142.072H462.602ZM463.102 144.612H459.262V145.612H463.102V144.612ZM458.762 145.112V158.328H459.762V145.112H458.762ZM459.262 157.828H456.094V158.828H459.262V157.828ZM456.594 158.328V131H455.594V158.328H456.594ZM456.094 131.5H459.262V130.5H456.094V131.5ZM458.762 131V142.072H459.762V131H458.762ZM459.262 142.572H463.102V141.572H459.262V142.572ZM448.37 141.208V131.8H447.37V141.208H448.37ZM447.87 132.3H451.006V131.3H447.87V132.3ZM450.506 131.8V156.696H451.506V131.8H450.506ZM451.006 156.196H435.806V157.196H451.006V156.196ZM436.306 156.696V131.8H435.306V156.696H436.306ZM435.806 132.3H438.942V131.3H435.806V132.3ZM438.442 131.8V141.208H439.442V131.8H438.442ZM438.942 141.708H447.87V140.708H438.942V141.708ZM438.942 154.284H447.87V153.284H438.942V154.284ZM448.37 153.784V144.12H447.37V153.784H448.37ZM447.87 143.62H438.942V144.62H447.87V143.62ZM438.442 144.12V153.784H439.442V144.12H438.442ZM480.007 154.104H479.507V154.604H480.007V154.104ZM492.103 154.104H492.603V153.604H492.103V154.104ZM492.103 157.016V157.516H492.603V157.016H492.103ZM464.807 157.016H464.307V157.516H464.807V157.016ZM464.807 154.104V153.604H464.307V154.104H464.807ZM476.775 154.104V154.604H477.275V154.104H476.775ZM476.775 148.952H477.275V148.452H476.775V148.952ZM466.631 148.952H466.131V149.452H466.631V148.952ZM466.631 139.096V138.596H466.131V139.096H466.631ZM487.175 139.096V139.596H487.675V139.096H487.175ZM487.175 134.808H487.675V134.308H487.175V134.808ZM466.631 134.808H466.131V135.308H466.631V134.808ZM466.631 131.992V131.492H466.131V131.992H466.631ZM490.311 131.992H490.811V131.492H490.311V131.992ZM490.311 141.816V142.316H490.811V141.816H490.311ZM469.799 141.816V141.316H469.299V141.816H469.799ZM469.799 146.136H469.299V146.636H469.799V146.136ZM490.727 146.136H491.227V145.636H490.727V146.136ZM490.727 148.952V149.452H491.227V148.952H490.727ZM480.007 148.952V148.452H479.507V148.952H480.007ZM480.007 154.604H492.103V153.604H480.007V154.604ZM491.603 154.104V157.016H492.603V154.104H491.603ZM492.103 156.516H464.807V157.516H492.103V156.516ZM465.307 157.016V154.104H464.307V157.016H465.307ZM464.807 154.604H476.775V153.604H464.807V154.604ZM477.275 154.104V148.952H476.275V154.104H477.275ZM476.775 148.452H466.631V149.452H476.775V148.452ZM467.131 148.952V139.096H466.131V148.952H467.131ZM466.631 139.596H487.175V138.596H466.631V139.596ZM487.675 139.096V134.808H486.675V139.096H487.675ZM487.175 134.308H466.631V135.308H487.175V134.308ZM467.131 134.808V131.992H466.131V134.808H467.131ZM466.631 132.492H490.311V131.492H466.631V132.492ZM489.811 131.992V141.816H490.811V131.992H489.811ZM490.311 141.316H469.799V142.316H490.311V141.316ZM469.299 141.816V146.136H470.299V141.816H469.299ZM469.799 146.636H490.727V145.636H469.799V146.636ZM490.227 146.136V148.952H491.227V146.136H490.227ZM490.727 148.452H480.007V149.452H490.727V148.452ZM479.507 148.952V154.104H480.507V148.952H479.507ZM499.312 153.656L499.8 153.764L499.935 153.156H499.312V153.656ZM497.712 160.888V161.388H498.114L498.2 160.996L497.712 160.888ZM495.088 160.888L494.593 160.818L494.512 161.388H495.088V160.888ZM496.112 153.656V153.156H495.678L495.617 153.586L496.112 153.656ZM498.824 153.548L497.224 160.78L498.2 160.996L499.8 153.764L498.824 153.548ZM497.712 160.388H495.088V161.388H497.712V160.388ZM495.583 160.958L496.607 153.726L495.617 153.586L494.593 160.818L495.583 160.958ZM496.112 154.156H499.312V153.156H496.112V154.156ZM539.383 142.072H539.883V141.572H539.383V142.072ZM539.383 145.112V145.612H539.883V145.112H539.383ZM535.543 145.112V144.612H535.043V145.112H535.543ZM535.543 158.328V158.828H536.043V158.328H535.543ZM532.375 158.328H531.875V158.828H532.375V158.328ZM532.375 131V130.5H531.875V131H532.375ZM535.543 131H536.043V130.5H535.543V131ZM535.543 142.072H535.043V142.572H535.543V142.072ZM524.151 141.208V141.708H524.651V141.208H524.151ZM524.151 131.8V131.3H523.651V131.8H524.151ZM527.287 131.8H527.787V131.3H527.287V131.8ZM527.287 156.696V157.196H527.787V156.696H527.287ZM512.087 156.696H511.587V157.196H512.087V156.696ZM512.087 131.8V131.3H511.587V131.8H512.087ZM515.223 131.8H515.723V131.3H515.223V131.8ZM515.223 141.208H514.723V141.708H515.223V141.208ZM515.223 153.784H514.723V154.284H515.223V153.784ZM524.151 153.784V154.284H524.651V153.784H524.151ZM524.151 144.12H524.651V143.62H524.151V144.12ZM515.223 144.12V143.62H514.723V144.12H515.223ZM538.883 142.072V145.112H539.883V142.072H538.883ZM539.383 144.612H535.543V145.612H539.383V144.612ZM535.043 145.112V158.328H536.043V145.112H535.043ZM535.543 157.828H532.375V158.828H535.543V157.828ZM532.875 158.328V131H531.875V158.328H532.875ZM532.375 131.5H535.543V130.5H532.375V131.5ZM535.043 131V142.072H536.043V131H535.043ZM535.543 142.572H539.383V141.572H535.543V142.572ZM524.651 141.208V131.8H523.651V141.208H524.651ZM524.151 132.3H527.287V131.3H524.151V132.3ZM526.787 131.8V156.696H527.787V131.8H526.787ZM527.287 156.196H512.087V157.196H527.287V156.196ZM512.587 156.696V131.8H511.587V156.696H512.587ZM512.087 132.3H515.223V131.3H512.087V132.3ZM514.723 131.8V141.208H515.723V131.8H514.723ZM515.223 141.708H524.151V140.708H515.223V141.708ZM515.223 154.284H524.151V153.284H515.223V154.284ZM524.651 153.784V144.12H523.651V153.784H524.651ZM524.151 143.62H515.223V144.62H524.151V143.62ZM514.723 144.12V153.784H515.723V144.12H514.723ZM556.288 154.104H555.788V154.604H556.288V154.104ZM568.384 154.104H568.884V153.604H568.384V154.104ZM568.384 157.016V157.516H568.884V157.016H568.384ZM541.088 157.016H540.588V157.516H541.088V157.016ZM541.088 154.104V153.604H540.588V154.104H541.088ZM553.056 154.104V154.604H553.556V154.104H553.056ZM553.056 148.952H553.556V148.452H553.056V148.952ZM542.912 148.952H542.412V149.452H542.912V148.952ZM542.912 139.096V138.596H542.412V139.096H542.912ZM563.456 139.096V139.596H563.956V139.096H563.456ZM563.456 134.808H563.956V134.308H563.456V134.808ZM542.912 134.808H542.412V135.308H542.912V134.808ZM542.912 131.992V131.492H542.412V131.992H542.912ZM566.592 131.992H567.092V131.492H566.592V131.992ZM566.592 141.816V142.316H567.092V141.816H566.592ZM546.08 141.816V141.316H545.58V141.816H546.08ZM546.08 146.136H545.58V146.636H546.08V146.136ZM567.008 146.136H567.508V145.636H567.008V146.136ZM567.008 148.952V149.452H567.508V148.952H567.008ZM556.288 148.952V148.452H555.788V148.952H556.288ZM556.288 154.604H568.384V153.604H556.288V154.604ZM567.884 154.104V157.016H568.884V154.104H567.884ZM568.384 156.516H541.088V157.516H568.384V156.516ZM541.588 157.016V154.104H540.588V157.016H541.588ZM541.088 154.604H553.056V153.604H541.088V154.604ZM553.556 154.104V148.952H552.556V154.104H553.556ZM553.056 148.452H542.912V149.452H553.056V148.452ZM543.412 148.952V139.096H542.412V148.952H543.412ZM542.912 139.596H563.456V138.596H542.912V139.596ZM563.956 139.096V134.808H562.956V139.096H563.956ZM563.456 134.308H542.912V135.308H563.456V134.308ZM543.412 134.808V131.992H542.412V134.808H543.412ZM542.912 132.492H566.592V131.492H542.912V132.492ZM566.092 131.992V141.816H567.092V131.992H566.092ZM566.592 141.316H546.08V142.316H566.592V141.316ZM545.58 141.816V146.136H546.58V141.816H545.58ZM546.08 146.636H567.008V145.636H546.08V146.636ZM566.508 146.136V148.952H567.508V146.136H566.508ZM567.008 148.452H556.288V149.452H567.008V148.452ZM555.788 148.952V154.104H556.788V148.952H555.788ZM608.414 135.96H608.914V135.46H608.414V135.96ZM608.414 138.904V139.404H608.914V138.904H608.414ZM604.574 138.904V138.404H604.074V138.904H604.574ZM604.574 145.016V145.516H605.074V145.016H604.574ZM601.406 145.016H600.906V145.516H601.406V145.016ZM601.406 131V130.5H600.906V131H601.406ZM604.574 131H605.074V130.5H604.574V131ZM604.574 135.96H604.074V136.46H604.574V135.96ZM589.278 139.864L589.532 139.433L589.128 139.195L588.864 139.583L589.278 139.864ZM580.222 144.92H579.722V145.47L580.27 145.418L580.222 144.92ZM580.222 142.104L580.155 141.609L579.722 141.667V142.104H580.222ZM587.902 134.392L588.4 134.443L588.455 133.892H587.902V134.392ZM580.574 134.392H580.074V134.892H580.574V134.392ZM580.574 131.704V131.204H580.074V131.704H580.574ZM598.014 131.704H598.514V131.204H598.014V131.704ZM598.014 134.392V134.892H598.514V134.392H598.014ZM591.102 134.392V133.892H590.632L590.603 134.362L591.102 134.392ZM590.494 137.432L590.02 137.274L589.891 137.661L590.244 137.865L590.494 137.432ZM598.91 142.296L599.332 142.564L599.612 142.124L599.16 141.863L598.91 142.296ZM597.406 144.664L597.152 145.095L597.569 145.341L597.828 144.932L597.406 144.664ZM601.47 149.432V149.932H601.97V149.432H601.47ZM601.47 146.52V146.02H600.97V146.52H601.47ZM604.574 146.52H605.074V146.02H604.574V146.52ZM604.574 157.976V158.476H605.074V157.976H604.574ZM581.726 157.976H581.226V158.476H581.726V157.976ZM581.726 146.52V146.02H581.226V146.52H581.726ZM584.83 146.52H585.33V146.02H584.83V146.52ZM584.83 149.432H584.33V149.932H584.83V149.432ZM584.83 155.384H584.33V155.884H584.83V155.384ZM601.47 155.384V155.884H601.97V155.384H601.47ZM601.47 151.992H601.97V151.492H601.47V151.992ZM584.83 151.992V151.492H584.33V151.992H584.83ZM607.914 135.96V138.904H608.914V135.96H607.914ZM608.414 138.404H604.574V139.404H608.414V138.404ZM604.074 138.904V145.016H605.074V138.904H604.074ZM604.574 144.516H601.406V145.516H604.574V144.516ZM601.906 145.016V131H600.906V145.016H601.906ZM601.406 131.5H604.574V130.5H601.406V131.5ZM604.074 131V135.96H605.074V131H604.074ZM604.574 136.46H608.414V135.46H604.574V136.46ZM588.864 139.583C587.067 142.233 584.04 144.051 580.174 144.422L580.27 145.418C584.404 145.021 587.713 143.063 589.692 140.145L588.864 139.583ZM580.722 144.92V142.104H579.722V144.92H580.722ZM580.289 142.599C584.994 141.961 587.96 138.772 588.4 134.443L587.405 134.341C587.012 138.204 584.41 141.031 580.155 141.609L580.289 142.599ZM587.902 133.892H580.574V134.892H587.902V133.892ZM581.074 134.392V131.704H580.074V134.392H581.074ZM580.574 132.204H598.014V131.204H580.574V132.204ZM597.514 131.704V134.392H598.514V131.704H597.514ZM598.014 133.892H591.102V134.892H598.014V133.892ZM590.603 134.362C590.542 135.367 590.328 136.348 590.02 137.274L590.968 137.59C591.3 136.596 591.534 135.529 591.601 134.422L590.603 134.362ZM590.244 137.865L598.66 142.729L599.16 141.863L590.744 136.999L590.244 137.865ZM598.488 142.028L596.984 144.396L597.828 144.932L599.332 142.564L598.488 142.028ZM597.66 144.233L589.532 139.433L589.024 140.295L597.152 145.095L597.66 144.233ZM601.97 149.432V146.52H600.97V149.432H601.97ZM601.47 147.02H604.574V146.02H601.47V147.02ZM604.074 146.52V157.976H605.074V146.52H604.074ZM604.574 157.476H581.726V158.476H604.574V157.476ZM582.226 157.976V146.52H581.226V157.976H582.226ZM581.726 147.02H584.83V146.02H581.726V147.02ZM584.33 146.52V149.432H585.33V146.52H584.33ZM584.83 149.932H601.47V148.932H584.83V149.932ZM584.83 155.884H601.47V154.884H584.83V155.884ZM601.97 155.384V151.992H600.97V155.384H601.97ZM601.47 151.492H584.83V152.492H601.47V151.492ZM584.33 151.992V155.384H585.33V151.992H584.33ZM638.695 142.072H639.195V141.572H638.695V142.072ZM638.695 145.112V145.612H639.195V145.112H638.695ZM634.855 145.112V144.612H634.355V145.112H634.855ZM634.855 158.328V158.828H635.355V158.328H634.855ZM631.687 158.328H631.187V158.828H631.687V158.328ZM631.687 131V130.5H631.187V131H631.687ZM634.855 131H635.355V130.5H634.855V131ZM634.855 142.072H634.355V142.572H634.855V142.072ZM638.195 142.072V145.112H639.195V142.072H638.195ZM638.695 144.612H634.855V145.612H638.695V144.612ZM634.355 145.112V158.328H635.355V145.112H634.355ZM634.855 157.828H631.687V158.828H634.855V157.828ZM632.187 158.328V131H631.187V158.328H632.187ZM631.687 131.5H634.855V130.5H631.687V131.5ZM634.355 131V142.072H635.355V131H634.355ZM634.855 142.572H638.695V141.572H634.855V142.572ZM619.143 132.14C621.366 132.14 623.242 133.069 624.583 135.023C625.94 137 626.771 140.062 626.771 144.344H627.771C627.771 139.954 626.923 136.664 625.408 134.457C623.877 132.227 621.689 131.14 619.143 131.14V132.14ZM626.771 144.344C626.771 148.626 625.94 151.688 624.583 153.665C623.242 155.619 621.366 156.548 619.143 156.548V157.548C621.689 157.548 623.877 156.461 625.408 154.231C626.923 152.024 627.771 148.734 627.771 144.344H626.771ZM619.143 156.548C616.904 156.548 615.02 155.618 613.675 153.665C612.315 151.688 611.483 148.626 611.483 144.344H610.483C610.483 148.734 611.332 152.024 612.852 154.231C614.387 156.462 616.583 157.548 619.143 157.548V156.548ZM611.483 144.344C611.483 140.062 612.315 137 613.675 135.023C615.02 133.07 616.904 132.14 619.143 132.14V131.14C616.583 131.14 614.387 132.226 612.852 134.457C611.332 136.664 610.483 139.954 610.483 144.344H611.483ZM619.143 154.636C620.756 154.636 622.151 153.804 623.115 152.089C624.064 150.402 624.603 147.854 624.603 144.344H623.603C623.603 147.778 623.071 150.126 622.243 151.599C621.432 153.044 620.347 153.636 619.143 153.636V154.636ZM624.603 144.344C624.603 140.849 624.063 138.302 623.116 136.611C622.152 134.894 620.758 134.052 619.143 134.052V135.052C620.345 135.052 621.43 135.65 622.243 137.101C623.071 138.578 623.603 140.927 623.603 144.344H624.603ZM619.143 134.052C617.515 134.052 616.112 134.892 615.144 136.611C614.191 138.302 613.651 140.849 613.651 144.344H614.651C614.651 140.927 615.184 138.578 616.015 137.101C616.831 135.652 617.924 135.052 619.143 135.052V134.052ZM613.651 144.344C613.651 147.854 614.191 150.402 615.144 152.09C616.113 153.806 617.517 154.636 619.143 154.636V153.636C617.922 153.636 616.83 153.042 616.015 151.598C615.184 150.126 614.651 147.778 614.651 144.344H613.651ZM671.621 131V130.5H671.121V131H671.621ZM674.757 131H675.257V130.5H674.757V131ZM674.757 158.328V158.828H675.257V158.328H674.757ZM671.621 158.328H671.121V158.828H671.621V158.328ZM671.621 144.088H672.121V143.588H671.621V144.088ZM667.589 144.088H667.089V144.588H667.589V144.088ZM667.589 141.112V140.612H667.089V141.112H667.589ZM671.621 141.112V141.612H672.121V141.112H671.621ZM665.285 131.8L665.785 131.803L665.789 131.32L665.306 131.3L665.285 131.8ZM664.581 144.28L664.085 144.216L664.067 144.362L664.13 144.494L664.581 144.28ZM669.765 155.224L669.994 155.669L670.425 155.448L670.217 155.01L669.765 155.224ZM667.269 156.504L666.813 156.709L667.029 157.189L667.498 156.949L667.269 156.504ZM663.749 148.664L664.206 148.459L663.617 147.149L663.265 148.541L663.749 148.664ZM657.445 156.696L656.974 156.863L657.119 157.274L657.546 157.186L657.445 156.696ZM654.789 149.176L655.261 149.009L654.734 147.517L654.308 149.041L654.789 149.176ZM648.613 156.696H648.113V157.307L648.712 157.186L648.613 156.696ZM648.613 153.528L648.454 153.054L648.113 153.169V153.528H648.613ZM653.349 131.672L653.37 131.172L652.849 131.151V131.672H653.349ZM656.453 131.8L656.953 131.803L656.957 131.32L656.474 131.3L656.453 131.8ZM655.749 144.344L655.253 144.28L655.238 144.402L655.28 144.517L655.749 144.344ZM658.789 152.6L658.32 152.773L658.607 153.551L659.161 152.934L658.789 152.6ZM662.181 131.672L662.202 131.172L661.681 131.151V131.672H662.181ZM671.621 131.5H674.757V130.5H671.621V131.5ZM674.257 131V158.328H675.257V131H674.257ZM674.757 157.828H671.621V158.828H674.757V157.828ZM672.121 158.328V144.088H671.121V158.328H672.121ZM671.621 143.588H667.589V144.588H671.621V143.588ZM668.089 144.088V141.112H667.089V144.088H668.089ZM667.589 141.612H671.621V140.612H667.589V141.612ZM672.121 141.112V131H671.121V141.112H672.121ZM664.785 131.797C664.753 136.617 664.53 140.755 664.085 144.216L665.077 144.344C665.529 140.829 665.753 136.647 665.785 131.803L664.785 131.797ZM664.13 144.494L669.314 155.438L670.217 155.01L665.033 144.066L664.13 144.494ZM669.537 154.779L667.041 156.059L667.498 156.949L669.994 155.669L669.537 154.779ZM667.726 156.299L664.206 148.459L663.293 148.869L666.813 156.709L667.726 156.299ZM663.265 148.541C662.096 153.154 660.16 155.626 657.344 156.206L657.546 157.186C660.939 156.486 663.035 153.518 664.234 148.787L663.265 148.541ZM657.917 156.529L655.261 149.009L654.318 149.343L656.974 156.863L657.917 156.529ZM654.308 149.041C653.109 153.333 651.242 155.655 648.514 156.206L648.712 157.186C652.001 156.521 654.038 153.723 655.271 149.311L654.308 149.041ZM649.113 156.696V153.528H648.113V156.696H649.113ZM648.773 154.002C649.855 153.638 650.684 152.701 651.325 151.437C651.969 150.166 652.459 148.494 652.829 146.533C653.569 142.606 653.849 137.409 653.849 131.672H652.849C652.849 137.391 652.569 142.514 651.846 146.347C651.484 148.266 651.016 149.834 650.433 150.985C649.846 152.143 649.179 152.81 648.454 153.054L648.773 154.002ZM653.329 132.172L656.433 132.3L656.474 131.3L653.37 131.172L653.329 132.172ZM655.953 131.797C655.921 136.649 655.698 140.819 655.253 144.28L656.245 144.408C656.697 140.893 656.921 136.679 656.953 131.803L655.953 131.797ZM655.28 144.517L658.32 152.773L659.259 152.427L656.219 144.171L655.28 144.517ZM659.161 152.934C659.866 152.15 660.426 151.031 660.874 149.676C661.324 148.316 661.674 146.685 661.94 144.848C662.473 141.173 662.681 136.626 662.681 131.672H661.681C661.681 136.606 661.474 141.099 660.951 144.704C660.689 146.507 660.35 148.076 659.925 149.362C659.497 150.653 658.992 151.626 658.418 152.266L659.161 152.934ZM662.161 132.172L665.265 132.3L665.306 131.3L662.202 131.172L662.161 132.172ZM707.727 141.816H708.227V141.316H707.727V141.816ZM707.727 144.856V145.356H708.227V144.856H707.727ZM703.951 144.856V144.356H703.451V144.856H703.951ZM703.951 158.328V158.828H704.451V158.328H703.951ZM700.783 158.328H700.283V158.828H700.783V158.328ZM700.783 131V130.5H700.283V131H700.783ZM703.951 131H704.451V130.5H703.951V131ZM703.951 141.816H703.451V142.316H703.951V141.816ZM689.775 147.704V147.204H689.275V147.704H689.775ZM689.775 153.72H689.275V154.22H689.775V153.72ZM698.511 152.568H699.011V151.818L698.318 152.106L698.511 152.568ZM698.511 155.544L698.7 156.007L699.011 155.879V155.544H698.511ZM679.151 156.696H678.651V157.196H679.151V156.696ZM679.151 153.72V153.22H678.651V153.72H679.151ZM686.607 153.72V154.22H687.107V153.72H686.607ZM686.607 147.704H687.107V147.204H686.607V147.704ZM680.495 147.704H679.995V148.204H680.495V147.704ZM680.495 131.896V131.396H679.995V131.896H680.495ZM683.567 131.896H684.067V131.396H683.567V131.896ZM683.567 136.76H683.067V137.26H683.567V136.76ZM692.847 136.76V137.26H693.347V136.76H692.847ZM692.847 131.896V131.396H692.347V131.896H692.847ZM695.951 131.896H696.451V131.396H695.951V131.896ZM695.951 147.704V148.204H696.451V147.704H695.951ZM683.567 139.576V139.076H683.067V139.576H683.567ZM683.567 144.856H683.067V145.356H683.567V144.856ZM692.847 144.856V145.356H693.347V144.856H692.847ZM692.847 139.576H693.347V139.076H692.847V139.576ZM707.227 141.816V144.856H708.227V141.816H707.227ZM707.727 144.356H703.951V145.356H707.727V144.356ZM703.451 144.856V158.328H704.451V144.856H703.451ZM703.951 157.828H700.783V158.828H703.951V157.828ZM701.283 158.328V131H700.283V158.328H701.283ZM700.783 131.5H703.951V130.5H700.783V131.5ZM703.451 131V141.816H704.451V131H703.451ZM703.951 142.316H707.727V141.316H703.951V142.316ZM689.275 147.704V153.72H690.275V147.704H689.275ZM689.775 154.22C693.367 154.22 696.685 153.87 698.703 153.03L698.318 152.106C696.496 152.866 693.351 153.22 689.775 153.22V154.22ZM698.011 152.568V155.544H699.011V152.568H698.011ZM698.321 155.081C696.466 155.842 693.319 156.196 689.583 156.196V157.196C693.334 157.196 696.651 156.846 698.7 156.007L698.321 155.081ZM689.583 156.196H679.151V157.196H689.583V156.196ZM679.651 156.696V153.72H678.651V156.696H679.651ZM679.151 154.22H686.607V153.22H679.151V154.22ZM687.107 153.72V147.704H686.107V153.72H687.107ZM686.607 147.204H680.495V148.204H686.607V147.204ZM680.995 147.704V131.896H679.995V147.704H680.995ZM680.495 132.396H683.567V131.396H680.495V132.396ZM683.067 131.896V136.76H684.067V131.896H683.067ZM683.567 137.26H692.847V136.26H683.567V137.26ZM693.347 136.76V131.896H692.347V136.76H693.347ZM692.847 132.396H695.951V131.396H692.847V132.396ZM695.451 131.896V147.704H696.451V131.896H695.451ZM695.951 147.204H689.775V148.204H695.951V147.204ZM683.067 139.576V144.856H684.067V139.576H683.067ZM683.567 145.356H692.847V144.356H683.567V145.356ZM693.347 144.856V139.576H692.347V144.856H693.347ZM692.847 139.076H683.567V140.076H692.847V139.076ZM730.456 154.104H729.956V154.604H730.456V154.104ZM736.728 154.104H737.228V153.604H736.728V154.104ZM736.728 157.016V157.516H737.228V157.016H736.728ZM709.432 157.016H708.932V157.516H709.432V157.016ZM709.432 154.104V153.604H708.932V154.104H709.432ZM715.704 154.104V154.604H716.204V154.104H715.704ZM715.704 146.712H716.204V146.391L715.913 146.258L715.704 146.712ZM730.456 146.68L730.249 146.225L729.956 146.358V146.68H730.456ZM718.872 147.704L718.97 147.214L718.372 147.094V147.704H718.872ZM718.872 154.104H718.372V154.604H718.872V154.104ZM727.288 154.104V154.604H727.788V154.104H727.288ZM727.288 147.704H727.788V147.094L727.19 147.214L727.288 147.704ZM730.456 154.604H736.728V153.604H730.456V154.604ZM736.228 154.104V157.016H737.228V154.104H736.228ZM736.728 156.516H709.432V157.516H736.728V156.516ZM709.932 157.016V154.104H708.932V157.016H709.932ZM709.432 154.604H715.704V153.604H709.432V154.604ZM716.204 154.104V146.712H715.204V154.104H716.204ZM715.913 146.258C712.909 144.879 711.244 142.632 711.244 139.8H710.244C710.244 143.112 712.226 145.665 715.495 147.166L715.913 146.258ZM711.244 139.8C711.244 137.456 712.362 135.524 714.387 134.159C716.428 132.783 719.401 131.98 723.064 131.98V130.98C719.271 130.98 716.084 131.809 713.828 133.329C711.558 134.86 710.244 137.088 710.244 139.8H711.244ZM723.064 131.98C726.727 131.98 729.7 132.783 731.74 134.159C733.766 135.524 734.884 137.456 734.884 139.8H735.884C735.884 137.088 734.57 134.86 732.299 133.329C730.044 131.809 726.857 130.98 723.064 130.98V131.98ZM734.884 139.8C734.884 142.602 733.216 144.879 730.249 146.225L730.662 147.135C733.904 145.665 735.884 143.078 735.884 139.8H734.884ZM729.956 146.68V154.104H730.956V146.68H729.956ZM713.604 139.8C713.604 141.646 714.628 143.144 716.31 144.156C717.98 145.162 720.318 145.708 723.064 145.708V144.708C720.434 144.708 718.292 144.182 716.826 143.3C715.372 142.424 714.604 141.218 714.604 139.8H713.604ZM723.064 145.708C725.81 145.708 728.155 145.162 729.833 144.157C731.522 143.145 732.556 141.647 732.556 139.8H731.556C731.556 141.217 730.782 142.423 729.319 143.299C727.844 144.182 725.694 144.708 723.064 144.708V145.708ZM732.556 139.8C732.556 137.923 731.525 136.417 729.833 135.403C728.154 134.398 725.808 133.86 723.064 133.86V134.86C725.695 134.86 727.845 135.378 729.319 136.261C730.779 137.135 731.556 138.349 731.556 139.8H732.556ZM723.064 133.86C720.319 133.86 717.981 134.398 716.31 135.404C714.625 136.418 713.604 137.925 713.604 139.8H714.604C714.604 138.347 715.375 137.134 716.826 136.26C718.291 135.378 720.432 134.86 723.064 134.86V133.86ZM718.372 147.704V154.104H719.372V147.704H718.372ZM718.872 154.604H727.288V153.604H718.872V154.604ZM727.788 154.104V147.704H726.788V154.104H727.788ZM727.19 147.214C725.947 147.462 724.573 147.588 723.064 147.588V148.588C724.627 148.588 726.069 148.458 727.386 148.194L727.19 147.214ZM723.064 147.588C721.588 147.588 720.213 147.462 718.97 147.214L718.774 148.194C720.091 148.458 721.532 148.588 723.064 148.588V147.588ZM740.897 150.552L740.398 150.574L740.418 151.052H740.897V150.552ZM740.097 132.024V131.524H739.575L739.598 132.046L740.097 132.024ZM744.161 132.024L744.661 132.046L744.684 131.524H744.161V132.024ZM743.329 150.552V151.052H743.807L743.829 150.574L743.329 150.552ZM741.397 150.53L740.597 132.002L739.598 132.046L740.398 150.574L741.397 150.53ZM740.097 132.524H744.161V131.524H740.097V132.524ZM743.662 132.002L742.83 150.53L743.829 150.574L744.661 132.046L743.662 132.002ZM743.329 150.052H740.897V151.052H743.329V150.052ZM742.113 157.668C741.045 157.668 740.245 156.868 740.245 155.8H739.245C739.245 157.42 740.493 158.668 742.113 158.668V157.668ZM740.245 155.8C740.245 154.769 741.041 153.964 742.113 153.964V152.964C740.497 152.964 739.245 154.207 739.245 155.8H740.245ZM742.113 153.964C743.185 153.964 743.981 154.769 743.981 155.8H744.981C744.981 154.207 743.729 152.964 742.113 152.964V153.964ZM743.981 155.8C743.981 156.868 743.181 157.668 742.113 157.668V158.668C743.733 158.668 744.981 157.42 744.981 155.8H743.981Z" fill="white" mask="url(#path-1-outside-1_2604_20336)"/>
<g opacity="0.85" clip-path="url(#clip0_2604_20336)">
<path d="M965.964 84.3464H997.122V95.8551L964.149 93.4306C961.216 93.215 958.946 90.7726 958.946 87.8317V70.3113C958.946 69.6912 959.449 69.1885 960.069 69.1885H960.35C963.45 69.1885 965.964 71.702 965.964 74.8025V84.3464Z" fill="#BCD0EE"/>
<path d="M1071.38 99.2687L1062.24 93.0481L1056.63 105.96L1060 107.083L1048.21 140.487H1069.62C1070.82 140.487 1071.79 139.517 1071.79 138.321C1071.79 135.331 1069.36 132.908 1066.37 132.908H1060L1073.24 106.42C1074.5 103.906 1073.7 100.85 1071.38 99.2687Z" fill="#BCD0EE"/>
<path fill-rule="evenodd" clip-rule="evenodd" d="M1057.74 142.171L1017.33 144.978L1011.16 100.627L969.893 95.2937V83.2235H1041.75C1051.94 83.2235 1067.92 90.6232 1075.19 98.9162C1076.5 100.41 1076.57 102.556 1075.67 104.326L1061.96 131.224H1057.13C1057.74 135.153 1058.02 137.68 1057.74 142.171ZM1058.87 107.644L1052.98 106.521C1053.54 109.1 1054.3 113.05 1055.04 117.608L1058.87 107.644Z" fill="#E1EDFF"/>
<path d="M1027.71 79.8552H1038.37V82.3815C1038.37 85.3271 1035.99 87.7149 1033.04 87.7149C1030.09 87.7149 1027.71 85.3271 1027.71 82.3815V79.8552Z" fill="#BCD0EE"/>
<path d="M1031.86 87.3336L1028.03 83.0273C1027.85 82.818 1027.53 82.7778 1027.3 82.9332L1026.38 83.5498C1026.17 83.689 1026.08 83.9498 1026.15 84.1887L1028.26 90.7318C1028.39 91.1404 1028.91 91.2565 1029.2 90.942L1031.85 88.0886C1032.05 87.8766 1032.05 87.5498 1031.86 87.3336Z" fill="white"/>
<path d="M1032.61 87.3797L1038.04 82.9342C1038.24 82.7736 1038.52 82.7645 1038.72 82.9118L1039.92 83.7644C1040.16 83.9345 1040.22 84.2592 1040.07 84.5102L1035.89 91.4774C1035.68 91.8226 1035.19 91.8438 1034.95 91.5177L1032.51 88.1435C1032.33 87.9028 1032.38 87.5679 1032.61 87.3797Z" fill="white"/>
<path d="M1018.79 66.5615C1018.13 74.1289 1022.51 81.0961 1030.23 81.7716C1038.95 82.5339 1046.09 76.5754 1046.75 69.008C1047.41 61.4405 1041.69 54.7582 1033.97 54.0827C1026.25 53.4071 1019.45 58.994 1018.79 66.5615Z" fill="#E1EDFF"/>
<path d="M1033.97 54.0826C1041.69 54.7582 1047.41 61.4405 1046.75 69.0079C1046.61 70.6069 1046.2 72.1174 1045.56 73.4992C1046.14 72.0184 1046.64 68.9981 1043.96 68.7632C1043.08 68.6866 1042.53 69.4452 1042.27 70.0873C1042.15 70.3553 1041.89 70.5456 1041.61 70.4802C1037.93 69.6289 1032.01 64.8792 1029.1 58.1653L1029.09 58.1772C1027.36 60.4457 1022.69 66.5277 1018.79 66.5614C1019.52 58.1724 1026.79 53.4549 1033.97 54.0826Z" fill="#2E2E2E"/>
<path d="M1001.62 217.49L1017.61 143.574L1057.74 139.925C1057.96 161.001 1055.4 199.019 1053.96 217.057C1053.88 218.084 1054.51 219.021 1055.47 219.414C1059.78 221.195 1060.9 223.3 1060.87 227.274C1060.87 227.874 1060.37 228.346 1059.77 228.346H1032.62C1031.64 228.346 1030.87 227.511 1030.94 226.533L1034.74 176.978L1022.42 227.064C1022.23 227.817 1021.56 228.346 1020.78 228.346H994.181C993.506 228.346 992.98 227.753 993.103 227.09C994.04 222.006 996.501 220.358 1000.05 219.194C1000.83 218.936 1001.44 218.298 1001.62 217.49Z" fill="#2E2E2E"/>
<ellipse cx="1032.49" cy="101.141" rx="1.68421" ry="1.68421" fill="white"/>
<ellipse cx="1033.05" cy="110.685" rx="1.68421" ry="1.68421" fill="white"/>
<ellipse cx="1034.17" cy="120.228" rx="1.68421" ry="1.68421" fill="white"/>
<path d="M832.067 59.5966C832.067 57.1161 834.078 55.1053 836.559 55.1053H954.453C956.934 55.1053 958.945 57.1161 958.945 59.5966V224.088C958.945 226.568 956.934 228.579 954.453 228.579H836.559C834.078 228.579 832.067 226.568 832.067 224.088V59.5966Z" fill="#E1EDFF"/>
<path d="M832.067 59.5966C832.067 57.1161 834.078 55.1053 836.559 55.1053H954.453C956.934 55.1053 958.945 57.1161 958.945 59.5966V87.6668H832.067V59.5966Z" fill="#2E2E2E"/>
<rect x="832.067" y="87.6669" width="126.877" height="8.42105" fill="#BCD0EE"/>
<path d="M832.067 121.796V119.222C832.239 119.147 832.429 119.105 832.629 119.105H834.032C834.807 119.105 835.436 119.734 835.436 120.509C835.436 121.284 834.807 121.912 834.032 121.912H832.629C832.429 121.912 832.239 121.871 832.067 121.796Z" fill="white"/>
<path d="M832.067 148.743V146.17C832.239 146.094 832.429 146.053 832.629 146.053H834.032C834.807 146.053 835.436 146.681 835.436 147.456C835.436 148.231 834.807 148.86 834.032 148.86H832.629C832.429 148.86 832.239 148.818 832.067 148.743Z" fill="white"/>
<path d="M832.067 175.69V173.117C832.239 173.042 832.429 173 832.629 173H834.032C834.807 173 835.436 173.628 835.436 174.404C835.436 175.179 834.807 175.807 834.032 175.807H832.629C832.429 175.807 832.239 175.765 832.067 175.69Z" fill="white"/>
<path d="M832.067 202.638V200.064C832.239 199.989 832.429 199.947 832.629 199.947H834.032C834.807 199.947 835.436 200.576 835.436 201.351C835.436 202.126 834.807 202.754 834.032 202.754H832.629C832.429 202.754 832.239 202.713 832.067 202.638Z" fill="white"/>
<path d="M958.945 199.947V202.754H957.541C956.766 202.754 956.138 202.126 956.138 201.351C956.138 200.576 956.766 199.947 957.541 199.947H958.945Z" fill="white"/>
<path d="M958.945 173H957.541C956.766 173 956.138 173.628 956.138 174.404C956.138 175.179 956.766 175.807 957.541 175.807H958.945V173Z" fill="white"/>
<path d="M958.945 146.053H957.541C956.766 146.053 956.138 146.681 956.138 147.456C956.138 148.231 956.766 148.86 957.541 148.86H958.945V146.053Z" fill="white"/>
<path d="M958.945 119.105H957.541C956.766 119.105 956.138 119.734 956.138 120.509C956.138 121.284 956.766 121.912 957.541 121.912H958.945V119.105Z" fill="white"/>
<path d="M838.243 120.509C838.243 119.734 838.871 119.105 839.646 119.105H842.453C843.228 119.105 843.857 119.734 843.857 120.509C843.857 121.284 843.228 121.912 842.453 121.912H839.646C838.871 121.912 838.243 121.284 838.243 120.509Z" fill="white"/>
<path d="M846.664 120.509C846.664 119.734 847.292 119.105 848.067 119.105H850.874C851.65 119.105 852.278 119.734 852.278 120.509C852.278 121.284 851.65 121.912 850.874 121.912H848.067C847.292 121.912 846.664 121.284 846.664 120.509Z" fill="white"/>
<path d="M855.085 120.509C855.085 119.734 855.713 119.105 856.488 119.105H859.295C860.071 119.105 860.699 119.734 860.699 120.509C860.699 121.284 860.071 121.912 859.295 121.912H856.488C855.713 121.912 855.085 121.284 855.085 120.509Z" fill="white"/>
<path d="M863.506 120.509C863.506 119.734 864.134 119.105 864.909 119.105H867.717C868.492 119.105 869.12 119.734 869.12 120.509C869.12 121.284 868.492 121.912 867.717 121.912H864.909C864.134 121.912 863.506 121.284 863.506 120.509Z" fill="white"/>
<path d="M871.927 120.509C871.927 119.734 872.555 119.105 873.331 119.105H876.138C876.913 119.105 877.541 119.734 877.541 120.509C877.541 121.284 876.913 121.912 876.138 121.912H873.331C872.555 121.912 871.927 121.284 871.927 120.509Z" fill="white"/>
<path d="M880.348 120.509C880.348 119.734 880.976 119.105 881.752 119.105H884.559C885.334 119.105 885.962 119.734 885.962 120.509C885.962 121.284 885.334 121.912 884.559 121.912H881.752C880.976 121.912 880.348 121.284 880.348 120.509Z" fill="white"/>
<path d="M888.769 120.509C888.769 119.734 889.398 119.105 890.173 119.105H892.98C893.755 119.105 894.383 119.734 894.383 120.509C894.383 121.284 893.755 121.912 892.98 121.912H890.173C889.398 121.912 888.769 121.284 888.769 120.509Z" fill="white"/>
<path d="M897.19 120.509C897.19 119.734 897.819 119.105 898.594 119.105H901.401C902.176 119.105 902.804 119.734 902.804 120.509C902.804 121.284 902.176 121.912 901.401 121.912H898.594C897.819 121.912 897.19 121.284 897.19 120.509Z" fill="white"/>
<path d="M905.611 120.509C905.611 119.734 906.24 119.105 907.015 119.105H909.822C910.597 119.105 911.225 119.734 911.225 120.509C911.225 121.284 910.597 121.912 909.822 121.912H907.015C906.24 121.912 905.611 121.284 905.611 120.509Z" fill="white"/>
<path d="M914.032 120.509C914.032 119.734 914.661 119.105 915.436 119.105H918.243C919.018 119.105 919.646 119.734 919.646 120.509C919.646 121.284 919.018 121.912 918.243 121.912H915.436C914.661 121.912 914.032 121.284 914.032 120.509Z" fill="white"/>
<path d="M922.453 120.509C922.453 119.734 923.082 119.105 923.857 119.105H926.664C927.439 119.105 928.067 119.734 928.067 120.509C928.067 121.284 927.439 121.912 926.664 121.912H923.857C923.082 121.912 922.453 121.284 922.453 120.509Z" fill="white"/>
<path d="M930.874 120.509C930.874 119.734 931.503 119.105 932.278 119.105H935.085C935.86 119.105 936.488 119.734 936.488 120.509C936.488 121.284 935.86 121.912 935.085 121.912H932.278C931.503 121.912 930.874 121.284 930.874 120.509Z" fill="white"/>
<path d="M939.295 120.509C939.295 119.734 939.924 119.105 940.699 119.105H943.506C944.281 119.105 944.909 119.734 944.909 120.509C944.909 121.284 944.281 121.912 943.506 121.912H940.699C939.924 121.912 939.295 121.284 939.295 120.509Z" fill="white"/>
<path d="M947.717 120.509C947.717 119.734 948.345 119.105 949.12 119.105H951.927C952.702 119.105 953.331 119.734 953.331 120.509C953.331 121.284 952.702 121.912 951.927 121.912H949.12C948.345 121.912 947.717 121.284 947.717 120.509Z" fill="white"/>
<path d="M838.243 147.456C838.243 146.681 838.871 146.053 839.646 146.053H842.453C843.228 146.053 843.857 146.681 843.857 147.456C843.857 148.231 843.228 148.86 842.453 148.86H839.646C838.871 148.86 838.243 148.231 838.243 147.456Z" fill="white"/>
<path d="M846.664 147.456C846.664 146.681 847.292 146.053 848.067 146.053H850.874C851.65 146.053 852.278 146.681 852.278 147.456C852.278 148.231 851.65 148.86 850.874 148.86H848.067C847.292 148.86 846.664 148.231 846.664 147.456Z" fill="white"/>
<path d="M855.085 147.456C855.085 146.681 855.713 146.053 856.488 146.053H859.295C860.071 146.053 860.699 146.681 860.699 147.456C860.699 148.231 860.071 148.86 859.295 148.86H856.488C855.713 148.86 855.085 148.231 855.085 147.456Z" fill="white"/>
<path d="M863.506 147.456C863.506 146.681 864.134 146.053 864.909 146.053H867.717C868.492 146.053 869.12 146.681 869.12 147.456C869.12 148.231 868.492 148.86 867.717 148.86H864.909C864.134 148.86 863.506 148.231 863.506 147.456Z" fill="white"/>
<path d="M871.927 147.456C871.927 146.681 872.555 146.053 873.331 146.053H876.138C876.913 146.053 877.541 146.681 877.541 147.456C877.541 148.231 876.913 148.86 876.138 148.86H873.331C872.555 148.86 871.927 148.231 871.927 147.456Z" fill="white"/>
<path d="M880.348 147.456C880.348 146.681 880.976 146.053 881.752 146.053H884.559C885.334 146.053 885.962 146.681 885.962 147.456C885.962 148.231 885.334 148.86 884.559 148.86H881.752C880.976 148.86 880.348 148.231 880.348 147.456Z" fill="white"/>
<path d="M888.769 147.456C888.769 146.681 889.398 146.053 890.173 146.053H892.98C893.755 146.053 894.383 146.681 894.383 147.456C894.383 148.231 893.755 148.86 892.98 148.86H890.173C889.398 148.86 888.769 148.231 888.769 147.456Z" fill="white"/>
<path d="M897.19 147.456C897.19 146.681 897.819 146.053 898.594 146.053H901.401C902.176 146.053 902.804 146.681 902.804 147.456C902.804 148.231 902.176 148.86 901.401 148.86H898.594C897.819 148.86 897.19 148.231 897.19 147.456Z" fill="white"/>
<path d="M905.611 147.456C905.611 146.681 906.24 146.053 907.015 146.053H909.822C910.597 146.053 911.225 146.681 911.225 147.456C911.225 148.231 910.597 148.86 909.822 148.86H907.015C906.24 148.86 905.611 148.231 905.611 147.456Z" fill="white"/>
<path d="M914.032 147.456C914.032 146.681 914.661 146.053 915.436 146.053H918.243C919.018 146.053 919.646 146.681 919.646 147.456C919.646 148.231 919.018 148.86 918.243 148.86H915.436C914.661 148.86 914.032 148.231 914.032 147.456Z" fill="white"/>
<path d="M922.453 147.456C922.453 146.681 923.082 146.053 923.857 146.053H926.664C927.439 146.053 928.067 146.681 928.067 147.456C928.067 148.231 927.439 148.86 926.664 148.86H923.857C923.082 148.86 922.453 148.231 922.453 147.456Z" fill="white"/>
<path d="M930.874 147.456C930.874 146.681 931.503 146.053 932.278 146.053H935.085C935.86 146.053 936.488 146.681 936.488 147.456C936.488 148.231 935.86 148.86 935.085 148.86H932.278C931.503 148.86 930.874 148.231 930.874 147.456Z" fill="white"/>
<path d="M939.295 147.456C939.295 146.681 939.924 146.053 940.699 146.053H943.506C944.281 146.053 944.909 146.681 944.909 147.456C944.909 148.231 944.281 148.86 943.506 148.86H940.699C939.924 148.86 939.295 148.231 939.295 147.456Z" fill="white"/>
<path d="M947.717 147.456C947.717 146.681 948.345 146.053 949.12 146.053H951.927C952.702 146.053 953.331 146.681 953.331 147.456C953.331 148.231 952.702 148.86 951.927 148.86H949.12C948.345 148.86 947.717 148.231 947.717 147.456Z" fill="white"/>
<path d="M838.243 174.404C838.243 173.628 838.871 173 839.646 173H842.453C843.228 173 843.857 173.628 843.857 174.404C843.857 175.179 843.228 175.807 842.453 175.807H839.646C838.871 175.807 838.243 175.179 838.243 174.404Z" fill="white"/>
<path d="M846.664 174.404C846.664 173.628 847.292 173 848.067 173H850.874C851.65 173 852.278 173.628 852.278 174.404C852.278 175.179 851.65 175.807 850.874 175.807H848.067C847.292 175.807 846.664 175.179 846.664 174.404Z" fill="white"/>
<path d="M855.085 174.404C855.085 173.628 855.713 173 856.488 173H859.295C860.071 173 860.699 173.628 860.699 174.404C860.699 175.179 860.071 175.807 859.295 175.807H856.488C855.713 175.807 855.085 175.179 855.085 174.404Z" fill="white"/>
<path d="M863.506 174.404C863.506 173.628 864.134 173 864.909 173H867.717C868.492 173 869.12 173.628 869.12 174.404C869.12 175.179 868.492 175.807 867.717 175.807H864.909C864.134 175.807 863.506 175.179 863.506 174.404Z" fill="white"/>
<path d="M871.927 174.404C871.927 173.628 872.555 173 873.331 173H876.138C876.913 173 877.541 173.628 877.541 174.404C877.541 175.179 876.913 175.807 876.138 175.807H873.331C872.555 175.807 871.927 175.179 871.927 174.404Z" fill="white"/>
<path d="M880.348 174.404C880.348 173.628 880.976 173 881.752 173H884.559C885.334 173 885.962 173.628 885.962 174.404C885.962 175.179 885.334 175.807 884.559 175.807H881.752C880.976 175.807 880.348 175.179 880.348 174.404Z" fill="white"/>
<path d="M888.769 174.404C888.769 173.628 889.398 173 890.173 173H892.98C893.755 173 894.383 173.628 894.383 174.404C894.383 175.179 893.755 175.807 892.98 175.807H890.173C889.398 175.807 888.769 175.179 888.769 174.404Z" fill="white"/>
<path d="M897.19 174.404C897.19 173.628 897.819 173 898.594 173H901.401C902.176 173 902.804 173.628 902.804 174.404C902.804 175.179 902.176 175.807 901.401 175.807H898.594C897.819 175.807 897.19 175.179 897.19 174.404Z" fill="white"/>
<path d="M905.611 174.404C905.611 173.628 906.24 173 907.015 173H909.822C910.597 173 911.225 173.628 911.225 174.404C911.225 175.179 910.597 175.807 909.822 175.807H907.015C906.24 175.807 905.611 175.179 905.611 174.404Z" fill="white"/>
<path d="M914.032 174.404C914.032 173.628 914.661 173 915.436 173H918.243C919.018 173 919.646 173.628 919.646 174.404C919.646 175.179 919.018 175.807 918.243 175.807H915.436C914.661 175.807 914.032 175.179 914.032 174.404Z" fill="white"/>
<path d="M922.453 174.404C922.453 173.628 923.082 173 923.857 173H926.664C927.439 173 928.067 173.628 928.067 174.404C928.067 175.179 927.439 175.807 926.664 175.807H923.857C923.082 175.807 922.453 175.179 922.453 174.404Z" fill="white"/>
<path d="M930.874 174.404C930.874 173.628 931.503 173 932.278 173H935.085C935.86 173 936.488 173.628 936.488 174.404C936.488 175.179 935.86 175.807 935.085 175.807H932.278C931.503 175.807 930.874 175.179 930.874 174.404Z" fill="white"/>
<path d="M939.295 174.404C939.295 173.628 939.924 173 940.699 173H943.506C944.281 173 944.909 173.628 944.909 174.404C944.909 175.179 944.281 175.807 943.506 175.807H940.699C939.924 175.807 939.295 175.179 939.295 174.404Z" fill="white"/>
<path d="M947.717 174.404C947.717 173.628 948.345 173 949.12 173H951.927C952.702 173 953.331 173.628 953.331 174.404C953.331 175.179 952.702 175.807 951.927 175.807H949.12C948.345 175.807 947.717 175.179 947.717 174.404Z" fill="white"/>
<path d="M839.646 199.947C838.871 199.947 838.243 200.576 838.243 201.351C838.243 202.126 838.871 202.754 839.646 202.754H842.453C843.228 202.754 843.857 202.126 843.857 201.351C843.857 200.576 843.228 199.947 842.453 199.947H839.646Z" fill="white"/>
<path d="M848.067 199.947C847.292 199.947 846.664 200.576 846.664 201.351C846.664 202.126 847.292 202.754 848.067 202.754H850.874C851.65 202.754 852.278 202.126 852.278 201.351C852.278 200.576 851.65 199.947 850.874 199.947H848.067Z" fill="white"/>
<path d="M856.488 199.947C855.713 199.947 855.085 200.576 855.085 201.351C855.085 202.126 855.713 202.754 856.488 202.754H859.295C860.071 202.754 860.699 202.126 860.699 201.351C860.699 200.576 860.071 199.947 859.295 199.947H856.488Z" fill="white"/>
<path d="M864.909 199.947C864.134 199.947 863.506 200.576 863.506 201.351C863.506 202.126 864.134 202.754 864.909 202.754H867.717C868.492 202.754 869.12 202.126 869.12 201.351C869.12 200.576 868.492 199.947 867.717 199.947H864.909Z" fill="white"/>
<path d="M873.331 199.947C872.555 199.947 871.927 200.576 871.927 201.351C871.927 202.126 872.555 202.754 873.331 202.754H876.138C876.913 202.754 877.541 202.126 877.541 201.351C877.541 200.576 876.913 199.947 876.138 199.947H873.331Z" fill="white"/>
<path d="M881.752 199.947C880.976 199.947 880.348 200.576 880.348 201.351C880.348 202.126 880.976 202.754 881.752 202.754H884.559C885.334 202.754 885.962 202.126 885.962 201.351C885.962 200.576 885.334 199.947 884.559 199.947H881.752Z" fill="white"/>
<path d="M890.173 199.947C889.398 199.947 888.769 200.576 888.769 201.351C888.769 202.126 889.398 202.754 890.173 202.754H892.98C893.755 202.754 894.383 202.126 894.383 201.351C894.383 200.576 893.755 199.947 892.98 199.947H890.173Z" fill="white"/>
<path d="M898.594 199.947C897.819 199.947 897.19 200.576 897.19 201.351C897.19 202.126 897.819 202.754 898.594 202.754H901.401C902.176 202.754 902.804 202.126 902.804 201.351C902.804 200.576 902.176 199.947 901.401 199.947H898.594Z" fill="white"/>
<path d="M907.015 199.947C906.24 199.947 905.611 200.576 905.611 201.351C905.611 202.126 906.24 202.754 907.015 202.754H909.822C910.597 202.754 911.225 202.126 911.225 201.351C911.225 200.576 910.597 199.947 909.822 199.947H907.015Z" fill="white"/>
<path d="M915.436 199.947C914.661 199.947 914.032 200.576 914.032 201.351C914.032 202.126 914.661 202.754 915.436 202.754H918.243C919.018 202.754 919.646 202.126 919.646 201.351C919.646 200.576 919.018 199.947 918.243 199.947H915.436Z" fill="white"/>
<path d="M923.857 199.947C923.082 199.947 922.453 200.576 922.453 201.351C922.453 202.126 923.082 202.754 923.857 202.754H926.664C927.439 202.754 928.067 202.126 928.067 201.351C928.067 200.576 927.439 199.947 926.664 199.947H923.857Z" fill="white"/>
<path d="M932.278 199.947C931.503 199.947 930.874 200.576 930.874 201.351C930.874 202.126 931.503 202.754 932.278 202.754H935.085C935.86 202.754 936.488 202.126 936.488 201.351C936.488 200.576 935.86 199.947 935.085 199.947H932.278Z" fill="white"/>
<path d="M940.699 199.947C939.924 199.947 939.295 200.576 939.295 201.351C939.295 202.126 939.924 202.754 940.699 202.754H943.506C944.281 202.754 944.909 202.126 944.909 201.351C944.909 200.576 944.281 199.947 943.506 199.947H940.699Z" fill="white"/>
<path d="M949.12 199.947C948.345 199.947 947.717 200.576 947.717 201.351C947.717 202.126 948.345 202.754 949.12 202.754H951.927C952.702 202.754 953.331 202.126 953.331 201.351C953.331 200.576 952.702 199.947 951.927 199.947H949.12Z" fill="white"/>
<path d="M922.359 191.877L922.359 229.068L784.45 229.068C780.059 229.068 776.5 225.509 776.5 221.118L776.5 199.827C776.5 195.436 780.059 191.877 784.45 191.877L922.359 191.877Z" fill="#BCD0EE"/>
<path d="M800.325 191.877L800.325 229.068L784.449 229.068C780.059 229.068 776.5 225.509 776.5 221.119L776.5 199.827C776.5 195.436 780.059 191.877 784.449 191.877L800.325 191.877Z" fill="#76A9F5"/>
<path d="M804.394 191.877L804.394 229.068L797.42 229.068L797.42 191.877L804.394 191.877Z" fill="#5983C3"/>
<path d="M943.238 209.459L922.359 191.877L922.359 229.068L943.238 211.486C943.867 210.957 943.867 209.988 943.238 209.459Z" fill="white"/>
<path d="M943.188 209.447L938.049 205.242L938.049 215.702L943.188 211.498C943.836 210.968 943.836 209.977 943.188 209.447Z" fill="#2E2E2E"/>
</g>
<path opacity="0.5" fill-rule="evenodd" clip-rule="evenodd" d="M555.512 95.4957C556.163 96.1566 556.163 97.2281 555.512 97.889L537.179 116.504C536.528 117.165 535.472 117.165 534.821 116.504L526.488 108.043C525.837 107.382 525.837 106.31 526.488 105.65C527.139 104.989 528.194 104.989 528.845 105.65L536 112.914L553.155 95.4957C553.806 94.8348 554.861 94.8348 555.512 95.4957Z" fill="#F4F5F8"/>
<path opacity="0.5" fill-rule="evenodd" clip-rule="evenodd" d="M482.512 95.4957C483.163 96.1566 483.163 97.2281 482.512 97.889L464.179 116.504C463.528 117.165 462.472 117.165 461.821 116.504L453.488 108.043C452.837 107.382 452.837 106.31 453.488 105.65C454.139 104.989 455.194 104.989 455.845 105.65L463 112.914L480.155 95.4957C480.806 94.8348 481.861 94.8348 482.512 95.4957Z" fill="#F4F5F8"/>
<defs>
<clipPath id="clip0_2604_20336">
<rect width="300" height="280.702" fill="white" transform="translate(776.5 0.64917)"/>
</clipPath>
</defs>
</svg>
