<svg width="120" height="120" viewBox="0 0 120 120" fill="none" xmlns="http://www.w3.org/2000/svg">
<path d="M31.5902 18.24C27.3486 18.24 23.9102 21.6784 23.9102 25.92V98.0197C23.9102 102.261 27.3486 105.7 31.5902 105.7H53.0634V117.829C53.0634 119.273 54.5974 120.2 55.8758 119.529L82.2166 105.7H103.69C107.931 105.7 111.37 102.261 111.37 98.0197V25.92C111.37 21.6784 107.931 18.24 103.69 18.24H31.5902Z" fill="#232323"/>
<mask id="mask0_1069_50284" style="mask-type:alpha" maskUnits="userSpaceOnUse" x="23" y="18" width="89" height="102">
<path d="M31.5902 18.24C27.3486 18.24 23.9102 21.6784 23.9102 25.92V98.0197C23.9102 102.261 27.3486 105.7 31.5902 105.7H53.0634V117.829C53.0634 119.273 54.5974 120.2 55.8758 119.529L82.2166 105.7H103.69C107.931 105.7 111.37 102.261 111.37 98.0197V25.92C111.37 21.6784 107.931 18.24 103.69 18.24H31.5902Z" fill="#EFF5FF"/>
</mask>
<g mask="url(#mask0_1069_50284)">
<path d="M116.036 61.7756L103.624 53.2979L97.0901 68.3747L101.011 69.6857L87.2891 108.689H107.73C109.685 108.689 111.27 107.104 111.27 105.149C111.27 102.217 108.893 99.8395 105.96 99.8395H101.011L117.389 66.9764C118.3 65.1481 117.723 62.9278 116.036 61.7756Z" fill="url(#paint0_linear_1069_50284)"/>
<path fill-rule="evenodd" clip-rule="evenodd" d="M98.2153 110.592L50.1242 113.866L44.8408 65.8677C35.3825 63.1216 14.3445 33.8572 10.2168 19.3437L18.3706 12.8273L18.9297 13.3325C43.0634 35.1385 49.0249 40.5249 56.9654 41.8417H79.5664C91.8925 41.8417 111.47 51.1235 119.461 61.2234C120.359 62.3585 120.413 63.913 119.756 65.2027L103.138 97.824H97.4954C98.2153 102.407 98.5427 105.354 98.2153 110.592ZM99.5367 70.3236L92.6617 69.0141C93.3118 72.021 94.204 76.6286 95.0679 81.9446L99.5367 70.3236Z" fill="url(#paint1_linear_1069_50284)"/>
<path d="M49.8798 126.12V111.72H76.9998L49.8798 126.12Z" fill="url(#paint2_linear_1069_50284)"/>
<rect x="14.5996" y="86.4" width="104.4" height="44.64" fill="url(#paint3_linear_1069_50284)" fill-opacity="0.15"/>
</g>
<path d="M25.1161 43.9432L46.4029 60.6311L55.2224 48.7306L42.0112 40.3835L15.5887 13.378C13.0481 9.08167 9.61828 1.10215 6.82357 0.366215C5.71163 0.0734041 -0.290164 -0.493048 1.10718 8.95886C2.22505 16.5204 7.24701 17.9198 9.61826 17.6743L25.1161 43.9432Z" fill="#D9D9D9"/>
<path d="M25.1161 43.9432L46.4029 60.6311L55.2224 48.7306L42.0112 40.3835L15.5887 13.378C13.0481 9.08167 9.61828 1.10215 6.82357 0.366215C5.71163 0.0734041 -0.290164 -0.493048 1.10718 8.95886C2.22505 16.5204 7.24701 17.9198 9.61826 17.6743L25.1161 43.9432Z" fill="url(#paint4_linear_1069_50284)"/>
<path d="M44.841 65.8679C35.3827 63.1218 14.3447 33.8575 10.217 19.3439L18.3708 12.8276L18.9299 13.3327C43.0638 35.1388 49.0251 40.5252 56.9656 41.842L59.5586 56.4965L44.841 65.8679Z" fill="#CCDFFF"/>
<path d="M63.0561 37.8523H75.5723V40.6484C75.5723 44.1047 72.7704 46.9066 69.3142 46.9066C65.8579 46.9066 63.0561 44.1047 63.0561 40.6484V37.8523Z" fill="#D1D2D7"/>
<path d="M63.0561 37.8523H75.5723V40.6484C75.5723 44.1047 72.7704 46.9066 69.3142 46.9066C65.8579 46.9066 63.0561 44.1047 63.0561 40.6484V37.8523Z" fill="#FFB8A5"/>
<path d="M68.382 47.0398L63.1528 41.048L61.1918 42.3795L63.5766 49.936C63.8237 50.719 64.8264 50.9398 65.3796 50.3331L68.382 47.0398Z" fill="white"/>
<path d="M68.3821 47.1103L75.6549 41.048L77.969 42.7319L73.0464 51.0837C72.6545 51.7486 71.7077 51.7891 71.2605 51.16L68.3821 47.1103Z" fill="white"/>
<path d="M52.784 22.4086C52.0118 31.2344 57.126 39.3602 66.132 40.1481C75.1379 40.936 84.6254 34.0877 85.3975 25.2619C86.1697 16.436 79.4949 8.6425 70.4889 7.85458C61.4829 7.06666 53.5561 13.5827 52.784 22.4086Z" fill="#E3E5EB"/>
<path d="M52.784 22.4086C52.0118 31.2344 57.126 39.3602 66.132 40.1481C75.1379 40.936 84.6254 34.0877 85.3975 25.2619C86.1697 16.436 79.4949 8.6425 70.4889 7.85458C61.4829 7.06666 53.5561 13.5827 52.784 22.4086Z" fill="#FFC1AE"/>
<path d="M70.4889 7.85458C79.4949 8.6425 86.1697 16.436 85.3975 25.2619C85.2344 27.1268 84.7518 28.8886 84.0071 30.5001C84.688 28.7731 85.2671 25.2505 82.1362 24.9766C81.2281 24.8972 80.6243 25.5873 80.282 26.2677C80.0588 26.7112 79.6018 27.0397 79.1223 26.9108C74.8172 25.7536 68.1278 20.283 64.8142 12.6163L64.8036 12.6301C62.7749 15.2758 57.3358 22.3693 52.784 22.4086C53.64 12.6245 62.1208 7.12247 70.4889 7.85458Z" fill="#1C1C1C"/>
<path d="M70.7787 62.6183C70.7787 63.6479 69.8845 64.4825 68.7814 64.4825C67.6784 64.4825 66.7841 63.6479 66.7841 62.6183C66.7841 61.5888 67.6784 60.7542 68.7814 60.7542C69.8845 60.7542 70.7787 61.5888 70.7787 62.6183Z" fill="white"/>
<path d="M71.4669 73.8029C71.4669 74.8325 70.5727 75.6671 69.4697 75.6671C68.3666 75.6671 67.4724 74.8325 67.4724 73.8029C67.4724 72.7734 68.3666 71.9388 69.4697 71.9388C70.5727 71.9388 71.4669 72.7734 71.4669 73.8029Z" fill="white"/>
<path d="M72.5321 84.7212C72.5321 85.6037 71.6975 86.3191 70.668 86.3191C69.6385 86.3191 68.8039 85.6037 68.8039 84.7212C68.8039 83.8388 69.6385 83.1234 70.668 83.1234C71.6975 83.1234 72.5321 83.8388 72.5321 84.7212Z" fill="white"/>
<defs>
<linearGradient id="paint0_linear_1069_50284" x1="103.134" y1="53.2979" x2="103.134" y2="108.689" gradientUnits="userSpaceOnUse">
<stop offset="0.870621" stop-color="#FFB8A5"/>
<stop offset="1" stop-color="#FFA790"/>
</linearGradient>
<linearGradient id="paint1_linear_1069_50284" x1="65.2398" y1="62.64" x2="70.9898" y2="113.975" gradientUnits="userSpaceOnUse">
<stop stop-color="#CCDFFF"/>
<stop offset="1" stop-color="#99BFFF"/>
</linearGradient>
<linearGradient id="paint2_linear_1069_50284" x1="65.2398" y1="62.64" x2="70.9898" y2="113.975" gradientUnits="userSpaceOnUse">
<stop stop-color="#CCDFFF"/>
<stop offset="1" stop-color="#99BFFF"/>
</linearGradient>
<linearGradient id="paint3_linear_1069_50284" x1="66.7996" y1="86.4" x2="66.709" y2="126.034" gradientUnits="userSpaceOnUse">
<stop stop-color="#1C1C1C" stop-opacity="0"/>
<stop offset="1" stop-color="#1C1C1C"/>
</linearGradient>
<linearGradient id="paint4_linear_1069_50284" x1="78.9331" y1="82.8288" x2="11.7483" y2="-5.6245" gradientUnits="userSpaceOnUse">
<stop offset="0.89784" stop-color="#FFB8A5"/>
<stop offset="1" stop-color="#FFA790"/>
</linearGradient>
</defs>
</svg>
