<svg width="81" height="26" viewBox="0 0 81 26" fill="none" xmlns="http://www.w3.org/2000/svg">
<path d="M57.7405 20.8153C57.7405 20.6929 57.84 20.5937 57.9629 20.5937H67.2769C67.3998 20.5937 67.4993 20.4945 67.4993 20.3721V16.9767C67.4993 16.8543 67.3998 16.7551 67.2769 16.7551H59.4841C59.3613 16.7551 59.2617 16.6559 59.2617 16.5335V7.67716C59.2617 7.55476 59.3613 7.45553 59.4841 7.45553H75.7281C75.8509 7.45553 75.9505 7.35631 75.9505 7.2339V4.77826C75.9505 4.65585 75.8509 4.55663 75.7281 4.55663H59.4841C59.3613 4.55663 59.2617 4.4574 59.2617 4.335V1.55134C59.2617 1.42894 59.3613 1.32971 59.4841 1.32971H79.2331C79.3559 1.32971 79.4555 1.42894 79.4555 1.55134V10.381C79.4555 10.5034 79.3559 10.6027 79.2331 10.6027H63.0158C62.8929 10.6027 62.7934 10.7019 62.7934 10.8243V13.3065C62.7934 13.4289 62.8929 13.5282 63.0158 13.5282H79.58C79.7029 13.5282 79.8024 13.6274 79.8024 13.7498V16.5335C79.8024 16.6559 79.7029 16.7551 79.58 16.7551H71.3068C71.184 16.7551 71.0844 16.8543 71.0844 16.9767V20.3721C71.0844 20.4945 71.184 20.5937 71.3068 20.5937H80.7276C80.8504 20.5937 80.95 20.6929 80.95 20.8153V23.6788C80.95 23.8012 80.8504 23.9004 80.7276 23.9004H57.9629C57.84 23.9004 57.7405 23.8012 57.7405 23.6788V20.8153Z" fill="white"/>
<path d="M56.9021 13.28C57.0249 13.28 57.1245 13.1807 57.1245 13.0583V10.0885C57.1245 9.9661 57.0249 9.86688 56.9021 9.86688H53.4771C53.3543 9.86688 53.2547 9.76765 53.2547 9.64525V1.1081C53.2547 0.985701 53.1552 0.886475 53.0323 0.886475H49.9454C49.8226 0.886475 49.7231 0.985701 49.7231 1.1081V23.8206C49.7231 23.943 49.8226 24.0423 49.9454 24.0423H53.0323C53.1552 24.0423 53.2547 23.943 53.2547 23.8206V13.5016C53.2547 13.3792 53.3543 13.28 53.4771 13.28H56.9021Z" fill="white"/>
<path fill-rule="evenodd" clip-rule="evenodd" d="M46.5917 1.77299C46.5917 1.65059 46.4921 1.55136 46.3693 1.55136H43.3091C43.1862 1.55136 43.0867 1.65059 43.0867 1.77299V8.92717C43.0867 9.04957 42.9871 9.1488 42.8643 9.1488H36.308C36.1851 9.1488 36.0856 9.04957 36.0856 8.92717V1.77299C36.0856 1.65059 35.986 1.55136 35.8632 1.55136H32.803C32.6801 1.55136 32.5806 1.65059 32.5806 1.77299V22.6859C32.5806 22.8083 32.6801 22.9075 32.803 22.9075H46.3693C46.4921 22.9075 46.5917 22.8083 46.5917 22.6859V1.77299ZM36.0856 12.6771C36.0856 12.5547 36.1851 12.4555 36.308 12.4555H42.8643C42.9871 12.4555 43.0867 12.5547 43.0867 12.6771V19.3792C43.0867 19.5016 42.9871 19.6008 42.8643 19.6008H36.308C36.1851 19.6008 36.0856 19.5016 36.0856 19.3792V12.6771Z" fill="white"/>
<path d="M0 2.65955C0 1.19072 1.19485 0 2.66878 0H9.34074C10.8147 0 12.0095 1.19072 12.0095 2.65955V9.30841C12.0095 10.7772 10.8147 11.968 9.34074 11.968H2.66878C1.19485 11.968 0 10.7772 0 9.30841V2.65955Z" fill="#4C94FF"/>
<path d="M12.0095 2.65955C12.0095 1.19072 13.2044 0 14.6783 0H21.3503C22.8242 0 24.019 1.19072 24.019 2.65955V9.30841C24.019 10.7772 22.8242 11.968 21.3503 11.968H14.6783C13.2044 11.968 12.0095 10.7772 12.0095 9.30841V2.65955Z" fill="#FFC633"/>
<path d="M0 14.6276C0 13.1587 1.19485 11.968 2.66878 11.968H9.34074C10.8147 11.968 12.0095 13.1587 12.0095 14.6276V21.2764C12.0095 22.7453 10.8147 23.936 9.34074 23.936H2.66878C1.19485 23.936 0 22.7453 0 21.2764V14.6276Z" fill="#33D486"/>
<path d="M14.6783 11.968C13.2044 11.968 12.0095 13.1587 12.0095 14.6276V25.5561C12.0095 25.908 12.4012 26.1196 12.6971 25.9275L15.7644 23.936H21.3503C22.8242 23.936 24.019 22.7453 24.019 21.2764V14.6276C24.019 13.1587 22.8242 11.968 21.3503 11.968H14.6783Z" fill="#EFF5FF"/>
</svg>
