<svg xmlns="http://www.w3.org/2000/svg" width="342" height="178" viewBox="0 0 342 178" fill="none">
<path d="M109.131 3.08203V9.80078H111.846V11.6367H109.131V20.7383H106.963V3.08203H109.131ZM95.9277 16.5977V4.52734H98.0762V8.94141H102.236V4.52734H104.404V16.5977H95.9277ZM98.0762 14.8203H102.236V10.6406H98.0762V14.8203ZM128.221 16.8906V18.6875H112.088V16.8906H119.041V14.0195H114.002V8.23828H124.158V6.05078H113.963V4.29297H126.307V9.95703H116.17V12.2422H126.717V14.0195H121.189V16.8906H128.221ZM139.428 5.97266C139.418 8.0625 140.834 10.0938 143.627 10.9141L142.592 12.5938C140.57 11.9883 139.145 10.7383 138.354 9.14648C137.572 10.9141 136.088 12.3008 133.959 12.9648L132.865 11.2461C135.717 10.377 137.221 8.23828 137.24 6.01172V5.89453H133.49V4.13672H143.08V5.89453H139.428V5.97266ZM135.6 20.5234V13.5312H137.768V15.3477H144.877V13.5312H147.045V20.5234H135.6ZM137.768 18.7656H144.877V17.0273H137.768V18.7656ZM144.877 12.7891V3.08203H147.045V6.94922H149.506V8.74609H147.045V12.7891H144.877ZM154.65 4.37109C157.307 4.37109 159.221 6.79297 159.24 10.6016C159.221 14.4395 157.307 16.8516 154.65 16.8516C151.965 16.8516 150.051 14.4395 150.061 10.6016C150.051 6.79297 151.965 4.37109 154.65 4.37109ZM152.15 10.6016C152.141 13.3164 153.166 14.8887 154.65 14.8984C156.145 14.8887 157.141 13.3164 157.15 10.6016C157.141 7.90625 156.145 6.32422 154.65 6.32422C153.166 6.32422 152.141 7.90625 152.15 10.6016ZM161.564 20.7383V3.08203H163.732V9.85938H166.447V11.6953H163.732V20.7383H161.564ZM184.764 3.08203V9.80078H187.479V11.6367H184.764V20.7383H182.596V3.08203H184.764ZM171.561 16.5977V4.52734H173.709V8.94141H177.869V4.52734H180.037V16.5977H171.561ZM173.709 14.8203H177.869V10.6406H173.709V14.8203ZM203.854 16.8906V18.6875H187.721V16.8906H194.674V14.0195H189.635V8.23828H199.791V6.05078H189.596V4.29297H201.939V9.95703H191.803V12.2422H202.35V14.0195H196.822V16.8906H203.854ZM214.357 6.51953C214.357 8.19922 215.07 10.1816 216.809 11.3926C218.508 10.2012 219.221 8.22852 219.221 6.51953V4.41016H221.408V6.51953C221.398 8.6582 222.443 10.8457 224.846 11.832L223.674 13.4531C222.004 12.7402 220.91 11.4316 220.305 9.83984C219.699 11.4902 218.566 12.9355 216.779 13.6875C214.982 12.9355 213.85 11.4609 213.254 9.80078C212.629 11.373 211.525 12.7207 209.885 13.4531L208.752 11.832C211.086 10.8066 212.18 8.54102 212.189 6.51953V4.41016H214.357V6.51953ZM208.752 18.4727V16.6953H224.846V18.4727H208.752ZM239.834 8.08203V9.80078H227.607V3.72656H229.756V8.08203H239.834ZM225.518 13.5703V11.8516H241.65V13.5703H225.518ZM227.451 20.3281V15.1328H229.619V18.5703H239.951V20.3281H227.451ZM245.76 17.6133L244.119 23.082H242.264L243.279 17.6133H245.76Z" fill="#232323"/>
<path d="M60.293 47.4955C60.293 43.4362 63.5837 40.1455 67.643 40.1455H86.018C90.0773 40.1455 93.368 43.4362 93.368 47.4955V65.8705C93.368 69.9298 90.0773 73.2205 86.018 73.2205H67.643C63.5837 73.2205 60.293 69.9298 60.293 65.8705V47.4955Z" fill="#4C94FF"/>
<path d="M93.3691 47.4955C93.3691 43.4362 96.6599 40.1455 100.719 40.1455H119.094C123.153 40.1455 126.444 43.4362 126.444 47.4955V65.8705C126.444 69.9298 123.153 73.2205 119.094 73.2205H100.719C96.6598 73.2205 93.3691 69.9298 93.3691 65.8705V47.4955Z" fill="#FFC633"/>
<path d="M60.293 80.5707C60.293 76.5114 63.5837 73.2207 67.643 73.2207H86.018C90.0773 73.2207 93.368 76.5114 93.368 80.5707V98.9457C93.368 103.005 90.0773 106.296 86.018 106.296H67.643C63.5837 106.296 60.293 103.005 60.293 98.9457V80.5707Z" fill="#33D486"/>
<path d="M100.719 73.2207C96.6599 73.2207 93.3691 76.5114 93.3691 80.5707V110.773C93.3691 111.746 94.448 112.33 95.2628 111.799L103.71 106.296H119.094C123.153 106.296 126.444 103.005 126.444 98.9457V80.5707C126.444 76.5114 123.153 73.2207 119.094 73.2207H100.719Z" fill="#1C1C1C"/>
<path d="M217.786 99.1518C217.786 98.8136 218.06 98.5393 218.399 98.5393H244.05C244.388 98.5393 244.663 98.2651 244.663 97.9268V88.5433C244.663 88.205 244.388 87.9308 244.05 87.9308H222.588C222.25 87.9308 221.976 87.6566 221.976 87.3183V62.8428C221.976 62.5045 222.25 62.2303 222.588 62.2303H267.325C267.663 62.2303 267.938 61.9561 267.938 61.6178V54.8313C267.938 54.493 267.663 54.2188 267.325 54.2188H222.588C222.25 54.2188 221.976 53.9446 221.976 53.6063V45.9133C221.976 45.575 222.25 45.3008 222.588 45.3008H276.978C277.316 45.3008 277.591 45.575 277.591 45.9133V70.3153C277.591 70.6536 277.316 70.9278 276.978 70.9278H232.315C231.976 70.9278 231.702 71.202 231.702 71.5403V78.4003C231.702 78.7386 231.976 79.0128 232.315 79.0128H277.934C278.272 79.0128 278.546 79.287 278.546 79.6253V87.3183C278.546 87.6566 278.272 87.9308 277.934 87.9308H255.149C254.81 87.9308 254.536 88.205 254.536 88.5433V97.9268C254.536 98.2651 254.81 98.5393 255.149 98.5393H281.094C281.432 98.5393 281.707 98.8136 281.707 99.1518V107.065C281.707 107.404 281.432 107.678 281.094 107.678H218.399C218.06 107.678 217.786 107.404 217.786 107.065V99.1518Z" fill="#1C1C1C"/>
<path d="M215.477 78.3267C215.815 78.3267 216.09 78.0525 216.09 77.7142V69.5067C216.09 69.1684 215.815 68.8942 215.477 68.8942H206.045C205.706 68.8942 205.432 68.62 205.432 68.2817V44.6882C205.432 44.3499 205.158 44.0757 204.82 44.0757H196.318C195.98 44.0757 195.706 44.3499 195.706 44.6882V107.457C195.706 107.796 195.98 108.07 196.318 108.07H204.82C205.158 108.07 205.432 107.796 205.432 107.457V78.9392C205.432 78.6009 205.706 78.3267 206.045 78.3267H215.477Z" fill="#1C1C1C"/>
<path fill-rule="evenodd" clip-rule="evenodd" d="M187.082 46.5257C187.082 46.1874 186.807 45.9132 186.469 45.9132H178.041C177.703 45.9132 177.429 46.1874 177.429 46.5257V66.2972C177.429 66.6355 177.154 66.9097 176.816 66.9097H158.76C158.421 66.9097 158.147 66.6355 158.147 66.2972V46.5257C158.147 46.1874 157.873 45.9132 157.535 45.9132H149.107C148.768 45.9132 148.494 46.1874 148.494 46.5257V104.321C148.494 104.66 148.768 104.934 149.107 104.934H186.469C186.807 104.934 187.082 104.66 187.082 104.321V46.5257ZM158.147 76.6607C158.147 76.3224 158.421 76.0482 158.76 76.0482H176.816C177.154 76.0482 177.429 76.3224 177.429 76.6607V95.1827C177.429 95.521 177.154 95.7952 176.816 95.7952H158.76C158.421 95.7952 158.147 95.521 158.147 95.1827V76.6607Z" fill="#1C1C1C"/>
<path d="M6.08887 141.479C6.08887 143.163 7.34131 144.782 9.37012 145.419L8.65234 146.503C7.14355 146.005 6.00098 144.972 5.40771 143.654C4.81445 145.075 3.6499 146.203 2.08984 146.752L1.37207 145.683C3.41553 144.972 4.67529 143.258 4.68262 141.479V141.112H1.73828V139.984H8.97461V141.112H6.08887V141.479ZM3.21777 148.832V147.704H12.1094V152.245H10.7178V148.832H3.21777ZM10.7178 147.045V139.12H12.1094V147.045H10.7178ZM25.1172 139.12V146.269H23.7402V143.368H21.2793V142.226H23.7402V139.12H25.1172ZM14.2041 145.39C16.2183 144.687 17.478 142.965 17.4707 141.156V140.98H14.6289V139.853H21.7041V140.98H18.8916V141.171C18.8843 142.797 20.0708 144.445 22.0557 145.111L21.3379 146.195C19.8584 145.668 18.7744 144.628 18.2031 143.339C17.6318 144.782 16.4819 145.939 14.9219 146.488L14.2041 145.39ZM16.5771 152.084V146.854H17.9541V148.363H23.7402V146.854H25.1172V152.084H16.5771ZM17.9541 150.956H23.7402V149.447H17.9541V150.956ZM36.0889 140.512V141.083C36.0815 142.299 36.0962 144.386 35.1807 147.865L33.7891 147.646C34.5801 144.906 34.6899 142.914 34.7046 141.64H31.7236V140.512H36.0889ZM30.8154 150.326V149.169H42.7832V150.326H30.8154ZM37.0117 141.64V140.512H41.4648V141.479C41.4575 142.907 41.4722 144.848 40.8936 147.836L39.4873 147.689C40.0586 144.972 40.0806 143.031 40.0879 141.64H37.0117ZM48.4814 141.449C48.4741 143.104 49.6606 144.723 51.6455 145.404L50.9277 146.488C49.4556 145.983 48.3643 144.928 47.793 143.632C47.2217 145.075 46.0718 146.232 44.5117 146.781L43.7939 145.683C45.8081 144.994 47.0679 143.244 47.0605 141.464V141.098H44.2188V139.97H51.2939V141.098H48.4814V141.449ZM45.8301 148.759V147.631H54.7217V152.245H53.3301V148.759H45.8301ZM50.8984 143.603V142.46H53.3301V139.12H54.7217V146.972H53.3301V143.603H50.8984ZM67.627 139.135V148.671H66.2354V139.135H67.627ZM57.0068 143.266C57.0142 141.369 58.5229 140.021 60.5078 140.014C62.4854 140.021 63.9941 141.369 63.9941 143.266C63.9941 145.192 62.4854 146.532 60.5078 146.532C58.5229 146.532 57.0142 145.192 57.0068 143.266ZM58.3691 143.266C58.3618 144.503 59.2847 145.316 60.5078 145.316C61.709 145.316 62.6318 144.503 62.6318 143.266C62.6318 142.057 61.709 141.229 60.5078 141.229C59.2847 141.229 58.3618 142.057 58.3691 143.266ZM59.043 151.967V147.704H60.4492V150.839H68.0225V151.967H59.043ZM83.8574 139.677V140.541C83.8647 141.405 83.8647 142.511 83.5791 143.939H85.3809V145.053H73.3691V143.939H82.1802C82.4512 142.614 82.4805 141.61 82.4805 140.79H74.8779V139.677H83.8574ZM74.7754 147.338V146.225H83.8721V149.667H76.1816V151H84.209V152.113H74.79V148.598H82.4951V147.338H74.7754ZM92.3096 139.34C95.2686 139.333 96.9897 140.131 96.9971 141.596C96.9897 143.068 95.2686 143.866 92.3096 143.866C89.3506 143.866 87.6147 143.068 87.6221 141.596C87.6147 140.131 89.3506 139.333 92.3096 139.34ZM86.333 145.785V144.672H98.3008V145.785H86.333ZM87.7686 147.836V146.796H96.792V149.872H89.1455V151.044H97.1582V152.113H87.7832V148.861H95.415V147.836H87.7686ZM89.0723 141.596C89.0649 142.409 90.2222 142.826 92.3096 142.826C94.4116 142.826 95.5688 142.409 95.5615 141.596C95.5688 140.819 94.4116 140.365 92.3096 140.365C90.2222 140.365 89.0649 140.819 89.0723 141.596ZM109.741 139.94C109.741 143.28 107.449 145.646 103.647 146.723L103.076 145.639C106.108 144.789 107.983 143.156 108.254 141.083H103.765V139.94H109.741ZM105.317 152.069V147.104H113.901V152.069H105.317ZM106.68 150.956H112.524V148.217H106.68V150.956ZM109.8 143.573V142.416H112.51V139.135H113.901V146.562H112.51V143.573H109.8ZM120.479 142.46C120.464 144.782 121.819 147.162 123.774 148.114L122.91 149.228C121.482 148.48 120.376 147.016 119.797 145.265C119.211 147.125 118.062 148.7 116.567 149.477L115.703 148.349C117.717 147.382 119.08 144.862 119.087 142.46V140.219H120.479V142.46ZM124.756 152.245V139.12H126.147V144.35H128.257V145.536H126.147V152.245H124.756ZM139.111 139.12V144.438H141.221V145.595H139.111V152.245H137.734V139.12H139.111ZM128.813 142.313V141.171H132.051V139.296H133.442V141.171H136.592V142.313H128.813ZM129.487 146.327C129.487 144.54 130.864 143.28 132.754 143.28C134.636 143.28 136.013 144.54 136.021 146.327C136.013 148.129 134.636 149.381 132.754 149.389C130.864 149.381 129.487 148.129 129.487 146.327ZM130.82 146.327C130.813 147.47 131.633 148.231 132.754 148.217C133.867 148.231 134.68 147.47 134.688 146.327C134.68 145.207 133.867 144.43 132.754 144.423C131.633 144.43 130.813 145.207 130.82 146.327ZM152.471 140.38V141.669C152.463 143.288 152.463 145.104 151.973 147.792L150.566 147.646C151.072 145.104 151.072 143.244 151.079 141.669V141.508H143.11V140.38H152.471ZM141.851 150.473V149.315H146.406V144.687H147.783V149.315H153.818V150.473H141.851ZM157.173 149.989L156.001 154.032H154.756L155.532 149.989H157.173ZM174.282 145.814V146.942H162.314V145.814H167.603V144.394H163.882V139.428H165.259V140.849H171.338V139.428H172.729V144.394H168.979V145.814H174.282ZM163.647 149.228V148.114H172.817V152.245H171.411V149.228H163.647ZM165.259 143.28H171.338V141.889H165.259V143.28ZM179.834 142.46C179.819 144.782 181.174 147.162 183.13 148.114L182.266 149.228C180.837 148.48 179.731 147.016 179.153 145.265C178.567 147.125 177.417 148.7 175.923 149.477L175.059 148.349C177.073 147.382 178.435 144.862 178.442 142.46V140.219H179.834V142.46ZM184.111 152.245V139.12H185.503V144.35H187.612V145.536H185.503V152.245H184.111ZM198.467 139.12V144.438H200.576V145.595H198.467V152.245H197.09V139.12H198.467ZM188.169 142.313V141.171H191.406V139.296H192.798V141.171H195.947V142.313H188.169ZM188.843 146.327C188.843 144.54 190.22 143.28 192.109 143.28C193.992 143.28 195.369 144.54 195.376 146.327C195.369 148.129 193.992 149.381 192.109 149.389C190.22 149.381 188.843 148.129 188.843 146.327ZM190.176 146.327C190.168 147.47 190.989 148.231 192.109 148.217C193.223 148.231 194.036 147.47 194.043 146.327C194.036 145.207 193.223 144.43 192.109 144.423C190.989 144.43 190.168 145.207 190.176 146.327ZM211.826 140.38V141.669C211.819 143.288 211.819 145.104 211.328 147.792L209.922 147.646C210.427 145.104 210.427 143.244 210.435 141.669V141.508H202.466V140.38H211.826ZM201.206 150.473V149.315H205.762V144.687H207.139V149.315H213.174V150.473H201.206ZM216.528 149.989L215.356 154.032H214.111L214.888 149.989H216.528ZM232.627 139.12V152.274H231.235V144.979H228.525V143.837H231.235V139.12H232.627ZM221.523 148.612C223.53 147.653 224.944 145.17 224.951 142.812V141.581H222.051V140.438H229.272V141.581H226.357V142.812C226.357 145.031 227.756 147.426 229.771 148.319L228.936 149.433C227.419 148.7 226.255 147.169 225.669 145.382C225.083 147.287 223.889 148.92 222.373 149.696L221.523 148.612ZM239.219 141.537C239.211 143.207 240.376 144.73 242.368 145.36L241.709 146.444C240.215 145.968 239.124 144.979 238.545 143.734C237.974 145.17 236.824 146.305 235.249 146.854L234.531 145.741C236.582 145.067 237.82 143.375 237.827 141.552V141.186H234.941V140.058H242.046V141.186H239.219V141.537ZM236.304 149.755C236.304 148.217 237.981 147.316 240.713 147.323C243.416 147.316 245.063 148.217 245.063 149.755C245.063 151.315 243.416 152.223 240.713 152.216C237.981 152.223 236.304 151.315 236.304 149.755ZM237.695 149.755C237.688 150.634 238.816 151.125 240.713 151.117C242.595 151.125 243.708 150.634 243.701 149.755C243.708 148.898 242.595 148.415 240.713 148.422C238.816 148.415 237.688 148.898 237.695 149.755ZM243.555 147.001V139.12H244.946V142.372H246.851V143.515H244.946V147.001H243.555ZM257.91 139.076V142.152H259.829V143.295H257.91V146.298H256.519V139.076H257.91ZM247.612 141.332V140.233H250.835V139.003H252.227V140.233H255.435V141.332H247.612ZM248.33 143.983C248.323 142.658 249.597 141.83 251.523 141.83C253.45 141.83 254.702 142.658 254.702 143.983C254.702 145.316 253.45 146.129 251.523 146.122C249.597 146.129 248.323 145.316 248.33 143.983ZM249.429 147.953V146.913H257.91V149.96H250.82V151.059H258.364V152.113H249.458V148.979H256.533V147.953H249.429ZM249.678 143.983C249.663 144.694 250.388 145.111 251.523 145.111C252.651 145.111 253.384 144.694 253.398 143.983C253.384 143.273 252.651 142.833 251.523 142.826C250.388 142.833 249.663 143.273 249.678 143.983ZM270.947 140.277C270.94 142.021 273.071 143.654 275.649 143.998L275.107 145.141C272.961 144.796 271.079 143.683 270.222 142.138C269.365 143.683 267.483 144.796 265.352 145.141L264.795 143.998C267.366 143.654 269.49 142.042 269.497 140.277V139.56H270.947V140.277ZM264.224 147.572V146.43H276.191V147.572H270.859V152.245H269.497V147.572H264.224ZM285.405 147.792C285.405 148.92 285.962 150.114 287.156 150.824C288.357 150.055 288.95 148.803 288.95 147.792V147.162H290.312V147.792C290.305 149.154 291.206 150.473 292.92 151.029L292.231 152.055C290.935 151.608 290.049 150.729 289.595 149.66C289.177 150.714 288.394 151.674 287.192 152.172C285.933 151.696 285.134 150.766 284.731 149.696C284.255 150.729 283.391 151.601 282.153 152.055L281.45 151.029C283.135 150.429 284.05 149.059 284.058 147.792V147.162H285.405V147.792ZM281.113 142.958C281.121 141.12 282.6 139.86 284.614 139.853C286.621 139.86 288.101 141.12 288.101 142.958C288.101 144.774 286.621 146.034 284.614 146.034C282.6 146.034 281.121 144.774 281.113 142.958ZM282.476 142.958C282.468 144.101 283.369 144.877 284.614 144.877C285.845 144.877 286.738 144.101 286.738 142.958C286.738 141.808 285.845 141.032 284.614 141.039C283.369 141.032 282.468 141.808 282.476 142.958ZM290.342 146.605V139.135H291.733V146.605H290.342ZM297.373 140.102C299.16 140.109 300.457 141.618 300.669 144.042H303.379V139.12H304.756V152.274H303.379V145.17H300.684C300.53 147.733 299.204 149.323 297.373 149.315C295.417 149.323 294.033 147.536 294.048 144.701C294.033 141.896 295.417 140.109 297.373 140.102ZM295.366 144.701C295.374 146.789 296.187 148.07 297.373 148.07C298.56 148.07 299.373 146.789 299.38 144.701C299.373 142.643 298.56 141.354 297.373 141.347C296.187 141.354 295.374 142.643 295.366 144.701ZM318.789 149.447V150.604H306.777V149.447H309.648V146.02C308.572 145.426 307.913 144.489 307.92 143.31C307.913 141.244 309.941 139.889 312.754 139.882C315.574 139.889 317.603 141.244 317.603 143.31C317.603 144.467 316.973 145.397 315.918 145.99V149.447H318.789ZM309.268 143.31C309.268 144.716 310.696 145.631 312.754 145.639C314.797 145.631 316.248 144.716 316.255 143.31C316.248 141.896 314.797 140.995 312.754 140.995C310.696 140.995 309.268 141.896 309.268 143.31ZM311.025 149.447H314.512V146.532C313.977 146.657 313.384 146.723 312.754 146.723C312.139 146.723 311.553 146.657 311.025 146.532V149.447Z" fill="#545454"/>
<circle cx="331.5" cy="146" r="9.16667" fill="#FFC633"/>
<path fill-rule="evenodd" clip-rule="evenodd" d="M326.954 147.629C327.238 147.378 327.712 147.366 328.014 147.603C328.843 148.253 330.085 148.683 331.5 148.683C332.915 148.683 334.157 148.253 334.986 147.603C335.288 147.366 335.762 147.378 336.046 147.629C336.33 147.881 336.316 148.276 336.014 148.513C334.889 149.395 333.271 149.933 331.5 149.933C329.729 149.933 328.111 149.395 326.986 148.513C326.684 148.276 326.67 147.881 326.954 147.629Z" fill="#FD6666"/>
<path d="M329.416 143.5C328.956 143.5 328.583 143.873 328.583 144.333C328.583 144.794 328.956 145.167 329.416 145.167H329.425C329.885 145.167 330.258 144.794 330.258 144.333C330.258 143.873 329.885 143.5 329.425 143.5H329.416Z" fill="#121212"/>
<path d="M333.583 143.5C333.123 143.5 332.75 143.873 332.75 144.333C332.75 144.794 333.123 145.167 333.583 145.167H333.591C334.052 145.167 334.425 144.794 334.425 144.333C334.425 143.873 334.052 143.5 333.591 143.5H333.583Z" fill="#121212"/>
<path d="M16.0122 165.46C15.9976 167.855 17.4478 170.272 19.4839 171.173L18.6489 172.271C17.1401 171.554 15.9463 170.082 15.3311 168.287C14.7231 170.213 13.5146 171.795 11.9399 172.564L11.0903 171.393C13.1558 170.477 14.606 167.965 14.606 165.46V163.219H16.0122V165.46ZM20.6704 175.274V162.12H22.062V175.274H20.6704ZM28.7417 164.479C28.7344 166.156 29.8989 167.745 31.9058 168.419L31.2026 169.503C29.7158 168.99 28.6245 167.965 28.0532 166.676C27.4819 168.089 26.3394 169.21 24.8013 169.752L24.0542 168.668C26.105 167.972 27.3428 166.273 27.3501 164.464V164.112H24.4644V162.984H31.5688V164.112H28.7417V164.479ZM25.7974 171.803V170.675H34.4692V175.245H33.0776V171.803H25.7974ZM33.0776 170.03V162.12H34.4692V165.489H36.3735V166.661H34.4692V170.03H33.0776ZM47.9897 162.12V175.274H46.5981V162.12H47.9897ZM37.5747 167.701C37.5747 164.896 38.9883 163.109 40.9731 163.102C42.9214 163.109 44.3569 164.896 44.3569 167.701C44.3569 170.536 42.9214 172.323 40.9731 172.315C38.9883 172.323 37.5747 170.536 37.5747 167.701ZM38.9224 167.701C38.915 169.789 39.75 171.07 40.9731 171.07C42.1743 171.07 43.0093 169.789 43.0093 167.701C43.0093 165.643 42.1743 164.354 40.9731 164.347C39.75 164.354 38.915 165.643 38.9224 167.701ZM57.3062 163.102C59.0933 163.109 60.3896 164.618 60.6021 167.042H63.312V162.12H64.689V175.274H63.312V168.17H60.6167C60.4629 170.733 59.1372 172.323 57.3062 172.315C55.3506 172.323 53.9663 170.536 53.981 167.701C53.9663 164.896 55.3506 163.109 57.3062 163.102ZM55.2993 167.701C55.3066 169.789 56.1196 171.07 57.3062 171.07C58.4927 171.07 59.3057 169.789 59.313 167.701C59.3057 165.643 58.4927 164.354 57.3062 164.347C56.1196 164.354 55.3066 165.643 55.2993 167.701ZM77.6528 162.135V169.459H76.2612V167.438H73.8003V166.31H76.2612V164.874H73.8003V163.746H76.2612V162.135H77.6528ZM67.2378 163.819V162.691H72.9653V166.354H68.6294V167.965C70.8999 167.95 72.145 167.921 73.6538 167.657L73.771 168.8C72.145 169.071 70.8047 169.1 68.2046 169.107H67.2524V165.299H71.5737V163.819H67.2378ZM68.9956 175.084V169.986H70.3872V171.393H76.2759V169.986H77.6528V175.084H68.9956ZM70.3872 173.956H76.2759V172.491H70.3872V173.956ZM89.8989 162.12V167.203H92.0083V168.346H89.8989V175.274H88.5073V162.12H89.8989ZM80.231 172.008V163.38H86.3687V164.508H81.6226V170.851C83.8271 170.843 85.4751 170.748 87.3501 170.411L87.5259 171.583C85.4678 171.949 83.7246 172.015 81.2856 172.008H80.231ZM99.3325 163.233V164.347H102.189V162.135H103.581V171.7H102.189V168.302H99.3325V169.444H93.2388V163.233H99.3325ZM94.6157 168.346H97.9702V164.361H94.6157V168.346ZM95.0112 174.967V170.821H96.4175V173.839H103.874V174.967H95.0112ZM99.3325 167.159H102.189V165.489H99.3325V167.159ZM113.864 164.83C113.864 166.346 115.05 167.752 117.057 168.331L116.413 169.415C114.896 168.976 113.776 168.045 113.19 166.852C112.611 168.163 111.469 169.181 109.909 169.664L109.235 168.58C111.242 167.987 112.487 166.493 112.487 164.83V164.698H109.63V163.585H112.487V162.062H113.878V163.585H116.72V164.698H113.864V164.83ZM111.198 175.084V170.455H119.577V175.084H111.198ZM112.56 173.956H118.2V171.554H112.56V173.956ZM118.185 169.869V162.12H119.577V165.372H121.481V166.529H119.577V169.869H118.185ZM132.848 163.38V164.669C132.841 166.288 132.841 168.104 132.35 170.792L130.944 170.646C131.449 168.104 131.449 166.244 131.457 164.669V164.508H123.488V163.38H132.848ZM122.228 173.473V172.315H126.784V167.687H128.161V172.315H134.196V173.473H122.228ZM145.417 162.12V167.438H147.526V168.595H145.417V175.245H144.04V162.12H145.417ZM135.119 165.313V164.171H138.356V162.296H139.748V164.171H142.897V165.313H135.119ZM135.792 169.327C135.792 167.54 137.169 166.28 139.059 166.28C140.941 166.28 142.318 167.54 142.326 169.327C142.318 171.129 140.941 172.381 139.059 172.389C137.169 172.381 135.792 171.129 135.792 169.327ZM137.125 169.327C137.118 170.47 137.938 171.231 139.059 171.217C140.172 171.231 140.985 170.47 140.993 169.327C140.985 168.207 140.172 167.43 139.059 167.423C137.938 167.43 137.118 168.207 137.125 169.327ZM158.776 165.958V167.071H149.738V162.589H151.115V165.958H158.776ZM148.141 169.84V168.727H160.153V169.84H148.141ZM149.635 174.938V171.085H151.027V173.795H158.864V174.938H149.635ZM170.451 162.896V164.024H166.657V165.357H170.304V166.427H166.657V167.877C168.415 167.862 169.564 167.796 170.919 167.54L171.051 168.683C169.513 168.939 168.261 168.998 166.173 169.005H165.324V162.896H170.451ZM167.213 175.084V170.089H168.59V171.407H174.611V170.089H175.973V175.084H167.213ZM168.59 173.956H174.611V172.521H168.59V173.956ZM171.74 169.474V162.369H173.043V165.226H174.655V162.135H175.973V169.576H174.655V166.368H173.043V169.474H171.74ZM189.04 162.12V175.245H187.707V162.12H189.04ZM177.892 167.789C177.892 164.947 179.005 163.167 180.719 163.175C182.316 163.167 183.393 164.684 183.554 167.145H185.041V162.369H186.374V174.601H185.041V168.272H183.561C183.437 170.836 182.345 172.425 180.719 172.418C179.005 172.425 177.892 170.638 177.892 167.789ZM179.181 167.789C179.181 169.876 179.774 171.107 180.719 171.1C181.686 171.107 182.287 169.876 182.287 167.789C182.287 165.694 181.686 164.471 180.719 164.479C179.774 164.471 179.181 165.694 179.181 167.789ZM195.441 165.46C195.441 167.862 196.789 170.257 198.795 171.158L197.946 172.271C196.459 171.524 195.331 170.045 194.752 168.25C194.174 170.14 193.031 171.737 191.515 172.521L190.636 171.393C192.672 170.418 194.027 167.892 194.035 165.46V163.219H195.441V165.46ZM197.345 167.613V166.485H200.275V162.12H201.652V175.274H200.275V167.613H197.345ZM212.917 162.955V164.098H209.254V165.519H212.404V166.603H209.254V168.17C210.99 168.155 212.125 168.089 213.473 167.848L213.605 168.946C212.096 169.232 210.844 169.283 208.771 169.283H207.921V162.955H212.917ZM209.752 175.084V170.587H218.527V175.084H209.752ZM211.144 173.956H217.165V171.686H211.144V173.956ZM213.004 166.5V165.372H214.63V162.34H215.949V169.898H214.63V166.5H213.004ZM217.208 170.001V162.12H218.527V170.001H217.208ZM231.139 162.516V163.57H229.235V165.841H231.081V166.91H221.457V165.841H223.317V163.57H221.398V162.516H231.139ZM220.299 168.976V167.877H232.267V168.976H220.299ZM221.735 171.041V170.001H230.758V173.004H223.112V174.059H231.125V175.113H221.75V172.022H229.381V171.041H221.735ZM224.694 165.841H227.843V163.57H224.694V165.841ZM244.132 162.12V171.026H242.755V162.12H244.132ZM233.922 164.098V162.955H239.958V166.749H235.314V168.478C237.724 168.47 239.372 168.39 241.32 168.067L241.466 169.181C239.401 169.54 237.658 169.613 235.05 169.62H233.952V165.68H238.581V164.098H233.922ZM234.713 174.117C237.204 173.758 239.086 172.396 239.093 170.675V170.353H240.543V170.675C240.529 172.389 242.396 173.758 244.894 174.117L244.381 175.201C242.316 174.857 240.595 173.897 239.811 172.477C239.013 173.905 237.292 174.864 235.241 175.201L234.713 174.117ZM252.204 162.34C255.163 162.333 256.884 163.131 256.891 164.596C256.884 166.068 255.163 166.866 252.204 166.866C249.245 166.866 247.509 166.068 247.516 164.596C247.509 163.131 249.245 162.333 252.204 162.34ZM246.227 168.785V167.672H258.195V168.785H246.227ZM247.663 170.836V169.796H256.686V172.872H249.04V174.044H257.052V175.113H247.677V171.861H255.309V170.836H247.663ZM248.966 164.596C248.959 165.409 250.116 165.826 252.204 165.826C254.306 165.826 255.463 165.409 255.456 164.596C255.463 163.819 254.306 163.365 252.204 163.365C250.116 163.365 248.959 163.819 248.966 164.596ZM273.18 162.135V166.031H275.055V167.174H273.18V170.968H271.789V162.135H273.18ZM262.765 169.503C263.783 169.503 264.962 169.503 266.193 169.474V168.587C264.699 168.419 263.747 167.716 263.761 166.661C263.747 165.46 264.999 164.713 266.881 164.728C268.764 164.713 269.994 165.46 270.001 166.661C269.994 167.708 269.064 168.412 267.584 168.587V169.422C268.756 169.364 269.943 169.269 271.042 169.107L271.159 170.104C268.339 170.594 265.226 170.616 262.912 170.616L262.765 169.503ZM263.102 164.288V163.248H266.193V162.018H267.584V163.248H270.675V164.288H263.102ZM264.406 172.667V171.583H273.18V175.245H271.789V172.667H264.406ZM265.08 166.661C265.08 167.276 265.761 167.679 266.881 167.672C267.987 167.679 268.676 167.276 268.668 166.661C268.676 166.031 267.987 165.665 266.881 165.68C265.761 165.665 265.08 166.031 265.08 166.661ZM286.701 162.135V171.671H285.309V162.135H286.701ZM276.081 166.266C276.088 164.369 277.597 163.021 279.582 163.014C281.559 163.021 283.068 164.369 283.068 166.266C283.068 168.192 281.559 169.532 279.582 169.532C277.597 169.532 276.088 168.192 276.081 166.266ZM277.443 166.266C277.436 167.503 278.358 168.316 279.582 168.316C280.783 168.316 281.706 167.503 281.706 166.266C281.706 165.057 280.783 164.229 279.582 164.229C278.358 164.229 277.436 165.057 277.443 166.266ZM278.117 174.967V170.704H279.523V173.839H287.096V174.967H278.117ZM295.27 164.288V165.416H288.751V164.288H291.33V162.501H292.707V164.288H295.27ZM289.176 169.225C289.169 167.459 290.37 166.207 292.018 166.207C293.681 166.207 294.867 167.459 294.875 169.225C294.867 171.019 293.681 172.279 292.018 172.271C290.37 172.279 289.169 171.019 289.176 169.225ZM290.407 169.225C290.399 170.338 291.073 171.085 292.018 171.085C292.963 171.085 293.644 170.338 293.644 169.225C293.644 168.133 292.963 167.372 292.018 167.364C291.073 167.372 290.399 168.133 290.407 169.225ZM295.871 174.63V162.413H297.189V167.584H298.698V162.12H300.016V175.245H298.698V168.727H297.189V174.63H295.871ZM303.825 163.189V165.079H307.663V163.189H309.04V169.137H306.432V171.378C307.582 171.327 308.732 171.239 309.801 171.1L309.904 172.125C307.128 172.586 304.074 172.616 301.803 172.623L301.583 171.466C302.616 171.458 303.817 171.458 305.055 171.422V169.137H302.433V163.189H303.825ZM303.825 168.023H307.663V166.134H303.825V168.023ZM310.592 175.245V162.12H311.984V167.54H314.005V168.712H311.984V175.245H310.592ZM326.72 172.447V173.604H314.708V172.447H317.58V169.02C316.503 168.426 315.844 167.489 315.851 166.31C315.844 164.244 317.873 162.889 320.685 162.882C323.505 162.889 325.534 164.244 325.534 166.31C325.534 167.467 324.904 168.397 323.849 168.99V172.447H326.72ZM317.199 166.31C317.199 167.716 318.627 168.631 320.685 168.639C322.729 168.631 324.179 167.716 324.186 166.31C324.179 164.896 322.729 163.995 320.685 163.995C318.627 163.995 317.199 164.896 317.199 166.31ZM318.957 172.447H322.443V169.532C321.908 169.657 321.315 169.723 320.685 169.723C320.07 169.723 319.484 169.657 318.957 169.532V172.447ZM330.089 163.395L329.958 170.938H328.507L328.375 163.395H330.089ZM328.2 173.062C328.192 172.491 328.668 172.022 329.24 172.022C329.804 172.022 330.272 172.491 330.28 173.062C330.272 173.634 329.804 174.095 329.24 174.103C328.668 174.095 328.192 173.634 328.2 173.062Z" fill="#545454"/>
</svg>