<svg width="567" height="196" viewBox="0 0 567 196" fill="none" xmlns="http://www.w3.org/2000/svg">
<path d="M0 35.36C0 32.6467 2.19963 30.447 4.91301 30.447H17.1956C19.9089 30.447 22.1086 32.6467 22.1086 35.36V47.6426C22.1086 50.356 19.9089 52.5556 17.1956 52.5556H4.91301C2.19963 52.5556 0 50.356 0 47.6426V35.36Z" fill="#4C94FF"/>
<path d="M22.1094 35.36C22.1094 32.6467 24.309 30.447 27.0224 30.447H39.3049C42.0183 30.447 44.2179 32.6467 44.2179 35.36V47.6426C44.2179 50.356 42.0183 52.5556 39.3049 52.5556H27.0224C24.309 52.5556 22.1094 50.356 22.1094 47.6426V35.36Z" fill="#FFC633"/>
<path d="M0 57.4686C0 54.7552 2.19963 52.5555 4.91301 52.5555H17.1956C19.9089 52.5555 22.1086 54.7552 22.1086 57.4686V69.7511C22.1086 72.4645 19.9089 74.6641 17.1956 74.6641H4.91301C2.19963 74.6641 0 72.4645 0 69.7511V57.4686Z" fill="#33D486"/>
<path d="M27.0224 52.5555C24.309 52.5555 22.1094 54.7552 22.1094 57.4686V77.6569C22.1094 78.307 22.8305 78.6979 23.3752 78.343L29.0219 74.6641H39.3049C42.0183 74.6641 44.2179 72.4645 44.2179 69.7511V57.4686C44.2179 54.7552 42.0183 52.5555 39.3049 52.5555H27.0224Z" fill="#1C1C1C"/>
<path d="M105.273 69.889C105.273 69.6628 105.457 69.4795 105.683 69.4795H122.829C123.055 69.4795 123.239 69.2962 123.239 69.0701V62.7978C123.239 62.5717 123.055 62.3884 122.829 62.3884H108.483C108.257 62.3884 108.074 62.2051 108.074 61.979V45.6187C108.074 45.3926 108.257 45.2093 108.483 45.2093H138.387C138.613 45.2093 138.797 45.026 138.797 44.7998V40.2635C138.797 40.0374 138.613 39.8541 138.387 39.8541H108.483C108.257 39.8541 108.074 39.6708 108.074 39.4447V34.3024C108.074 34.0762 108.257 33.8929 108.483 33.8929H144.84C145.066 33.8929 145.249 34.0762 145.249 34.3024V50.6136C145.249 50.8397 145.066 51.023 144.84 51.023H114.985C114.759 51.023 114.575 51.2063 114.575 51.4324V56.0179C114.575 56.244 114.759 56.4273 114.985 56.4273H145.478C145.704 56.4273 145.888 56.6106 145.888 56.8367V61.979C145.888 62.2051 145.704 62.3884 145.478 62.3884H130.248C130.022 62.3884 129.839 62.5717 129.839 62.7978V69.0701C129.839 69.2962 130.022 69.4795 130.248 69.4795H147.591C147.817 69.4795 148 69.6628 148 69.889V75.1786C148 75.4048 147.817 75.5881 147.591 75.5881H105.683C105.457 75.5881 105.273 75.4048 105.273 75.1786V69.889Z" fill="#1C1C1C"/>
<path d="M103.731 55.9687C103.957 55.9687 104.14 55.7854 104.14 55.5593V50.0731C104.14 49.847 103.957 49.6637 103.731 49.6637H97.4259C97.1998 49.6637 97.0165 49.4804 97.0165 49.2543V33.4835C97.0165 33.2574 96.8332 33.0741 96.6071 33.0741H90.9244C90.6983 33.0741 90.515 33.2574 90.515 33.4835V75.4407C90.515 75.6668 90.6983 75.8501 90.9244 75.8501H96.6071C96.8332 75.8501 97.0165 75.6668 97.0165 75.4407V56.3782C97.0165 56.152 97.1998 55.9687 97.4259 55.9687H103.731Z" fill="#1C1C1C"/>
<path fill-rule="evenodd" clip-rule="evenodd" d="M84.7504 34.7118C84.7504 34.4857 84.5671 34.3024 84.3409 34.3024H78.7074C78.4812 34.3024 78.2979 34.4857 78.2979 34.7118V47.9278C78.2979 48.1539 78.1146 48.3372 77.8885 48.3372H65.8189C65.5928 48.3372 65.4095 48.1539 65.4095 47.9278V34.7118C65.4095 34.4857 65.2262 34.3024 65 34.3024H59.3664C59.1403 34.3024 58.957 34.4857 58.957 34.7118V73.3444C58.957 73.5706 59.1403 73.7539 59.3664 73.7539H84.3409C84.5671 73.7539 84.7504 73.5706 84.7504 73.3444V34.7118ZM65.4095 54.8551C65.4095 54.629 65.5928 54.4457 65.8189 54.4457H77.8885C78.1146 54.4457 78.2979 54.629 78.2979 54.8551V67.2359C78.2979 67.462 78.1146 67.6453 77.8885 67.6453H65.8189C65.5928 67.6453 65.4095 67.462 65.4095 67.2359V54.8551Z" fill="#1C1C1C"/>
<path d="M17.1133 123.312V125.09H0.980469V123.312H4.71094V118.85C3.30469 118.039 2.45508 116.77 2.46484 115.207C2.45508 112.395 5.20898 110.539 9.00781 110.539C12.8262 110.539 15.5996 112.395 15.5898 115.207C15.5996 116.75 14.7695 117.99 13.4023 118.801V123.312H17.1133ZM4.59375 115.207C4.58398 117.014 6.37109 118.166 9.00781 118.156C11.6348 118.166 13.4609 117.014 13.4609 115.207C13.4609 113.371 11.6348 112.248 9.00781 112.258C6.37109 112.248 4.58398 113.371 4.59375 115.207ZM6.85938 123.312H11.1953V119.631C10.5215 119.777 9.78906 119.855 9.00781 119.855C8.24609 119.855 7.52344 119.777 6.85938 119.641V123.312ZM24.1133 113.352C24.1035 115.285 25.6172 117.189 28.3906 117.941L27.375 119.621C25.3438 119.064 23.8789 117.883 23.0684 116.35C22.2969 118.078 20.832 119.445 18.7227 120.07L17.707 118.391C20.4707 117.551 21.9453 115.48 21.9453 113.352V113.254H18.2539V111.535H21.9453V109.504H24.1328V111.535H27.8047V113.254H24.1133V113.352ZM20.5781 123.898C20.5586 121.799 22.8633 120.617 26.5742 120.617C30.3047 120.617 32.5996 121.799 32.6094 123.898C32.5996 125.998 30.3047 127.219 26.5742 127.219C22.8633 127.219 20.5586 125.998 20.5781 123.898ZM22.7266 123.898C22.7168 124.943 24.123 125.539 26.5742 125.539C29.0742 125.539 30.4414 124.943 30.4414 123.898C30.4414 122.844 29.0742 122.287 26.5742 122.277C24.123 122.287 22.7168 122.844 22.7266 123.898ZM27.2773 116.184V114.426H30.3828V109.582H32.5508V120.266H30.3828V116.184H27.2773ZM48.3789 109.582V116.613H51.0938V118.41H48.3789V127.238H46.2305V109.582H48.3789ZM34.4531 114.035V112.297H38.6328V109.836H40.8008V112.297H44.8633V114.035H34.4531ZM35.2734 119.348C35.2539 116.906 37.1484 115.178 39.7266 115.188C42.2656 115.178 44.1504 116.906 44.1602 119.348C44.1504 121.779 42.2656 123.488 39.7266 123.488C37.1484 123.488 35.2539 121.779 35.2734 119.348ZM37.3438 119.348C37.334 120.783 38.3398 121.701 39.7266 121.691C41.084 121.701 42.0703 120.783 42.0898 119.348C42.0703 117.912 41.084 116.965 39.7266 116.965C38.3398 116.965 37.334 117.912 37.3438 119.348ZM66.043 109.602V122.492H63.8555V109.602H66.043ZM51.3555 118.332C54.2168 117.326 55.6816 114.836 55.6719 112.297V110.578H57.918V112.297C57.9082 114.758 59.3535 117.082 62.1562 118.02L61.043 119.738C59.0312 119.035 57.5957 117.629 56.8145 115.822C56.0332 117.756 54.5684 119.299 52.4883 120.051L51.3555 118.332ZM54.3633 126.887V121.262H56.5508V125.129H66.5312V126.887H54.3633ZM87.6992 109.582V127.238H85.6289V109.582H87.6992ZM72.1719 121.281H73.7734V113.43H72.5234V111.672H80.6094V113.43H79.3594V121.047C79.916 120.998 80.4434 120.939 80.9414 120.871L81.0781 122.453C78.2949 123.02 74.6621 123.088 72.4258 123.078L72.1719 121.281ZM75.7266 121.242C76.2637 121.232 76.8203 121.213 77.3672 121.184V113.43H75.7266V121.242ZM80.1602 118.039V116.105H82.1133V109.953H84.1836V126.359H82.1133V118.039H80.1602ZM103.84 109.582V127.258H101.652V109.582H103.84ZM89.7188 117.102C89.709 113.293 91.6523 110.871 94.3281 110.871C96.9746 110.871 98.9277 113.293 98.9375 117.102C98.9277 120.939 96.9746 123.352 94.3281 123.352C91.6523 123.352 89.709 120.939 89.7188 117.102ZM91.8086 117.102C91.8086 119.816 92.834 121.389 94.3281 121.398C95.8125 121.389 96.8281 119.816 96.8281 117.102C96.8281 114.406 95.8125 112.824 94.3281 112.824C92.834 112.824 91.8086 114.406 91.8086 117.102ZM112.598 114.602C112.598 117.492 114.297 120.539 117.148 121.73L115.957 123.449C113.867 122.541 112.344 120.695 111.533 118.449C110.723 120.871 109.17 122.902 107.109 123.879L105.859 122.18C108.643 120.891 110.381 117.6 110.391 114.602V113.117H106.504V111.32H116.465V113.117H112.598V114.602ZM118.438 127.238V109.582H120.625V127.238H118.438ZM138.836 117.59V119.23H122.703V117.59H138.836ZM124.578 121.809V120.285H136.883V124.309H126.766V125.539H137.41V127.043H124.598V122.902H134.734V121.809H124.578ZM124.695 111.477V109.973H136.844V113.957H126.902V115.109H137.156V116.594H124.754V112.551H134.676V111.477H124.695ZM150.102 113.195C150.092 115.09 151.527 116.945 154.301 117.688L153.324 119.348C151.283 118.801 149.828 117.629 149.037 116.125C148.256 117.785 146.771 119.074 144.691 119.68L143.656 117.961C146.439 117.209 147.934 115.266 147.934 113.195V113.137H144.242V111.418H147.934V109.504H150.121V111.418H153.793V113.137H150.102V113.195ZM145.395 125.5C148.422 125.09 150.385 123.762 150.805 122.258H146.117V120.52H157.934V122.258H153.266C153.686 123.723 155.658 125.1 158.676 125.52L157.895 127.18C155.131 126.789 153.041 125.607 152.025 124.006C151.01 125.598 148.93 126.75 146.195 127.141L145.395 125.5ZM155.512 119.699V109.582H157.68V113.684H160.141V115.48H157.68V119.699H155.512ZM168.566 109.855C172.59 109.865 174.924 110.93 174.934 112.883C174.924 114.855 172.59 115.92 168.566 115.93C164.553 115.92 162.199 114.855 162.199 112.883C162.199 110.93 164.553 109.865 168.566 109.855ZM160.539 118.605V116.867H176.633V118.605H160.539ZM162.434 121.398V119.797H174.621V124.113H164.582V125.422H175.109V127.082H162.453V122.57H172.492V121.398H162.434ZM164.484 112.883C164.475 113.859 165.881 114.309 168.566 114.309C171.291 114.309 172.688 113.859 172.688 112.883C172.688 111.975 171.291 111.457 168.566 111.457C165.881 111.457 164.475 111.975 164.484 112.883ZM190.77 111.047C190.76 113.264 193.25 115.52 197.02 116.008L196.16 117.766C193.162 117.316 190.779 115.842 189.627 113.85C188.475 115.842 186.102 117.316 183.133 117.766L182.273 116.008C186.004 115.52 188.484 113.283 188.484 111.047V110.148H190.77V111.047ZM181.57 121.086V119.289H197.664V121.086H190.652V127.238H188.504V121.086H181.57ZM206.605 119.914V121.809H208.93V119.914H210.941V125.52C213.021 124.641 213.969 122.873 213.969 121.184V119.777H216.137V121.184C216.127 123.01 217.084 124.797 219.262 125.539L218.148 127.16C216.586 126.594 215.59 125.529 215.033 124.191C214.447 125.49 213.441 126.574 211.977 127.16L210.941 125.627V127.023H204.574V119.914H206.605ZM202.836 114.406C202.836 111.994 204.799 110.295 207.504 110.305C209.779 110.295 211.576 111.574 212.025 113.488H215.219V109.582H217.387V118.938H215.219V115.285H212.035C211.605 117.248 209.799 118.547 207.504 118.547C204.799 118.547 202.836 116.857 202.836 114.406ZM204.906 114.406C204.906 115.832 205.98 116.77 207.504 116.77C208.988 116.77 210.053 115.832 210.062 114.406C210.053 113.01 208.988 112.092 207.504 112.102C205.98 112.092 204.906 113.01 204.906 114.406ZM206.605 125.363H208.93V123.43H206.605V125.363ZM223.469 120.168V121.848H231.242V120.168H233.41V127.023H221.32V120.168H223.469ZM219.387 119.172V117.395H235.48V119.172H219.387ZM220.207 114.758C223.898 114.299 226.311 112.404 226.32 110.441V109.777H228.547V110.441C228.547 112.346 230.969 114.328 234.621 114.758L233.859 116.477C230.9 116.076 228.566 114.758 227.434 112.971C226.291 114.768 223.947 116.076 221.008 116.477L220.207 114.758ZM223.469 125.305H231.242V123.508H223.469V125.305ZM250.898 109.582V127.238H248.75V109.582H250.898ZM237.188 122.805V111.301H239.336V120.949C241.807 120.91 244.443 120.695 247.168 120.148L247.441 121.965C244.336 122.609 241.455 122.814 238.711 122.805H237.188ZM266.785 109.582V116.281H269.5V118.059H266.785V127.258H264.617V109.582H266.785ZM253.68 122.941V111.262H261.941V113.02H255.848V121.125C258.592 121.115 260.77 120.979 263.191 120.559L263.445 122.395C260.701 122.863 258.328 122.941 255.145 122.941H253.68ZM271.891 125.656C271.051 125.656 270.357 124.973 270.367 124.133C270.357 123.312 271.051 122.639 271.891 122.629C272.701 122.639 273.395 123.312 273.395 124.133C273.395 124.973 272.701 125.656 271.891 125.656Z" fill="#121212"/>
<path d="M12.7852 145.093V153.006H11.482V145.093H12.7852ZM0.939227 149.202C0.939227 147.182 2.57113 145.797 4.81354 145.809C7.05594 145.797 8.6761 147.182 8.6761 149.202C8.6761 151.209 7.05594 152.595 4.81354 152.583C2.57113 152.595 0.939227 151.209 0.939227 149.202ZM2.21892 149.202C2.20718 150.552 3.29903 151.503 4.81354 151.503C6.3163 151.503 7.40815 150.552 7.40815 149.202C7.40815 147.852 6.3163 146.901 4.81354 146.912C3.29903 146.901 2.20718 147.852 2.21892 149.202ZM3.22859 159.651V153.757H4.50829V155.553H11.4938V153.757H12.7852V159.651H3.22859ZM4.50829 158.582H11.4938V156.598H4.50829V158.582ZM21.9884 145.997V150.141H16.9166V152.43C19.6873 152.43 21.1255 152.372 22.8572 152.055L22.9863 153.135C21.1548 153.44 19.6521 153.487 16.67 153.487H15.6251V149.131H20.6969V147.053H15.5899V145.997H21.9884ZM17.2805 156.035V154.966H27.2246V159.874H25.9214V156.035H17.2805ZM22.9746 151.421V150.352H25.9214V148.356H22.9746V147.3H25.9214V145.104H27.2246V154.168H25.9214V151.421H22.9746ZM40.8069 145.093V151.174H43.2723V152.266H40.8069V159.85H39.5154V145.093H40.8069ZM29.3013 148.544V147.464H33.0935V145.269H34.3966V147.464H38.0831V148.544H29.3013ZM30.1466 153.158C30.1349 151.162 31.6611 149.765 33.7627 149.765C35.8524 149.765 37.3669 151.162 37.3787 153.158C37.3669 155.154 35.8524 156.539 33.7627 156.539C31.6611 156.539 30.1349 155.154 30.1466 153.158ZM31.3911 153.158C31.3794 154.497 32.389 155.448 33.7627 155.436C35.1245 155.448 36.1225 154.497 36.1342 153.158C36.1225 151.82 35.1245 150.857 33.7627 150.857C32.389 150.857 31.3794 151.82 31.3911 153.158ZM55.9624 145.104V155.929H54.6592V145.104H55.9624ZM43.9285 152.771C46.1592 151.902 47.6737 149.742 47.6737 147.405V145.926H49.0004V147.405C48.9886 149.66 50.5266 151.679 52.722 152.477L52.0411 153.522C50.3329 152.859 49.0004 151.532 48.3488 149.83C47.7089 151.644 46.3705 153.094 44.6447 153.792L43.9285 152.771ZM46.4292 159.521V154.931H47.7324V158.441H56.4202V159.521H46.4292ZM69.59 147.171C69.5783 149.155 72.2081 150.834 74.791 151.209L74.2979 152.242C71.9968 151.849 69.7544 150.622 68.8562 148.849C67.9581 150.622 65.7098 151.849 63.4381 152.242L62.9332 151.209C65.4926 150.834 68.1225 149.155 68.1342 147.171V147.077H63.4028V146.02H74.2979V147.077H69.59V147.171ZM62.1349 154.579V153.499H75.5893V154.579H69.4726V159.838H68.1929V154.579H62.1349ZM90.0404 156.833V157.913H76.5273V156.833H82.5735V153.229H83.8532V156.833H90.0404ZM77.0556 152.313C79.6385 151.867 82.5148 149.706 82.5266 147.229V146.09H83.8885V147.229C83.8885 149.695 86.8001 151.867 89.3829 152.313L88.7959 153.393C86.5476 152.923 84.1761 151.403 83.2134 149.278C82.2448 151.397 79.8909 152.923 77.6426 153.393L77.0556 152.313ZM102.343 145.093V151.092H104.738V152.195H102.343V159.838H101.04V145.093H102.343ZM91.0136 156.011C94.8292 154.115 96.9072 151.274 97.2007 147.769H91.7063V146.677H98.5274C98.5157 150.857 96.555 154.661 91.7415 157.032L91.0136 156.011ZM121.512 145.093V153.886H120.209V150.023H117.227V148.943H120.209V145.093H121.512ZM109.337 152.712C111.533 151.914 113.094 149.918 113.094 147.805V147.253H109.76V146.173H117.708V147.253H114.409V147.793C114.409 149.718 115.888 151.55 118.049 152.289L117.368 153.334C115.706 152.735 114.421 151.497 113.781 149.977C113.147 151.702 111.779 153.082 110.018 153.745L109.337 152.712ZM111.674 157.091C111.662 155.354 113.54 154.344 116.616 154.344C119.681 154.344 121.559 155.354 121.559 157.091C121.559 158.829 119.681 159.827 116.616 159.838C113.54 159.827 111.662 158.829 111.674 157.091ZM112.965 157.091C112.953 158.16 114.35 158.805 116.616 158.794C118.87 158.805 120.268 158.16 120.268 157.091C120.268 156.011 118.87 155.365 116.616 155.365C114.35 155.365 112.953 156.011 112.965 157.091ZM135.188 145.104V149.566H137.395V150.657H135.188V154.99H133.885V145.104H135.188ZM123.601 153.487C124.78 153.487 126.16 153.487 127.604 153.44V152.354C125.884 152.201 124.775 151.409 124.786 150.188C124.775 148.838 126.16 148.004 128.238 148.016C130.328 148.004 131.69 148.838 131.701 150.188C131.69 151.397 130.615 152.19 128.907 152.354V153.393C130.287 153.323 131.678 153.211 132.969 153.017L133.075 153.968C129.882 154.532 126.348 154.555 123.753 154.555L123.601 153.487ZM123.976 147.441V146.443H127.604V144.975H128.907V146.443H132.523V147.441H123.976ZM125.42 156.774V155.729H135.188V159.85H133.885V156.774H125.42ZM126.031 150.188C126.019 150.951 126.876 151.479 128.238 151.468C129.6 151.479 130.457 150.951 130.457 150.188C130.457 149.401 129.6 148.92 128.238 148.932C126.876 148.92 126.019 149.401 126.031 150.188ZM149.604 145.104V149.965H151.823V151.068H149.604V156.164H148.301V145.104H149.604ZM138.099 147.981V146.912H141.856V145.104H143.147V146.912H146.892V147.981H138.099ZM138.944 151.55C138.932 149.871 140.365 148.791 142.501 148.791C144.603 148.791 146.035 149.871 146.047 151.55C146.035 153.205 144.603 154.273 142.501 154.273C140.365 154.273 138.932 153.205 138.944 151.55ZM140.188 151.55C140.177 152.583 141.104 153.252 142.501 153.24C143.875 153.252 144.802 152.583 144.814 151.55C144.802 150.493 143.875 149.812 142.501 149.812C141.104 149.812 140.177 150.493 140.188 151.55ZM140.365 159.521V155.271H141.656V158.441H150.285V159.521H140.365ZM157.739 149.624C157.739 152.125 159.559 154.673 161.731 155.612L161.003 156.645C159.277 155.858 157.792 154.162 157.099 152.125C156.406 154.285 154.915 156.164 153.231 157.009L152.456 155.976C154.569 154.966 156.412 152.172 156.424 149.624V147.699H152.937V146.607H161.249V147.699H157.739V149.624ZM163.316 159.85V145.093H164.619V159.85H163.316ZM182.238 145.093V150.927H184.704V152.019H182.238V159.874H180.935V145.093H182.238ZM171.46 156.175V146.537H178.352V147.605H172.764V155.072C175.435 155.066 177.325 154.96 179.514 154.555L179.679 155.682C177.366 156.093 175.429 156.175 172.623 156.175H171.46ZM190.455 149.061C190.443 151.749 192.275 154.461 194.447 155.448L193.648 156.481C191.97 155.659 190.52 153.91 189.815 151.808C189.134 154.033 187.678 155.905 185.947 156.774L185.125 155.682C187.32 154.673 189.14 151.855 189.152 149.061V146.372H190.455V149.061ZM196.067 159.874V145.093H197.37V159.874H196.067ZM215.107 145.104V149.965H217.326V151.068H215.107V156.164H213.804V145.104H215.107ZM203.601 147.981V146.912H207.358V145.104H208.65V146.912H212.395V147.981H203.601ZM204.447 151.55C204.435 149.871 205.867 148.791 208.004 148.791C210.105 148.791 211.538 149.871 211.55 151.55C211.538 153.205 210.105 154.273 208.004 154.273C205.867 154.273 204.435 153.205 204.447 151.55ZM205.691 151.55C205.679 152.583 206.607 153.252 208.004 153.24C209.378 153.252 210.305 152.583 210.317 151.55C210.305 150.493 209.378 149.812 208.004 149.812C206.607 149.812 205.679 150.493 205.691 151.55ZM205.867 159.521V155.271H207.159V158.441H215.788V159.521H205.867ZM230.192 145.104V156.023H228.889V150.34H225.402V153.499H218.698V146.079H220.001V148.709H224.11V146.079H225.402V149.26H228.889V145.104H230.192ZM220.001 152.43H224.11V149.73H220.001V152.43ZM220.647 159.521V154.954H221.962V158.441H230.532V159.521H220.647ZM247.835 145.104V149.566H250.042V150.657H247.835V154.99H246.532V145.104H247.835ZM236.247 153.487C237.427 153.487 238.806 153.487 240.251 153.44V152.354C238.531 152.201 237.421 151.409 237.433 150.188C237.421 148.838 238.806 148.004 240.884 148.016C242.974 148.004 244.336 148.838 244.348 150.188C244.336 151.397 243.262 152.19 241.554 152.354V153.393C242.933 153.323 244.324 153.211 245.616 153.017L245.722 153.968C242.528 154.532 238.994 154.555 236.4 154.555L236.247 153.487ZM236.623 147.441V146.443H240.251V144.975H241.554V146.443H245.17V147.441H236.623ZM238.067 156.774V155.729H247.835V159.85H246.532V156.774H238.067ZM238.677 150.188C238.666 150.951 239.523 151.479 240.884 151.468C242.246 151.479 243.103 150.951 243.103 150.188C243.103 149.401 242.246 148.92 240.884 148.932C239.523 148.92 238.666 149.401 238.677 150.188ZM262.896 145.104V155.894H261.593V145.104H262.896ZM251.05 149.753C251.05 147.628 252.717 146.137 254.925 146.137C257.132 146.137 258.787 147.628 258.787 149.753C258.787 151.902 257.132 153.393 254.925 153.381C252.717 153.393 251.05 151.902 251.05 149.753ZM252.33 149.753C252.318 151.221 253.434 152.242 254.925 152.242C256.392 152.242 257.519 151.221 257.519 149.753C257.519 148.309 256.392 147.276 254.925 147.276C253.434 147.276 252.318 148.309 252.33 149.753ZM253.363 159.521V154.79H254.666V158.441H263.354V159.521H253.363ZM272.475 147.64V148.709H265.067V147.64H268.131V145.539H269.434V147.64H272.475ZM265.607 153.052C265.595 151.092 266.934 149.706 268.777 149.706C270.632 149.706 271.959 151.092 271.97 153.052C271.959 155.037 270.632 156.434 268.777 156.434C266.934 156.434 265.595 155.037 265.607 153.052ZM266.758 153.052C266.758 154.367 267.603 155.307 268.777 155.295C269.951 155.307 270.808 154.367 270.808 153.052C270.808 151.761 269.951 150.81 268.777 150.798C267.603 150.81 266.758 151.761 266.758 153.052ZM273.238 159.122V145.445H274.471V151.315H276.432V145.093H277.676V159.85H276.432V152.395H274.471V159.122H273.238ZM286.95 147.171C286.938 149.155 289.568 150.834 292.151 151.209L291.658 152.242C289.357 151.849 287.114 150.622 286.216 148.849C285.318 150.622 283.07 151.849 280.798 152.242L280.293 151.209C282.852 150.834 285.482 149.155 285.494 147.171V147.077H280.763V146.02H291.658V147.077H286.95V147.171ZM279.495 154.579V153.499H292.949V154.579H286.832V159.838H285.553V154.579H279.495ZM298.266 149.284C298.266 151.632 299.417 154.168 301.377 155.33L300.626 156.34C299.2 155.483 298.184 153.904 297.662 152.113C297.121 154.068 296.03 155.759 294.556 156.657L293.723 155.682C295.765 154.485 297.01 151.867 297.01 149.343V146.478H298.266V149.284ZM299.745 151.491V150.387H302.246V145.41H303.479V159.099H302.246V151.491H299.745ZM305.275 159.85V145.093H306.531V159.85H305.275ZM321.793 156.856V157.948H308.279V156.856H311.625V152.876C310.369 152.219 309.606 151.156 309.606 149.824C309.606 147.535 311.848 146.032 314.995 146.02C318.153 146.032 320.395 147.535 320.395 149.824C320.395 151.139 319.656 152.184 318.435 152.841V156.856H321.793ZM310.862 149.824C310.862 151.468 312.576 152.571 314.995 152.571C317.402 152.571 319.139 151.468 319.139 149.824C319.139 148.169 317.402 147.077 314.995 147.088C312.576 147.077 310.862 148.169 310.862 149.824ZM312.905 156.856H317.12V153.352C316.48 153.516 315.764 153.604 314.995 153.604C314.238 153.604 313.539 153.516 312.905 153.358V156.856ZM324.233 158.594C323.646 158.594 323.153 158.113 323.165 157.526C323.153 156.939 323.646 156.457 324.233 156.457C324.82 156.457 325.302 156.939 325.302 157.526C325.302 158.113 324.82 158.594 324.233 158.594Z" fill="#232323"/>
<rect width="196" height="196" transform="translate(371)" fill="white"/>
<rect x="373.449" y="47.7272" width="110.25" height="110.25" rx="2.45" fill="#F4F5F8" stroke="#E3E5EB" stroke-width="2.45" stroke-linecap="round" stroke-dasharray="0.61 4.9"/>
<path d="M458.219 115.88C457.666 115.88 457.219 115.432 457.219 114.88V111.632C457.219 111.08 456.771 110.632 456.219 110.632H445.352C444.799 110.632 444.352 110.184 444.352 109.632V106.144C444.352 105.941 444.413 105.743 444.529 105.576L455.127 90.2317C455.314 89.9614 455.622 89.8 455.95 89.8H462.265C462.818 89.8 463.265 90.2478 463.265 90.8V104.832C463.265 105.384 463.713 105.832 464.265 105.832H466.027C466.579 105.832 467.027 106.28 467.027 106.832V109.632C467.027 110.184 466.579 110.632 466.027 110.632H464.265C463.713 110.632 463.265 111.08 463.265 111.632V114.88C463.265 115.432 462.818 115.88 462.265 115.88H458.219ZM451.515 104.274C451.069 104.939 451.545 105.832 452.345 105.832H456.219C456.771 105.832 457.219 105.384 457.219 104.832V99.066C457.219 98.0784 455.939 97.6885 455.389 98.5083L451.515 104.274Z" fill="#D1D2D7"/>
<path d="M428.933 89.0959C435.191 89.0959 439.902 93.6719 439.902 102.824C439.902 111.944 435.191 116.52 428.933 116.52C422.676 116.52 417.965 111.944 417.965 102.824C417.965 93.6719 422.676 89.0959 428.933 89.0959ZM428.933 94.1839C426.121 94.1839 424.012 96.8719 424.012 102.824C424.012 108.744 426.121 111.432 428.933 111.432C431.746 111.432 433.855 108.744 433.855 102.824C433.855 96.8719 431.746 94.1839 428.933 94.1839Z" fill="#D1D2D7"/>
<path d="M404.867 115.88C404.315 115.88 403.867 115.432 403.867 114.88V111.632C403.867 111.08 403.419 110.632 402.867 110.632H392C391.448 110.632 391 110.184 391 109.632V106.144C391 105.941 391.062 105.743 391.177 105.576L401.776 90.2317C401.963 89.9614 402.27 89.8 402.599 89.8H408.914C409.466 89.8 409.914 90.2478 409.914 90.8V104.832C409.914 105.384 410.362 105.832 410.914 105.832H412.676C413.228 105.832 413.676 106.28 413.676 106.832V109.632C413.676 110.184 413.228 110.632 412.676 110.632H410.914C410.362 110.632 409.914 111.08 409.914 111.632V114.88C409.914 115.432 409.466 115.88 408.914 115.88H404.867ZM398.163 104.274C397.717 104.939 398.193 105.832 398.994 105.832H402.867C403.419 105.832 403.867 105.384 403.867 104.832V99.066C403.867 98.0784 402.588 97.6885 402.037 98.5083L398.163 104.274Z" fill="#D1D2D7"/>
<path d="M488.451 63.2938H510.207V71.3298L487.183 69.6369C485.135 69.4864 483.551 67.7809 483.551 65.7275V53.4938C483.551 53.0608 483.902 52.7098 484.335 52.7098H484.531C486.696 52.7098 488.451 54.4649 488.451 56.6298V63.2938Z" fill="#D1D2D7"/>
<path d="M562.058 73.7134L555.679 69.3698L551.759 78.3858L554.111 79.1698L545.879 102.494H560.831C561.666 102.494 562.343 101.817 562.343 100.982C562.343 98.8942 560.65 97.2018 558.563 97.2018H554.111L563.358 78.7067C564.236 76.9515 563.68 74.8178 562.058 73.7134Z" fill="#D1D2D7"/>
<path fill-rule="evenodd" clip-rule="evenodd" d="M552.541 103.67L524.127 102.9L520.012 74.662L491.2 70.938V62.51H541.376C548.492 62.51 559.644 67.6768 564.721 73.4674C565.636 74.5107 565.685 76.0087 565.056 77.245L555.488 96.026H552.11C552.541 98.77 552.737 100.534 552.541 103.67ZM553.331 79.562L549.215 78.778C549.604 80.5782 550.139 83.3368 550.656 86.5194L553.331 79.562Z" fill="#F0F2F6"/>
<path d="M531.566 60.158L539.014 58.933V61.922C539.014 63.9787 537.347 65.646 535.29 65.646C533.234 65.646 531.566 63.9787 531.566 61.922V60.158Z" fill="#D1D2D7"/>
<path d="M534.465 65.3795L531.792 62.3727C531.662 62.2265 531.444 62.1985 531.281 62.3069L530.636 62.7375C530.49 62.8347 530.426 63.0168 530.48 63.1836L531.948 67.7523C532.04 68.0376 532.405 68.1187 532.609 67.8991L534.459 65.9067C534.596 65.7587 534.599 65.5305 534.465 65.3795Z" fill="white"/>
<path d="M534.987 65.4117L538.781 62.3076C538.918 62.1955 539.113 62.1891 539.257 62.292L540.091 62.8873C540.257 63.0061 540.304 63.2328 540.199 63.4081L537.278 68.273C537.133 68.514 536.789 68.5288 536.624 68.3011L534.918 65.945C534.796 65.7769 534.827 65.5431 534.987 65.4117Z" fill="white"/>
<path d="M525.337 50.299C524.874 55.583 527.936 60.4478 533.328 60.9195C539.412 61.4518 544.4 57.2912 544.862 52.0073C545.324 46.7233 541.328 42.0574 535.937 41.5857C530.545 41.114 525.799 45.0151 525.337 50.299Z" fill="#E3E5EB"/>
<path d="M535.932 41.5857C541.324 42.0574 545.32 46.7233 544.857 52.0073C544.76 53.1238 544.471 54.1785 544.025 55.1433C544.433 54.1094 544.779 52.0005 542.905 51.8365C542.293 51.783 541.912 52.3127 541.725 52.761C541.647 52.9481 541.461 53.081 541.264 53.0353C538.695 52.4409 534.561 49.1245 532.534 44.4365L532.528 44.4447C531.314 46.0287 528.057 50.2755 525.332 50.299C525.845 44.4414 530.922 41.1474 535.932 41.5857Z" fill="#2E2E2E"/>
<path d="M513.351 151.362L524.128 102.9L552.542 99.652C552.694 114.368 550.907 138.464 549.903 151.06C549.846 151.777 550.288 152.431 550.952 152.705C553.968 153.949 554.743 155.419 554.726 158.194C554.724 158.612 554.376 158.942 553.958 158.942H535.003C534.318 158.942 533.778 158.359 533.83 157.676L536.477 123.074L527.877 158.047C527.748 158.572 527.277 158.942 526.735 158.942H508.16C507.689 158.942 507.322 158.528 507.407 158.065C508.061 154.515 509.78 153.364 512.256 152.552C512.805 152.372 513.229 151.926 513.351 151.362Z" fill="#2E2E2E"/>
<circle cx="534.906" cy="75.0207" r="1.176" fill="white"/>
<circle cx="535.297" cy="81.6845" r="1.176" fill="white"/>
<circle cx="536.086" cy="88.3484" r="1.176" fill="white"/>
</svg>
