<svg width="20" height="20" viewBox="0 0 20 20" fill="none" xmlns="http://www.w3.org/2000/svg">
<path fill-rule="evenodd" clip-rule="evenodd" d="M18.3334 10.0001C18.3334 14.6025 14.6025 18.3334 10.0001 18.3334C5.39771 18.3334 1.66675 14.6025 1.66675 10.0001C1.66675 5.39771 5.39771 1.66675 10.0001 1.66675C14.6025 1.66675 18.3334 5.39771 18.3334 10.0001ZM10.0001 5.83342C10.4603 5.83342 10.8334 6.20651 10.8334 6.66675V9.16675H13.3334C13.7937 9.16675 14.1667 9.53984 14.1667 10.0001C14.1667 10.4603 13.7937 10.8334 13.3334 10.8334H10.8334V13.3334C10.8334 13.7937 10.4603 14.1667 10.0001 14.1667C9.53984 14.1667 9.16675 13.7937 9.16675 13.3334V10.8334H6.66675C6.20651 10.8334 5.83342 10.4603 5.83342 10.0001C5.83342 9.53984 6.20651 9.16675 6.66675 9.16675H9.16675V6.66675C9.16675 6.20651 9.53984 5.83342 10.0001 5.83342Z" fill="#A8AAAD"/>
</svg>
