<svg width="56" height="56" viewBox="0 0 56 56" fill="none" xmlns="http://www.w3.org/2000/svg">
<path d="M39.9723 31.1121C43.2181 36.1239 47.6936 38.4478 50.7512 39.1438V49.35L38.1512 48.825C29.9262 48.475 28.7012 41.0715 28.7012 35.9312V8.78396C28.7012 7.82015 28.7012 5.25 31.3472 5.25C33.9932 5.25 34.8113 8.30951 35.0516 11.5147C35.3887 16.0125 35.9151 24.8474 39.9723 31.1121Z" fill="url(#paint0_linear_1217_43405)"/>
<path d="M16.3804 31.1121C13.1346 36.1239 8.65916 38.4478 5.60156 39.1438V49.35L18.2016 48.825C26.4266 48.475 27.6516 41.0715 27.6516 35.9312V8.78396C27.6516 7.82015 27.6516 5.25 25.0056 5.25C22.3596 5.25 21.5414 8.30951 21.3012 11.5147C20.964 16.0125 20.4376 24.8474 16.3804 31.1121Z" fill="url(#paint1_linear_1217_43405)"/>
<path d="M12.9057 33.2981C13.3092 33.2721 13.6508 33.5924 13.6508 33.9967V50.1145C13.6508 50.475 13.377 50.7766 13.0182 50.8113L3.56821 51.7258C3.15689 51.7656 2.80078 51.4423 2.80078 51.0291V34.6064C2.80078 34.2373 3.08738 33.9316 3.45571 33.9078L12.9057 33.2981Z" fill="#4C94FF"/>
<path d="M43.4458 33.2981C43.0424 33.2721 42.7008 33.5924 42.7008 33.9967V50.1145C42.7008 50.475 42.9745 50.7766 43.3334 50.8113L52.7834 51.7258C53.1947 51.7656 53.5508 51.4423 53.5508 51.0291V34.6064C53.5508 34.2373 53.2642 33.9316 52.8959 33.9078L43.4458 33.2981Z" fill="#4C94FF"/>
<path fill-rule="evenodd" clip-rule="evenodd" d="M27.6504 36.575V9.45H28.7004V36.575H27.6504Z" fill="#FD7C32"/>
<defs>
<linearGradient id="paint0_linear_1217_43405" x1="35.7012" y1="26.25" x2="28.7012" y2="26.25" gradientUnits="userSpaceOnUse">
<stop offset="0.445991" stop-color="#FFC633"/>
<stop offset="1" stop-color="#FFA943"/>
</linearGradient>
<linearGradient id="paint1_linear_1217_43405" x1="20.6516" y1="26.25" x2="27.6516" y2="26.25" gradientUnits="userSpaceOnUse">
<stop offset="0.445991" stop-color="#FFC633"/>
<stop offset="1" stop-color="#FFA943"/>
</linearGradient>
</defs>
</svg>
