<svg width="56" height="56" viewBox="0 0 56 56" fill="none" xmlns="http://www.w3.org/2000/svg">
<path fill-rule="evenodd" clip-rule="evenodd" d="M51.7734 31.5328C43.1054 28.0013 36.0868 30.7414 32.058 35.2351L29.1914 32.665C34.2626 27.0088 42.9939 23.7986 53.226 27.9673L51.7734 31.5328Z" fill="url(#paint0_linear_1217_43423)"/>
<mask id="mask0_1217_43423" style="mask-type:alpha" maskUnits="userSpaceOnUse" x="5" y="17" width="35" height="35">
<path d="M19.6673 17.6263L39.3836 37.3425C40.1007 38.0597 39.8411 39.2777 38.8938 39.6401L6.96211 51.8556C5.83132 52.2882 4.72172 51.1786 5.1543 50.0478L17.3698 18.116C17.7322 17.1688 18.9502 16.9092 19.6673 17.6263Z" fill="url(#paint1_linear_1217_43423)"/>
</mask>
<g mask="url(#mask0_1217_43423)">
<path d="M19.6671 17.6263L39.3833 37.3425C40.1005 38.0597 39.8409 39.2777 38.8936 39.6401L7.69384 51.5756C6.28036 52.1163 4.89336 50.7293 5.43409 49.3158L17.3696 18.116C17.7319 17.1688 18.95 16.9092 19.6671 17.6263Z" fill="url(#paint2_linear_1217_43423)"/>
<rect x="5.59961" y="23.3972" width="5.6" height="33.7132" transform="rotate(-45 5.59961 23.3972)" fill="#33D486"/>
</g>
<path d="M47.9504 19.25C47.9504 21.9562 45.7566 24.15 43.0504 24.15C40.3442 24.15 38.1504 21.9562 38.1504 19.25C38.1504 16.5438 40.3442 14.35 43.0504 14.35C45.7566 14.35 47.9504 16.5438 47.9504 19.25Z" fill="url(#paint3_radial_1217_43423)"/>
<path d="M14.8814 8.10022C14.7814 7.7268 15.003 7.34296 15.3764 7.2429L19.4333 6.15586C19.8067 6.0558 20.1906 6.27741 20.2906 6.65084L21.3777 10.7077C21.4777 11.0812 21.2561 11.465 20.8827 11.565L16.8258 12.6521C16.4524 12.7521 16.0685 12.5305 15.9685 12.1571L14.8814 8.10022Z" fill="#33D486"/>
<path d="M47.774 34.6617C48.0597 34.3759 48.5477 34.5067 48.6523 34.8971L49.4368 37.8249C49.5414 38.2153 49.1842 38.5725 48.7938 38.4679L45.866 37.6834C45.4756 37.5788 45.3449 37.0908 45.6307 36.805L47.774 34.6617Z" fill="#F9594F"/>
<path fill-rule="evenodd" clip-rule="evenodd" d="M34.6812 10.9808C35.2492 9.13437 35.1673 7.02052 34.9006 5.66038L38.3352 4.98698C38.6793 6.74201 38.8089 9.46629 38.0265 12.0099C37.6168 13.3417 36.9399 14.6588 35.9017 15.7418C36.0369 18.3631 35.391 21.4148 33.7883 24.6702L30.6482 23.1243C31.6071 21.1766 32.1223 19.4178 32.3207 17.89C32.1526 17.9396 31.9803 17.9852 31.8038 18.0266C29.725 18.5145 27.8943 18.3289 26.4389 17.5593C24.9842 16.79 24.0564 15.5131 23.684 14.1296C23.3165 12.7647 23.4805 11.2582 24.2426 10.0104C25.0282 8.72385 26.3816 7.82674 28.1293 7.62918C30.9092 7.31495 33.2729 8.75839 34.6329 11.1327C34.6494 11.0824 34.6655 11.0318 34.6812 10.9808ZM32.1421 14.2167C32.0962 14.0482 32.0453 13.8866 31.9898 13.7321C31.2701 11.7259 29.8732 10.9543 28.5224 11.107C27.8051 11.1881 27.43 11.5064 27.2296 11.8345C27.0056 12.2014 26.9261 12.7089 27.0636 13.2197C27.1961 13.7119 27.5219 14.1727 28.0751 14.4653C28.6278 14.7576 29.5597 14.9582 31.004 14.6192C31.4228 14.521 31.8008 14.3853 32.1421 14.2167Z" fill="#4C94FF"/>
<defs>
<linearGradient id="paint0_linear_1217_43423" x1="43.5747" y1="28" x2="30.4497" y2="32.55" gradientUnits="userSpaceOnUse">
<stop stop-color="#33D486"/>
<stop offset="1" stop-color="#33D486" stop-opacity="0.2"/>
</linearGradient>
<linearGradient id="paint1_linear_1217_43423" x1="32.7248" y1="23.8" x2="1.22481" y2="56.35" gradientUnits="userSpaceOnUse">
<stop offset="0.08444" stop-color="#7C62EA"/>
<stop offset="1" stop-color="#5768FF"/>
</linearGradient>
<linearGradient id="paint2_linear_1217_43423" x1="22.9214" y1="12.5603" x2="22.2871" y2="55.8797" gradientUnits="userSpaceOnUse">
<stop offset="0.08444" stop-color="#7C62EA"/>
<stop offset="1" stop-color="#5768FF"/>
</linearGradient>
<radialGradient id="paint3_radial_1217_43423" cx="0" cy="0" r="1" gradientUnits="userSpaceOnUse" gradientTransform="translate(43.0504 19.25) rotate(90) scale(4.9)">
<stop offset="0.140625" stop-color="#FF8660"/>
<stop offset="1" stop-color="#FFC633"/>
</radialGradient>
</defs>
</svg>
