<svg width="24" height="24" viewBox="0 0 24 24" fill="none" xmlns="http://www.w3.org/2000/svg">
<path fill-rule="evenodd" clip-rule="evenodd" d="M12 21.5C17.2467 21.5 21.5 17.2467 21.5 12C21.5 6.75329 17.2467 2.5 12 2.5C6.75329 2.5 2.5 6.75329 2.5 12C2.5 17.2467 6.75329 21.5 12 21.5ZM12 23C18.0751 23 23 18.0751 23 12C23 5.92487 18.0751 1 12 1C5.92487 1 1 5.92487 1 12C1 18.0751 5.92487 23 12 23Z" fill="#D1D2D7"/>
<path fill-rule="evenodd" clip-rule="evenodd" d="M17.8047 7.52827C18.0651 7.78862 18.0651 8.21073 17.8047 8.47108L10.4714 15.8044C10.2111 16.0648 9.78894 16.0648 9.5286 15.8044L6.19526 12.4711C5.93491 12.2107 5.93491 11.7886 6.19526 11.5283C6.45561 11.2679 6.87772 11.2679 7.13807 11.5283L10 14.3902L16.8619 7.52827C17.1223 7.26792 17.5444 7.26792 17.8047 7.52827Z" fill="#A8AAAD"/>
</svg>
