<svg width="100%" height="100%" viewBox="0 0 21 20" fill="currentColor" xmlns="http://www.w3.org/2000/svg">
<path fill-rule="evenodd" clip-rule="evenodd" d="M18.8327 9.99996C18.8327 14.6023 15.1017 18.3333 10.4993 18.3333C5.89698 18.3333 2.16602 14.6023 2.16602 9.99996C2.16602 5.39759 5.89698 1.66663 10.4993 1.66663C15.1017 1.66663 18.8327 5.39759 18.8327 9.99996ZM11.3327 4.99996C11.3327 4.53972 10.9596 4.16663 10.4993 4.16663C10.0391 4.16663 9.66602 4.53972 9.66602 4.99996V9.99996C9.66602 10.3156 9.84435 10.6042 10.1267 10.7453L13.46 12.412C13.8717 12.6178 14.3722 12.451 14.578 12.0393C14.7839 11.6277 14.617 11.1271 14.2054 10.9213L11.3327 9.48493V4.99996Z" fill="#A8AAAD"/>
</svg>
