<svg width="100%" height="100%" viewBox="0 0 21 20" fill="currentColor" xmlns="http://www.w3.org/2000/svg">
<path fill-rule="evenodd" clip-rule="evenodd" d="M18.8337 10.0003C18.8337 14.6027 15.1027 18.3337 10.5003 18.3337C5.89795 18.3337 2.16699 14.6027 2.16699 10.0003C2.16699 5.39795 5.89795 1.66699 10.5003 1.66699C15.1027 1.66699 18.8337 5.39795 18.8337 10.0003ZM11.3337 5.00033C11.3337 4.54009 10.9606 4.16699 10.5003 4.16699C10.0401 4.16699 9.66699 4.54009 9.66699 5.00033V10.0003C9.66699 10.316 9.84533 10.6045 10.1276 10.7457L13.461 12.4123C13.8726 12.6182 14.3732 12.4513 14.579 12.0397C14.7848 11.628 14.618 11.1275 14.2063 10.9216L11.3337 9.4853V5.00033Z" fill="#4C94FF"/>
</svg>
