<svg width="100%" height="100%" viewBox="0 0 32 32" fill="none" xmlns="http://www.w3.org/2000/svg">
<path d="M24.8839 8.88388C25.372 8.39573 25.372 7.60427 24.8839 7.11612C24.3957 6.62796 23.6043 6.62796 23.1161 7.11612L16 14.2322L8.88388 7.11612C8.39573 6.62796 7.60427 6.62796 7.11612 7.11612C6.62796 7.60427 6.62796 8.39573 7.11612 8.88388L14.2322 16L7.11612 23.1161C6.62796 23.6043 6.62796 24.3957 7.11612 24.8839C7.60427 25.372 8.39573 25.372 8.88388 24.8839L16 17.7678L23.1161 24.8839C23.6043 25.372 24.3957 25.372 24.8839 24.8839C25.372 24.3957 25.372 23.6043 24.8839 23.1161L17.7678 16L24.8839 8.88388Z" fill="#D1D2D7"/>
</svg>
