<svg width="56" height="56" viewBox="0 0 56 56" fill="none" xmlns="http://www.w3.org/2000/svg">
<path d="M12.8917 19.0751L11.0368 21.5669C8.74268 24.6486 9.14832 28.9657 11.9764 31.5661L26.9844 45.3664C27.5584 45.8942 28.4411 45.8942 29.015 45.3664L44.0231 31.5661C46.8511 28.9657 47.2568 24.6486 44.9627 21.5669L43.1078 19.0751C40.2972 15.2996 34.7439 15.0159 31.5632 18.4855L27.9997 22.3726L24.4362 18.4855C21.2556 15.0159 15.7023 15.2996 12.8917 19.0751Z" fill="url(#paint0_linear_1217_43442)"/>
<path d="M48.6442 41.8569C48.1381 44.7274 49.629 47.3393 50.9678 48.8987C51.3519 49.3461 51.1391 50.1071 50.5602 50.2187L43.5978 51.5603C40.0879 51.9271 36.312 49.4477 36.1997 43.7508C36.0594 36.6295 39.2889 28.1829 40.8539 26.0933C42.1059 24.4217 43.9379 25.1916 44.6974 25.7854C44.8293 25.4144 44.8663 23.9226 43.9591 20.9241C42.8251 17.1759 46.2658 14.6286 47.5257 18.7933C50.6845 28.0237 49.4533 37.2685 48.6442 41.8569Z" fill="url(#paint1_linear_1217_43442)"/>
<path fill-rule="evenodd" clip-rule="evenodd" d="M44.8069 24.8035L45.0499 25.2689C45.7862 26.6791 45.8437 28.1968 45.5621 29.7936C45.2827 31.3782 44.6587 33.094 43.9833 34.9193L43.8012 35.4117L42.8164 35.0473L42.9986 34.555C43.6811 32.7103 44.2681 31.0857 44.5281 29.6112C44.7859 28.1489 44.7112 26.889 44.1191 25.7549L43.8762 25.2895L44.8069 24.8035Z" fill="#FD6666"/>
<path d="M7.46468 41.8569C7.97083 44.7274 6.47994 47.3393 5.14114 48.8987C4.75707 49.3461 4.96982 50.1071 5.54878 50.2187L12.5112 51.5603C16.021 51.9271 19.7969 49.4477 19.9092 43.7508C20.0495 36.6295 16.8201 28.1829 15.255 26.0933C14.003 24.4217 12.171 25.1916 11.4115 25.7854C11.2796 25.4144 11.2426 23.9226 12.1498 20.9241C13.2838 17.1759 9.84316 14.6286 8.58318 18.7933C5.42438 28.0237 6.65563 37.2685 7.46468 41.8569Z" fill="url(#paint2_linear_1217_43442)"/>
<path fill-rule="evenodd" clip-rule="evenodd" d="M11.3023 24.8035L11.0593 25.2689C10.323 26.6791 10.2655 28.1968 10.5471 29.7936C10.8265 31.3782 11.4505 33.094 12.1259 34.9193L12.3081 35.4117L13.2928 35.0473L13.1106 34.555C12.4281 32.7103 11.8411 31.0857 11.5811 29.6112C11.3233 28.1489 11.398 26.889 11.9901 25.7549L12.2331 25.2895L11.3023 24.8035Z" fill="#FD6666"/>
<path d="M22.43 5.53188L21.9306 6.12167C21.0085 7.21069 21.0726 8.82406 22.0781 9.83653L27.6103 15.407C27.8254 15.6236 28.1757 15.6236 28.3908 15.407L33.9231 9.83653C34.9286 8.82406 34.9927 7.21069 34.0706 6.12167L33.5712 5.53188C32.501 4.26792 30.5646 4.22976 29.4454 5.45058L28.0006 7.02659L26.5558 5.45058C25.4366 4.22976 23.5002 4.26792 22.43 5.53188Z" fill="#7C62EA"/>
<defs>
<linearGradient id="paint0_linear_1217_43442" x1="27.9997" y1="15.175" x2="27.9997" y2="50.8" gradientUnits="userSpaceOnUse">
<stop offset="0.463542" stop-color="#FE5880"/>
<stop offset="1" stop-color="#FFC93E"/>
</linearGradient>
<linearGradient id="paint1_linear_1217_43442" x1="46.7854" y1="33.1856" x2="38.675" y2="29.8008" gradientUnits="userSpaceOnUse">
<stop offset="0.445991" stop-color="#FFC633"/>
<stop offset="1" stop-color="#FF8743"/>
</linearGradient>
<linearGradient id="paint2_linear_1217_43442" x1="9.32351" y1="33.1856" x2="17.434" y2="29.8008" gradientUnits="userSpaceOnUse">
<stop offset="0.445991" stop-color="#FFC633"/>
<stop offset="1" stop-color="#FF8743"/>
</linearGradient>
</defs>
</svg>
