<svg width="100%" height="100%" viewBox="0 0 20 20" fill="none" xmlns="http://www.w3.org/2000/svg">
<circle cx="9.9987" cy="9.99998" r="9.16667" fill="#F9594F"/>
<path fill-rule="evenodd" clip-rule="evenodd" d="M13.9213 7.2559C14.2467 6.93047 14.2467 6.40283 13.9213 6.07739C13.5959 5.75195 13.0682 5.75195 12.7428 6.07739L9.9987 8.82147L7.25462 6.07739C6.92918 5.75195 6.40155 5.75195 6.07611 6.07739C5.75067 6.40283 5.75067 6.93047 6.07611 7.2559L8.82019 9.99998L6.07611 12.7441C5.75067 13.0695 5.75067 13.5971 6.07611 13.9226C6.40155 14.248 6.92918 14.248 7.25462 13.9226L9.9987 11.1785L12.7428 13.9226C13.0682 14.248 13.5959 14.248 13.9213 13.9226C14.2467 13.5971 14.2467 13.0695 13.9213 12.7441L11.1772 9.99998L13.9213 7.2559Z" fill="white"/>
</svg>
