<svg width="32" height="36" viewBox="0 0 32 36" fill="currentColor" xmlns="http://www.w3.org/2000/svg">
<path d="M0 3.68245C0 1.64869 1.59188 0 3.55556 0H12.4444C14.4081 0 16 1.64869 16 3.68245V12.8886C16 14.9223 14.4081 16.571 12.4444 16.571H3.55556C1.59188 16.571 0 14.9223 0 12.8886V3.68245Z" fill="#4C94FF"/>
<path d="M16 3.68245C16 1.64869 17.5919 0 19.5556 0H28.4444C30.4081 0 32 1.64869 32 3.68245V12.8886C32 14.9223 30.4081 16.571 28.4444 16.571H19.5556C17.5919 16.571 16 14.9223 16 12.8886V3.68245Z" fill="#FFC633"/>
<path d="M0 20.2535C0 18.2197 1.59188 16.571 3.55556 16.571H12.4444C14.4081 16.571 16 18.2197 16 20.2535V29.4596C16 31.4934 14.4081 33.1421 12.4444 33.1421H3.55556C1.59188 33.1421 0 31.4934 0 29.4596V20.2535Z" fill="#33D486"/>
<path d="M19.5556 16.571C17.5919 16.571 16 18.2197 16 20.2535V35.3853C16 35.8725 16.5219 36.1655 16.9161 35.8995L21.0026 33.1421H28.4444C30.4081 33.1421 32 31.4934 32 29.4596V20.2535C32 18.2197 30.4081 16.571 28.4444 16.571H19.5556Z" fill="#EFF5FF"/>
</svg>
