<svg width="235" height="76" viewBox="0 0 235 76" fill="none" xmlns="http://www.w3.org/2000/svg">
<path d="M0 7.77406C0 3.48056 3.48056 0 7.77406 0H27.2092C31.5027 0 34.9833 3.48056 34.9833 7.77406V27.2092C34.9833 31.5027 31.5027 34.9833 27.2092 34.9833H7.77406C3.48056 34.9833 0 31.5027 0 27.2092V7.77406Z" fill="#4C94FF"/>
<path d="M34.9834 7.77406C34.9834 3.48056 38.464 0 42.7575 0H62.1926C66.4861 0 69.9667 3.48056 69.9667 7.77406V27.2092C69.9667 31.5027 66.4861 34.9833 62.1926 34.9833H42.7575C38.464 34.9833 34.9834 31.5027 34.9834 27.2092V7.77406Z" fill="#FFC633"/>
<path d="M0 42.7573C0 38.4638 3.48056 34.9833 7.77406 34.9833H27.2092C31.5027 34.9833 34.9833 38.4638 34.9833 42.7573V62.1925C34.9833 66.486 31.5027 69.9665 27.2092 69.9665H7.77406C3.48056 69.9665 0 66.486 0 62.1925V42.7573Z" fill="#33D486"/>
<path d="M42.7575 34.9833C38.464 34.9833 34.9834 38.4638 34.9834 42.7573V74.7022C34.9834 75.7309 36.1245 76.3493 36.9864 75.7878L45.9213 69.9665H62.1926C66.4861 69.9665 69.9667 66.486 69.9667 62.1925V42.7573C69.9667 38.4638 66.4861 34.9833 62.1926 34.9833H42.7575Z" fill="#232323"/>
<path d="M166.579 62.4106C166.579 62.0528 166.869 61.7627 167.227 61.7627H194.358C194.716 61.7627 195.006 61.4727 195.006 61.1149V51.19C195.006 50.8322 194.716 50.5422 194.358 50.5422H171.658C171.3 50.5422 171.01 50.2521 171.01 49.8943V24.0067C171.01 23.6489 171.3 23.3589 171.658 23.3589H218.976C219.334 23.3589 219.624 23.0688 219.624 22.711V15.533C219.624 15.1752 219.334 14.8852 218.976 14.8852H171.658C171.3 14.8852 171.01 14.5951 171.01 14.2373V6.10047C171.01 5.74268 171.3 5.45264 171.658 5.45264H229.186C229.544 5.45264 229.834 5.74268 229.834 6.10047V31.9104C229.834 32.2681 229.544 32.5582 229.186 32.5582H181.946C181.588 32.5582 181.298 32.8482 181.298 33.206V40.4618C181.298 40.8196 181.588 41.1097 181.946 41.1097H230.197C230.555 41.1097 230.845 41.3997 230.845 41.7575V49.8943C230.845 50.2521 230.555 50.5422 230.197 50.5422H206.097C205.739 50.5422 205.449 50.8322 205.449 51.19V61.1149C205.449 61.4727 205.739 61.7627 206.097 61.7627H233.54C233.897 61.7627 234.188 62.0528 234.188 62.4106V70.7806C234.188 71.1384 233.897 71.4285 233.54 71.4285H167.227C166.869 71.4285 166.579 71.1384 166.579 70.7806V62.4106Z" fill="#1C1C1C"/>
<path d="M164.137 40.3841C164.494 40.3841 164.784 40.0941 164.784 39.7363V31.0552C164.784 30.6974 164.494 30.4074 164.137 30.4074H154.16C153.802 30.4074 153.512 30.1173 153.512 29.7596V4.80482C153.512 4.44703 153.222 4.15698 152.864 4.15698H143.872C143.514 4.15698 143.224 4.44703 143.224 4.80482V71.1953C143.224 71.5531 143.514 71.8431 143.872 71.8431H152.864C153.222 71.8431 153.512 71.5531 153.512 71.1953V41.0319C153.512 40.6742 153.802 40.3841 154.16 40.3841H164.137Z" fill="#1C1C1C"/>
<path fill-rule="evenodd" clip-rule="evenodd" d="M134.103 6.74834C134.103 6.39055 133.813 6.1005 133.455 6.1005H124.541C124.183 6.1005 123.893 6.39055 123.893 6.74834V27.6606C123.893 28.0184 123.603 28.3084 123.245 28.3084H104.147C103.789 28.3084 103.499 28.0184 103.499 27.6606V6.74834C103.499 6.39055 103.209 6.1005 102.851 6.1005H93.9369C93.5791 6.1005 93.2891 6.39055 93.2891 6.74834V67.8784C93.2891 68.2362 93.5791 68.5262 93.9369 68.5262H133.455C133.813 68.5262 134.103 68.2362 134.103 67.8784V6.74834ZM103.499 38.622C103.499 38.2642 103.789 37.9741 104.147 37.9741H123.245C123.603 37.9741 123.893 38.2642 123.893 38.622V58.2126C123.893 58.5704 123.603 58.8605 123.245 58.8605H104.147C103.789 58.8605 103.499 58.5704 103.499 58.2126V38.622Z" fill="#1C1C1C"/>
</svg>
