<svg width="100%" height="100%" viewBox="0 0 32 32" fill="none" xmlns="http://www.w3.org/2000/svg">
<path fill-rule="evenodd" clip-rule="evenodd" d="M15.976 1C11.2925 1.0075 8.6931 1.53021 7.81477 1.90271C6.37582 2.27708 5.07624 3.04562 4.04333 4.08166C3.01104 5.11811 2.24583 6.42019 1.87708 7.8604C1.51187 8.72727 1.00708 11.2989 1 15.8268V16.0239C1.0075 20.6741 1.53021 23.3074 1.90354 24.1849C2.27687 25.6239 3.04666 26.9237 4.08187 27.9566C5.11811 28.9889 6.4204 29.7541 7.86061 30.1233C8.72727 30.4885 11.2125 30.9926 15.8202 30.9999H16.0248C20.7637 30.992 23.3076 30.4703 24.1851 30.0972C25.6239 29.723 26.9239 28.9533 27.9566 27.9181C28.9895 26.8818 29.7541 25.5795 30.1235 24.1393C30.4941 23.2608 31.0074 20.6166 30.9999 15.9752C30.9924 11.3341 30.4703 8.6929 30.0972 7.81477C29.7231 6.37603 28.9543 5.07603 27.9183 4.04312C26.8818 3.01041 25.5797 2.24583 24.1395 1.87646C23.267 1.50958 20.697 1 16.077 1C16.0433 1 16.01 1 15.976 1Z" fill="#03C75A"/>
<path fill-rule="evenodd" clip-rule="evenodd" d="M18.0253 21.8676L13.9016 15.6896V21.8676H9.60156V9.93262H13.9614L18.0852 16.1096V9.93262H22.3832V21.8676H18.0253Z" fill="white"/>
</svg>
