<svg xmlns="http://www.w3.org/2000/svg" width="24" height="24" viewBox="0 0 24 24" fill="none">
  <g clip-path="url(#clip0_1069_49292)">
    <path d="M16.5858 5.41421C17.3668 4.63316 18.6332 4.63316 19.4142 5.41421L22.2426 8.24264C23.0237 9.02369 23.0237 10.29 22.2426 11.0711L12.3431 20.9706L6.68629 15.3137L16.5858 5.41421Z" fill="#4C94FF"/>
    <path d="M16.5858 5.41421C17.3668 4.63316 18.6332 4.63316 19.4142 5.41421L22.2426 8.24264C23.0237 9.02369 23.0237 10.29 22.2426 11.0711L20.8284 12.4853L15.1716 6.82843L16.5858 5.41421Z" fill="#FFC633"/>
    <path d="M12.3434 20.9706L6.68652 15.3137L6.04844 21.0565C6.01305 21.3749 6.28214 21.644 6.60059 21.6086L12.3434 20.9706Z" fill="#EFF5FF"/>
    <path d="M9.16095 21.3241L6.33252 18.4957L6.04799 21.0565C6.0126 21.3749 6.28169 21.644 6.60014 21.6087L9.16095 21.3241Z" fill="#1C1C1C"/>
    <path d="M2 2.5C2 2.22386 2.22386 2 2.5 2H19.5C19.7761 2 20 2.22386 20 2.5C20 2.77614 19.7761 3 19.5 3H2.5C2.22386 3 2 2.77614 2 2.5Z" fill="#DEE6F3"/>
    <path d="M2 6.5C2 6.22386 2.22386 6 2.5 6H11V7H2.5C2.22386 7 2 6.77614 2 6.5Z" fill="#DEE6F3"/>
    <path d="M2 10.5C2 10.2239 2.22386 10 2.5 10H8V11H2.5C2.22386 11 2 10.7761 2 10.5Z" fill="#DEE6F3"/>
  </g>
  <defs>
    <clipPath id="clip0_1069_49292">
      <rect width="24" height="24" fill="white"/>
    </clipPath>
  </defs>
</svg>
