<svg width="100%" height="100%" viewBox="0 0 32 32" fill="currentColor" xmlns="http://www.w3.org/2000/svg">
<circle cx="16" cy="16" r="15.5" fill="white" stroke="#ECEEF3"/>
<path d="M10.75 8.5C9.50736 8.5 8.5 9.50736 8.5 10.75V21.25C8.5 22.4926 9.50736 23.5 10.75 23.5H21.25C22.4926 23.5 23.5 22.4926 23.5 21.25V10.75C23.5 9.50736 22.4926 8.5 21.25 8.5H10.75Z" fill="#A8AAAD"/>
<path d="M11.5 13.375C11.5 12.3395 12.3395 11.5 13.375 11.5C14.4105 11.5 15.25 12.3395 15.25 13.375C15.25 14.4105 14.4105 15.25 13.375 15.25C12.3395 15.25 11.5 14.4105 11.5 13.375Z" fill="#D1D2D7"/>
<path d="M18.4955 14.695C18.7683 14.4471 19.1807 14.4341 19.4686 14.6644L23.2186 17.6644C23.3965 17.8067 23.5 18.0222 23.5 18.25V21.25C23.5 22.4926 22.4927 23.5 21.25 23.5H10.75C10.4402 23.5 10.1622 23.3095 10.0505 23.0204C9.93876 22.7314 10.0163 22.4035 10.2455 22.195L18.4955 14.695Z" fill="#D1D2D7"/>
</svg>
