<svg width="100%" height="100%" viewBox="0 0 96 96" fill="currentColor" xmlns="http://www.w3.org/2000/svg">
<circle cx="48" cy="48" r="48" fill="#D1D2D7"/>
<path d="M47.9961 24.6666C41.5528 24.6666 36.3294 29.89 36.3294 36.3333C36.3294 42.7766 41.5528 48 47.9961 48C54.4394 48 59.6628 42.7766 59.6628 36.3333C59.6628 29.89 54.4394 24.6666 47.9961 24.6666Z" fill="#E3E5EB"/>
<path d="M38.6628 52.6666C35.5686 52.6666 32.6011 53.8958 30.4132 56.0837C28.2253 58.2716 26.9961 61.2391 26.9961 64.3333V69C26.9961 70.2886 28.0408 71.3333 29.3294 71.3333H66.6628C67.9514 71.3333 68.9961 70.2886 68.9961 69V64.3333C68.9961 61.2391 67.7669 58.2716 65.579 56.0837C63.3911 53.8958 60.4236 52.6666 57.3294 52.6666H38.6628Z" fill="#E3E5EB"/>
</svg>
