<svg width="100%" height="100%" viewBox="0 0 41 40" fill="none" xmlns="http://www.w3.org/2000/svg">
<circle cx="20.5" cy="20" r="20" fill="#F4F5F8"/>
<path d="M20.5 10C17.7386 10 15.5 12.2386 15.5 15C15.5 17.7614 17.7386 20 20.5 20C23.2614 20 25.5 17.7614 25.5 15C25.5 12.2386 23.2614 10 20.5 10Z" fill="#D1D2D7"/>
<path d="M16.5 22C15.1739 22 13.9021 22.5268 12.9645 23.4645C12.0268 24.4021 11.5 25.6739 11.5 27V29C11.5 29.5523 11.9477 30 12.5 30H28.5C29.0523 30 29.5 29.5523 29.5 29V27C29.5 25.6739 28.9732 24.4021 28.0355 23.4645C27.0979 22.5268 25.8261 22 24.5 22H16.5Z" fill="#D1D2D7"/>
</svg>
