<svg xmlns="http://www.w3.org/2000/svg" width="100%" height="100%" viewBox="0 0 28 28" fill="none">
<circle cx="14" cy="14" r="14" fill="#808285"/>
<path d="M14 7.33337C12.1591 7.33337 10.6667 8.82576 10.6667 10.6667C10.6667 12.5077 12.1591 14 14 14C15.8409 14 17.3333 12.5077 17.3333 10.6667C17.3333 8.82576 15.8409 7.33337 14 7.33337Z" fill="#A8AAAD"/>
<path d="M11.3333 15.3334C10.4493 15.3334 9.60143 15.6846 8.97631 16.3097C8.35119 16.9348 8 17.7827 8 18.6667V20C8 20.3682 8.29848 20.6667 8.66667 20.6667H19.3333C19.7015 20.6667 20 20.3682 20 20V18.6667C20 17.7827 19.6488 16.9348 19.0237 16.3097C18.3986 15.6846 17.5507 15.3334 16.6667 15.3334H11.3333Z" fill="#A8AAAD"/>
</svg>
