<svg width="56" height="56" viewBox="0 0 56 56" fill="none" xmlns="http://www.w3.org/2000/svg">
<path d="M7.69922 12.3631V48.5039C7.69922 49.6439 8.77179 50.4796 9.87717 50.2008L45.5955 41.1925C46.0478 41.0785 46.3707 40.6797 46.388 40.2135L47.5498 9.02652C47.575 8.34937 46.9618 7.826 46.297 7.95734L24.9879 12.1675C24.7716 12.2102 24.5701 12.0447 24.5701 11.8241V9.07991C24.5701 8.40815 23.948 7.90916 23.2923 8.05492L8.52139 11.3381C8.041 11.4449 7.69922 11.871 7.69922 12.3631Z" fill="url(#paint0_linear_1217_43692)"/>
<path d="M15.0979 25.6456L9.82809 48.6561C9.65407 49.416 10.3395 50.0938 11.0974 49.9114L45.5433 41.6186C46.8047 41.315 47.7945 40.3385 48.1154 39.0815L53.8291 16.698C54.0223 15.9412 53.351 15.246 52.588 15.4124L17.7638 23.0074C16.4392 23.2962 15.4006 24.3241 15.0979 25.6456Z" fill="#FD7C32"/>
<defs>
<linearGradient id="paint0_linear_1217_43692" x1="24.8492" y1="3.67501" x2="26.5992" y2="19.075" gradientUnits="userSpaceOnUse">
<stop stop-color="#FD7C32"/>
<stop offset="1" stop-color="#FDB832"/>
</linearGradient>
</defs>
</svg>
