<svg width="32" height="32" viewBox="0 0 32 32" fill="none" xmlns="http://www.w3.org/2000/svg">
<circle cx="16.0007" cy="15.9987" r="14.6667" fill="#D1D2D7"/>
<path fill-rule="evenodd" clip-rule="evenodd" d="M9.93882 21.9764C10.3174 22.3786 10.9502 22.3977 11.3524 22.0192C12.4578 20.9787 14.1141 20.291 16.0003 20.291C17.8865 20.291 19.5428 20.9787 20.6483 22.0192C21.0504 22.3977 21.6833 22.3786 22.0618 21.9764C22.4404 21.5742 22.4212 20.9414 22.0191 20.5628C20.5185 19.1504 18.3619 18.291 16.0003 18.291C13.6387 18.291 11.4822 19.1504 9.9816 20.5628C9.57944 20.9414 9.56029 21.5742 9.93882 21.9764Z" fill="#F9594F"/>
<path d="M12.6673 11.998C11.9309 11.998 11.334 12.595 11.334 13.3314C11.334 14.0678 11.9309 14.6647 12.6673 14.6647H12.6807C13.417 14.6647 14.014 14.0678 14.014 13.3314C14.014 12.595 13.417 11.998 12.6807 11.998H12.6673Z" fill="#121212"/>
<path d="M19.334 11.998C18.5976 11.998 18.0007 12.595 18.0007 13.3314C18.0007 14.0678 18.5976 14.6647 19.334 14.6647H19.3473C20.0837 14.6647 20.6807 14.0678 20.6807 13.3314C20.6807 12.595 20.0837 11.998 19.3473 11.998H19.334Z" fill="#121212"/>
</svg>
