<svg width="100%" height="100%" viewBox="0 0 20 20" fill="currentColor" xmlns="http://www.w3.org/2000/svg">
<path fill-rule="evenodd" clip-rule="evenodd" d="M16.0716 13.8004C16.0226 13.5301 16.0557 13.2513 16.1666 12.9999C16.2722 12.7534 16.4476 12.5432 16.6712 12.3952C16.8948 12.2471 17.1568 12.1677 17.4249 12.1666H17.4999C17.9419 12.1666 18.3659 11.991 18.6784 11.6784C18.991 11.3659 19.1666 10.9419 19.1666 10.4999C19.1666 10.0579 18.991 9.63397 18.6784 9.32141C18.3659 9.00885 17.9419 8.83325 17.4999 8.83325H17.3582C17.0901 8.83218 16.8281 8.75272 16.6045 8.60466C16.381 8.4566 16.2056 8.24639 16.0999 7.99992V7.93325C15.989 7.6819 15.9559 7.40309 16.0049 7.13276C16.0539 6.86243 16.1828 6.61298 16.3749 6.41658L16.4249 6.36658C16.5799 6.2118 16.7028 6.02798 16.7867 5.82565C16.8706 5.62332 16.9137 5.40644 16.9137 5.18742C16.9137 4.96839 16.8706 4.75151 16.7867 4.54918C16.7028 4.34685 16.5799 4.16304 16.4249 4.00825C16.2701 3.85329 16.0863 3.73036 15.884 3.64649C15.6817 3.56261 15.4648 3.51944 15.2458 3.51944C15.0267 3.51944 14.8098 3.56261 14.6075 3.64649C14.4052 3.73036 14.2214 3.85329 14.0666 4.00825L14.0166 4.05825C13.8202 4.25037 13.5707 4.37924 13.3004 4.42826C13.0301 4.47727 12.7513 4.44418 12.4999 4.33325C12.2534 4.22762 12.0432 4.05221 11.8952 3.82864C11.7471 3.60506 11.6677 3.34307 11.6666 3.07492V2.99992C11.6666 2.55789 11.491 2.13397 11.1784 1.82141C10.8659 1.50885 10.4419 1.33325 9.99992 1.33325C9.55789 1.33325 9.13397 1.50885 8.82141 1.82141C8.50885 2.13397 8.33325 2.55789 8.33325 2.99992V3.14159C8.33218 3.40974 8.25272 3.67173 8.10466 3.89531C7.9566 4.11888 7.74639 4.29428 7.49992 4.39992H7.43325C7.1819 4.51085 6.90309 4.54394 6.63276 4.49492C6.36243 4.44591 6.11298 4.31703 5.91658 4.12492L5.86658 4.07492C5.7118 3.91996 5.52798 3.79703 5.32565 3.71315C5.12332 3.62928 4.90644 3.58611 4.68742 3.58611C4.46839 3.58611 4.25151 3.62928 4.04918 3.71315C3.84685 3.79703 3.66304 3.91996 3.50825 4.07492C3.35329 4.22971 3.23036 4.41352 3.14649 4.61585C3.06261 4.81818 3.01944 5.03506 3.01944 5.25408C3.01944 5.47311 3.06261 5.68999 3.14649 5.89232C3.23036 6.09465 3.35329 6.27846 3.50825 6.43325L3.55825 6.48325C3.75037 6.67965 3.87924 6.9291 3.92826 7.19943C3.97727 7.46976 3.94418 7.74857 3.83325 7.99992C3.73801 8.25886 3.56708 8.48317 3.34267 8.64368C3.11826 8.80418 2.85075 8.89347 2.57492 8.89992H2.49992C2.05789 8.89992 1.63397 9.07551 1.32141 9.38807C1.00885 9.70063 0.833252 10.1246 0.833252 10.5666C0.833252 11.0086 1.00885 11.4325 1.32141 11.7451C1.63397 12.0577 2.05789 12.2333 2.49992 12.2333H2.64159C2.90974 12.2343 3.17173 12.3138 3.39531 12.4618C3.61888 12.6099 3.79428 12.8201 3.89992 13.0666C4.01085 13.3179 4.04394 13.5967 3.99492 13.8671C3.94591 14.1374 3.81703 14.3869 3.62492 14.5833L3.57492 14.6333C3.41996 14.788 3.29703 14.9719 3.21315 15.1742C3.12928 15.3765 3.08611 15.5934 3.08611 15.8124C3.08611 16.0314 3.12928 16.2483 3.21315 16.4507C3.29703 16.653 3.41996 16.8368 3.57492 16.9916C3.72971 17.1465 3.91352 17.2695 4.11585 17.3533C4.31818 17.4372 4.53506 17.4804 4.75408 17.4804C4.97311 17.4804 5.18999 17.4372 5.39232 17.3533C5.59465 17.2695 5.77846 17.1465 5.93325 16.9916L5.98325 16.9416C6.17965 16.7495 6.4291 16.6206 6.69943 16.5716C6.96976 16.5226 7.24857 16.5557 7.49992 16.6666C7.75886 16.7618 7.98317 16.9328 8.14368 17.1572C8.30418 17.3816 8.39347 17.6491 8.39992 17.9249V17.9999C8.39992 18.4419 8.57551 18.8659 8.88807 19.1784C9.20063 19.491 9.62456 19.6666 10.0666 19.6666C10.5086 19.6666 10.9325 19.491 11.2451 19.1784C11.5577 18.8659 11.7333 18.4419 11.7333 17.9999V17.8582C11.7343 17.5901 11.8138 17.3281 11.9618 17.1045C12.1099 16.881 12.3201 16.7056 12.5666 16.5999C12.8179 16.489 13.0967 16.4559 13.3671 16.5049C13.6374 16.5539 13.8869 16.6828 14.0833 16.8749L14.1333 16.9249C14.288 17.0799 14.4719 17.2028 14.6742 17.2867C14.8765 17.3706 15.0934 17.4137 15.3124 17.4137C15.5314 17.4137 15.7483 17.3706 15.9507 17.2867C16.153 17.2028 16.3368 17.0799 16.4916 16.9249C16.6465 16.7701 16.7695 16.5863 16.8533 16.384C16.9372 16.1817 16.9804 15.9648 16.9804 15.7458C16.9804 15.5267 16.9372 15.3098 16.8533 15.1075C16.7695 14.9052 16.6465 14.7214 16.4916 14.5666L16.4416 14.5166C16.2495 14.3202 16.1206 14.0707 16.0716 13.8004ZM12.4999 10.4999C12.4999 11.8806 11.3806 12.9999 9.99992 12.9999C8.61921 12.9999 7.49992 11.8806 7.49992 10.4999C7.49992 9.11921 8.61921 7.99992 9.99992 7.99992C11.3806 7.99992 12.4999 9.11921 12.4999 10.4999Z" fill="#D1D2D7"/>
</svg>
