<svg width="32" height="32" viewBox="0 0 32 32" fill="none" xmlns="http://www.w3.org/2000/svg">
<circle cx="16.0007" cy="16" r="14.6667" fill="#FFC633"/>
<path fill-rule="evenodd" clip-rule="evenodd" d="M9.93882 18.6064C10.3174 18.2042 10.9502 18.185 11.3524 18.5636C12.4578 19.6041 14.1141 20.2918 16.0003 20.2918C17.8865 20.2918 19.5428 19.6041 20.6483 18.5636C21.0504 18.185 21.6833 18.2042 22.0618 18.6064C22.4404 19.0085 22.4212 19.6414 22.0191 20.0199C20.5185 21.4323 18.3619 22.2918 16.0003 22.2918C13.6387 22.2918 11.4822 21.4323 9.9816 20.0199C9.57944 19.6414 9.56029 19.0085 9.93882 18.6064Z" fill="#FD6666"/>
<path d="M12.6673 12C11.9309 12 11.334 12.597 11.334 13.3333C11.334 14.0697 11.9309 14.6667 12.6673 14.6667H12.6807C13.417 14.6667 14.014 14.0697 14.014 13.3333C14.014 12.597 13.417 12 12.6807 12H12.6673Z" fill="#121212"/>
<path d="M19.334 12C18.5976 12 18.0007 12.597 18.0007 13.3333C18.0007 14.0697 18.5976 14.6667 19.334 14.6667H19.3473C20.0837 14.6667 20.6807 14.0697 20.6807 13.3333C20.6807 12.597 20.0837 12 19.3473 12H19.334Z" fill="#121212"/>
</svg>
