<svg xmlns="http://www.w3.org/2000/svg" width="24" height="24" viewBox="0 0 24 24" fill="currentColor">
  <path fill-rule="evenodd" clip-rule="evenodd" d="M2 5C2 3.34315 3.34315 2 5 2H19C20.6569 2 22 3.34315 22 5V19C22 20.6569 20.6569 22 19 22H5C3.34315 22 2 20.6569 2 19V5ZM17.864 10.137H16.426V6.09899C16.426 5.98853 16.3365 5.89899 16.226 5.89899H14.598C14.4876 5.89899 14.398 5.98853 14.398 6.09899V17.906C14.398 18.0164 14.4876 18.106 14.598 18.106H16.226C16.3365 18.106 16.426 18.0164 16.426 17.906V11.97H17.864C17.9745 11.97 18.064 11.8804 18.064 11.77V10.337C18.064 10.2265 17.9745 10.137 17.864 10.137ZM6.99301 8.57699H10.784C10.733 10.5646 9.55819 13.0892 6.54958 15.086C6.4511 15.1514 6.42745 15.2874 6.50065 15.3802L7.51027 16.6605C7.57501 16.7426 7.6927 16.7607 7.77885 16.7014C11.085 14.428 12.825 11.501 12.825 8.05699V6.93099C12.825 6.82053 12.7355 6.73099 12.625 6.73099H6.99301C6.88256 6.73099 6.79301 6.82053 6.79301 6.93099V8.37699C6.79301 8.48744 6.88256 8.57699 6.99301 8.57699Z" fill="currentColor"/>
</svg>
