<svg width="100%" height="100%" viewBox="0 0 48 48" fill="currentColor" xmlns="http://www.w3.org/2000/svg">
<path d="M24 44C35.0457 44 44 35.0457 44 24C44 12.9543 35.0457 4 24 4C12.9543 4 4 12.9543 4 24C4 35.0457 12.9543 44 24 44Z" fill="currentColor"/>
<path d="M23.4258 14.6138C23.2489 14.687 23.0832 14.7955 22.9393 14.9393L14.9393 22.9393C14.3536 23.5251 14.3536 24.4749 14.9393 25.0607C15.5251 25.6464 16.4749 25.6464 17.0607 25.0607L22.5 19.6213V32C22.5 32.8284 23.1716 33.5 24 33.5C24.8284 33.5 25.5 32.8284 25.5 32V19.6213L30.9393 25.0607C31.5251 25.6464 32.4749 25.6464 33.0607 25.0607C33.6464 24.4749 33.6464 23.5251 33.0607 22.9393L25.0607 14.9393C24.7678 14.6464 24.3839 14.5 24 14.5C23.7966 14.5 23.6027 14.5405 23.4258 14.6138Z" fill="white"/>
</svg>
