<svg width="48" height="48" viewBox="0 0 48 48" fill="currentColor" xmlns="http://www.w3.org/2000/svg">
<path fill-rule="evenodd" clip-rule="evenodd" d="M44 24C44 35.0457 35.0457 44 24 44C12.9543 44 4 35.0457 4 24C4 12.9543 12.9543 4 24 4C35.0457 4 44 12.9543 44 24ZM14.9393 22.9393L22.9393 14.9393C23.5251 14.3536 24.4749 14.3536 25.0607 14.9393L33.0607 22.9393C33.6464 23.5251 33.6464 24.4749 33.0607 25.0607C32.4749 25.6464 31.5251 25.6464 30.9393 25.0607L25.5 19.6213V32C25.5 32.8284 24.8284 33.5 24 33.5C23.1716 33.5 22.5 32.8284 22.5 32V19.6213L17.0607 25.0607C16.4749 25.6464 15.5251 25.6464 14.9393 25.0607C14.3536 24.4749 14.3536 23.5251 14.9393 22.9393Z" fill="#D1D2D7"/>
</svg>
