<svg xmlns="http://www.w3.org/2000/svg" width="24" height="24" viewBox="0 0 24 24" fill="none">
  <path d="M22 9.41421C22 9.149 21.8946 8.89464 21.7071 8.70711L15.2929 2.29289C15.1054 2.10536 14.851 2 14.5858 2L4 2C2.89543 2 2 2.89543 2 4V20C2 21.1046 2.89543 22 4 22H20C21.1046 22 22 21.1046 22 20V9.41421Z" fill="#E8F1FC"/>
  <path d="M15.1707 2.17071L21.8293 8.82929C21.8923 8.89229 21.8477 9 21.7586 9H17C15.8954 9 15 8.10457 15 7V2.24142C15 2.15233 15.1077 2.10771 15.1707 2.17071Z" fill="#D6DDE9"/>
  <path d="M5 7.5C5 7.22386 5.22386 7 5.5 7H12V8H5.5C5.22386 8 5 7.77614 5 7.5Z" fill="#D0D7E4"/>
  <path d="M5 12C5 11.7239 5.22386 11.5 5.5 11.5H18.5C18.7761 11.5 19 11.7239 19 12C19 12.2761 18.7761 12.5 18.5 12.5H5.5C5.22386 12.5 5 12.2761 5 12Z" fill="#D0D7E4"/>
  <path d="M5 16.5C5 16.2239 5.22386 16 5.5 16H18.5C18.7761 16 19 16.2239 19 16.5C19 16.7761 18.7761 17 18.5 17H5.5C5.22386 17 5 16.7761 5 16.5Z" fill="#D0D7E4"/>
</svg>