<svg width="20" height="20" viewBox="0 0 20 20" fill="none" xmlns="http://www.w3.org/2000/svg">
<circle cx="10" cy="10" r="9.16667" fill="#F9594F"/>
<path fill-rule="evenodd" clip-rule="evenodd" d="M13.9226 7.25592C14.2481 6.93049 14.2481 6.40285 13.9226 6.07741C13.5972 5.75198 13.0696 5.75198 12.7441 6.07741L10 8.82149L7.25596 6.07741C6.93053 5.75198 6.40289 5.75198 6.07745 6.07741C5.75201 6.40285 5.75201 6.93049 6.07745 7.25592L8.82153 10L6.07745 12.7441C5.75201 13.0695 5.75201 13.5972 6.07745 13.9226C6.40289 14.248 6.93053 14.248 7.25596 13.9226L10 11.1785L12.7441 13.9226C13.0696 14.248 13.5972 14.248 13.9226 13.9226C14.2481 13.5972 14.2481 13.0695 13.9226 12.7441L11.1786 10L13.9226 7.25592Z" fill="white"/>
</svg>
