<svg width="20" height="20" viewBox="0 0 20 20" fill="none" xmlns="http://www.w3.org/2000/svg">
<path d="M9.99985 1.58102C9.57018 1.58102 9.14777 1.69176 8.77336 1.90256C8.39895 2.11335 8.08518 2.41708 7.86234 2.78445L0.801632 14.5718L0.794863 14.5833C0.576573 14.9613 0.461071 15.3899 0.459849 15.8264C0.458626 16.2629 0.571726 16.6922 0.787896 17.0714C1.00406 17.4507 1.31577 17.7667 1.692 17.9881C2.06822 18.2095 2.49586 18.3285 2.93236 18.3333L17.0582 18.3334L17.0673 18.3333C17.5038 18.3285 17.9315 18.2095 18.3077 17.9881C18.6839 17.7667 18.9956 17.4507 19.2118 17.0714C19.428 16.6922 19.5411 16.2629 19.5399 15.8264C19.5386 15.3899 19.4231 14.9613 19.2048 14.5833L19.1981 14.5718L12.1398 2.78841L12.1374 2.78445C11.9145 2.41709 11.6008 2.11335 11.2263 1.90256C10.8519 1.69176 10.4295 1.58102 9.99985 1.58102Z" fill="#FFC633"/>
<path d="M10.8334 7.50002C10.8334 7.03978 10.4603 6.66669 10.0001 6.66669C9.53984 6.66669 9.16675 7.03978 9.16675 7.50002V10.8334C9.16675 11.2936 9.53984 11.6667 10.0001 11.6667C10.4603 11.6667 10.8334 11.2936 10.8334 10.8334V7.50002Z" fill="white"/>
<path d="M10.0001 13.3334C9.53984 13.3334 9.16675 13.7064 9.16675 14.1667C9.16675 14.6269 9.53984 15 10.0001 15H10.0084C10.4687 15 10.8417 14.6269 10.8417 14.1667C10.8417 13.7064 10.4687 13.3334 10.0084 13.3334H10.0001Z" fill="white"/>
</svg>
